<?xml version="1.0" encoding="UTF-8" standalone="no"?>
<svg xmlns="http://www.w3.org/2000/svg" 
     viewBox="0 0 1580 1060" 
     width="1580" 
     height="1060">
  <style>
    .title {
      font-family: 'Outfit', 'Inter', -apple-system, BlinkMacSystemFont, "Segoe UI", sans-serif;
      font-size: 26px;
      font-weight: 800;
      fill: #0c4a6e;
      letter-spacing: -0.5px;
    }
    .subtitle {
      font-family: 'Inter', -apple-system, BlinkMacSystemFont, "Segoe UI", sans-serif;
      font-size: 14px;
      font-weight: 500;
      fill: #0369a1;
    }
    .legend-text {
      font-family: 'Inter', -apple-system, BlinkMacSystemFont, "Segoe UI", sans-serif;
      font-size: 12px;
      font-weight: 500;
      fill: #0369a1;
    }
  </style>

  <defs>
    <!-- Background Gradient -->
    <linearGradient id="bg-gradient" x1="0%" y1="0%" x2="100%" y2="100%">
      <stop offset="0%" stop-color="#e0f2fe" />
      <stop offset="100%" stop-color="#bae6fd" />
    </linearGradient>
    
    <radialGradient id="island-shadow" cx="50%" cy="50%" r="50%">
      <stop offset="0%" stop-color="#0284c7" stop-opacity="0.5" />
      <stop offset="100%" stop-color="#0284c7" stop-opacity="0" />
    </radialGradient>
    <radialGradient id="island-shadow-dark" cx="50%" cy="50%" r="50%">
      <stop offset="0%" stop-color="#0c4a6e" stop-opacity="0.8" />
      <stop offset="100%" stop-color="#0c4a6e" stop-opacity="0" />
    </radialGradient>
    <linearGradient id="lighthouse-red" x1="0%" y1="0%" x2="100%" y2="0%">
      <stop offset="0%" stop-color="#ef4444" />
      <stop offset="50%" stop-color="#f87171" />
      <stop offset="100%" stop-color="#991b1b" />
    </linearGradient>
    <linearGradient id="lighthouse-white" x1="0%" y1="0%" x2="100%" y2="0%">
      <stop offset="0%" stop-color="#f1f5f9" />
      <stop offset="50%" stop-color="#ffffff" />
      <stop offset="100%" stop-color="#cbd5e1" />
    </linearGradient>
    <linearGradient id="beam-light" x1="0%" y1="100%" x2="0%" y2="0%">
      <stop offset="0%" stop-color="#fef08a" stop-opacity="0.35" />
      <stop offset="80%" stop-color="#fef08a" stop-opacity="0.05" />
      <stop offset="100%" stop-color="#fef08a" stop-opacity="0" />
    </linearGradient>
  
    
    <!-- Theme Tile Symbols -->
    
    <g id="tile-0">
      <path d="M -24,0 L 0,12 L 0,15 L -24,3 Z" fill="#0274af" />
      <path d="M 0,12 L 24,0 L 24,3 L 0,15 Z" fill="#016497" />
      <path d="M 0,-12 L 24,0 L 0,12 L -24,0 Z" fill="#0284c7" />
      
    </g>
  

    <g id="tile-1">
      <path d="M -24,0 L 0,12 L 0,17 L -24,5 Z" fill="#eab308" />
      <path d="M 0,12 L 24,0 L 24,5 L 0,17 Z" fill="#ca8a04" />
      <path d="M 0,-12 L 24,0 L 0,12 L -24,0 Z" fill="#fef08a" />
      
    </g>
  

          <g id="tile-2">
            <path d="M -24,0 L 0,12 L 0,18 L -24,6 Z" fill="#eab308" />
            <path d="M 0,12 L 24,0 L 24,6 L 0,18 Z" fill="#ca8a04" />
            <path d="M 0,-12 L 24,0 L 0,12 L -24,0 Z" fill="#fef08a" />
            <path d="M 0,-10.2 L 20.4,0 L 0,10.2 L -20.4,0 Z" fill="#86efac" />
          </g>
        

          <g id="tile-3">
            <path d="M -24,0 L 0,12 L 0,19 L -24,7 Z" fill="#ca8a04" />
            <path d="M 0,12 L 24,0 L 24,7 L 0,19 Z" fill="#a16207" />
            <path d="M 0,-12 L 24,0 L 0,12 L -24,0 Z" fill="#fef08a" />
            <path d="M 0,-10.2 L 20.4,0 L 0,10.2 L -20.4,0 Z" fill="#4ade80" />
          </g>
        

          <g id="tile-4">
            <path d="M -24,0 L 0,12 L 0,20 L -24,8 Z" fill="#a16207" />
            <path d="M 0,12 L 24,0 L 24,8 L 0,20 Z" fill="#854d0e" />
            <path d="M 0,-12 L 24,0 L 0,12 L -24,0 Z" fill="#fef08a" />
            <path d="M 0,-10.2 L 20.4,0 L 0,10.2 L -20.4,0 Z" fill="#22c55e" />
          </g>
        
  </defs>

  <!-- Background -->
  <rect width="100%" height="100%" fill="url(#bg-gradient)" rx="16" />

  <!-- Header -->
  <g transform="translate(60, 65)">
    <text x="0" y="0" class="title">HUSKYNARR'S GITHUB ACTIVITY</text>
    <text x="0" y="24" class="subtitle">Theme: Island • Total Contributions: 2,237 in the last year</text>
  </g>
  <!-- Isometric Grid Tiles & Objects -->
  <g>
    <use href="#tile-0" x="214" y="260" />
    <use href="#tile-0" x="190" y="272" />
    <use href="#tile-0" x="166" y="284" />
    <use href="#tile-0" x="142" y="296" />
    <use href="#tile-1" x="118" y="308" />
    <use href="#tile-0" x="94" y="320" />
    <use href="#tile-0" x="70" y="332" />
    <use href="#tile-0" x="238" y="272" />
    <use href="#tile-0" x="214" y="284" />
    <use href="#tile-0" x="190" y="296" />
    <use href="#tile-0" x="166" y="308" />
    <use href="#tile-0" x="142" y="320" />
    <use href="#tile-0" x="118" y="332" />
    <use href="#tile-1" x="94" y="344" />
    <use href="#tile-1" x="262" y="284" />
    <use href="#tile-0" x="238" y="296" />
    <use href="#tile-0" x="214" y="308" />
    <use href="#tile-0" x="190" y="320" />
    <use href="#tile-0" x="166" y="332" />
    <use href="#tile-0" x="142" y="344" />
    <use href="#tile-0" x="118" y="356" />
    <use href="#tile-1" x="286" y="296" />
    <use href="#tile-0" x="262" y="308" />
    <use href="#tile-0" x="238" y="320" />
    <use href="#tile-0" x="214" y="332" />
    <use href="#tile-0" x="190" y="344" />
    <use href="#tile-1" x="166" y="356" />
    <use href="#tile-0" x="142" y="368" />
    <use href="#tile-0" x="310" y="308" />
    <use href="#tile-0" x="286" y="320" />
    <use href="#tile-0" x="262" y="332" />
    <use href="#tile-0" x="238" y="344" />
    <use href="#tile-0" x="214" y="356" />
    <use href="#tile-0" x="190" y="368" />
    <use href="#tile-0" x="166" y="380" />
    <use href="#tile-0" x="334" y="320" />
    <use href="#tile-0" x="310" y="332" />
    <use href="#tile-0" x="286" y="344" />
    <use href="#tile-0" x="262" y="356" />
    <use href="#tile-0" x="238" y="368" />
    <use href="#tile-0" x="214" y="380" />
    <use href="#tile-0" x="190" y="392" />
    <use href="#tile-0" x="358" y="332" />
    <use href="#tile-0" x="334" y="344" />
    <use href="#tile-0" x="310" y="356" />
    <use href="#tile-0" x="286" y="368" />
    <use href="#tile-0" x="262" y="380" />
    <use href="#tile-0" x="238" y="392" />
    <use href="#tile-0" x="214" y="404" />
    <use href="#tile-0" x="382" y="344" />
    <use href="#tile-0" x="358" y="356" />
    <use href="#tile-0" x="334" y="368" />
    <use href="#tile-0" x="310" y="380" />
    <use href="#tile-0" x="286" y="392" />
    <use href="#tile-0" x="262" y="404" />
    <use href="#tile-0" x="238" y="416" />
    <use href="#tile-0" x="406" y="356" />
    <use href="#tile-0" x="382" y="368" />
    <use href="#tile-0" x="358" y="380" />
    <use href="#tile-0" x="334" y="392" />
    <use href="#tile-1" x="310" y="404" />
    <use href="#tile-0" x="286" y="416" />
    <use href="#tile-0" x="262" y="428" />
    <use href="#tile-1" x="430" y="368" />
    <use href="#tile-0" x="406" y="380" />
    <use href="#tile-1" x="382" y="392" />
    <use href="#tile-0" x="358" y="404" />
    <use href="#tile-0" x="334" y="416" />
    <use href="#tile-0" x="310" y="428" />
    <use href="#tile-0" x="286" y="440" />
    <use href="#tile-0" x="454" y="380" />
    <use href="#tile-1" x="430" y="392" />
    <use href="#tile-0" x="406" y="404" />
    <use href="#tile-0" x="382" y="416" />
    <use href="#tile-0" x="358" y="428" />
    <use href="#tile-0" x="334" y="440" />
    <use href="#tile-0" x="310" y="452" />
    <use href="#tile-0" x="478" y="392" />
    <use href="#tile-0" x="454" y="404" />
    <use href="#tile-1" x="430" y="416" />
    <use href="#tile-1" x="406" y="428" />
    <use href="#tile-1" x="382" y="440" />
    <use href="#tile-0" x="358" y="452" />
    <use href="#tile-0" x="334" y="464" />
    <use href="#tile-0" x="502" y="404" />
    <use href="#tile-1" x="478" y="416" />
    <use href="#tile-1" x="454" y="428" />
    <use href="#tile-1" x="430" y="440" />
    <use href="#tile-1" x="406" y="452" />
    <use href="#tile-0" x="382" y="464" />
    <use href="#tile-0" x="358" y="476" />
    <use href="#tile-0" x="526" y="416" />
    <use href="#tile-1" x="502" y="428" />
    <use href="#tile-0" x="478" y="440" />
    <use href="#tile-0" x="454" y="452" />
    <use href="#tile-1" x="430" y="464" />
    <use href="#tile-0" x="406" y="476" />
    <use href="#tile-0" x="382" y="488" />
    <use href="#tile-0" x="550" y="428" />
    <use href="#tile-1" x="526" y="440" />
    <use href="#tile-1" x="502" y="452" />
    <use href="#tile-0" x="478" y="464" />
    <use href="#tile-1" x="454" y="476" />
    <use href="#tile-1" x="430" y="488" />
    <use href="#tile-1" x="406" y="500" />
    <use href="#tile-1" x="574" y="440" />
    <use href="#tile-0" x="550" y="452" />
    <use href="#tile-1" x="526" y="464" />
    <use href="#tile-0" x="502" y="476" />
    <use href="#tile-1" x="478" y="488" />
    <use href="#tile-0" x="454" y="500" />
    <use href="#tile-0" x="430" y="512" />
    <use href="#tile-1" x="598" y="452" />
    <use href="#tile-2" x="574" y="464" />
    <use href="#tile-1" x="550" y="476" />
    <use href="#tile-1" x="526" y="488" />
    <use href="#tile-1" x="502" y="500" />
    <use href="#tile-4" x="478" y="512" />
    <use href="#tile-3" x="454" y="524" />
    <use href="#tile-0" x="622" y="464" />
    <use href="#tile-1" x="598" y="476" />
    <use href="#tile-0" x="574" y="488" />
    <use href="#tile-1" x="550" y="500" />
    <use href="#tile-0" x="526" y="512" />
    <use href="#tile-1" x="502" y="524" />
    <use href="#tile-1" x="478" y="536" />
    <use href="#tile-0" x="646" y="476" />
    <use href="#tile-0" x="622" y="488" />
    <use href="#tile-0" x="598" y="500" />
    <use href="#tile-1" x="574" y="512" />
    <use href="#tile-1" x="550" y="524" />
    <use href="#tile-1" x="526" y="536" />
    <use href="#tile-0" x="502" y="548" />
    <use href="#tile-0" x="670" y="488" />
    <use href="#tile-0" x="646" y="500" />
    <use href="#tile-0" x="622" y="512" />
    <use href="#tile-1" x="598" y="524" />
    <use href="#tile-0" x="574" y="536" />
    <use href="#tile-0" x="550" y="548" />
    <use href="#tile-0" x="526" y="560" />
    <use href="#tile-0" x="694" y="500" />
    <use href="#tile-2" x="670" y="512" />
    <use href="#tile-2" x="646" y="524" />
    <use href="#tile-1" x="622" y="536" />
    <use href="#tile-1" x="598" y="548" />
    <use href="#tile-1" x="574" y="560" />
    <use href="#tile-1" x="550" y="572" />
    <use href="#tile-2" x="718" y="512" />
    <use href="#tile-1" x="694" y="524" />
    <use href="#tile-1" x="670" y="536" />
    <use href="#tile-1" x="646" y="548" />
    <use href="#tile-1" x="622" y="560" />
    <use href="#tile-0" x="598" y="572" />
    <use href="#tile-0" x="574" y="584" />
    <use href="#tile-0" x="742" y="524" />
    <use href="#tile-0" x="718" y="536" />
    <use href="#tile-0" x="694" y="548" />
    <use href="#tile-0" x="670" y="560" />
    <use href="#tile-1" x="646" y="572" />
    <use href="#tile-0" x="622" y="584" />
    <use href="#tile-1" x="598" y="596" />
    <use href="#tile-0" x="766" y="536" />
    <use href="#tile-2" x="742" y="548" />
    <use href="#tile-0" x="718" y="560" />
    <use href="#tile-0" x="694" y="572" />
    <use href="#tile-0" x="670" y="584" />
    <use href="#tile-0" x="646" y="596" />
    <use href="#tile-0" x="622" y="608" />
    <use href="#tile-0" x="790" y="548" />
    <use href="#tile-0" x="766" y="560" />
    <use href="#tile-0" x="742" y="572" />
    <use href="#tile-0" x="718" y="584" />
    <use href="#tile-1" x="694" y="596" />
    <use href="#tile-1" x="670" y="608" />
    <use href="#tile-0" x="646" y="620" />
    <use href="#tile-1" x="814" y="560" />
    <use href="#tile-1" x="790" y="572" />
    <use href="#tile-1" x="766" y="584" />
    <use href="#tile-1" x="742" y="596" />
    <use href="#tile-0" x="718" y="608" />
    <use href="#tile-1" x="694" y="620" />
    <use href="#tile-0" x="670" y="632" />
    <use href="#tile-1" x="838" y="572" />
    <use href="#tile-1" x="814" y="584" />
    <use href="#tile-0" x="790" y="596" />
    <use href="#tile-1" x="766" y="608" />
    <use href="#tile-0" x="742" y="620" />
    <use href="#tile-1" x="718" y="632" />
    <use href="#tile-0" x="694" y="644" />
    <use href="#tile-0" x="862" y="584" />
    <use href="#tile-1" x="838" y="596" />
    <use href="#tile-3" x="814" y="608" />
    <use href="#tile-0" x="790" y="620" />
    <use href="#tile-0" x="766" y="632" />
    <use href="#tile-1" x="742" y="644" />
    <use href="#tile-1" x="718" y="656" />
    <use href="#tile-0" x="886" y="596" />
    <use href="#tile-0" x="862" y="608" />
    <use href="#tile-1" x="838" y="620" />
    <use href="#tile-0" x="814" y="632" />
    <use href="#tile-0" x="790" y="644" />
    <use href="#tile-0" x="766" y="656" />
    <use href="#tile-1" x="742" y="668" />
    <use href="#tile-0" x="910" y="608" />
    <use href="#tile-0" x="886" y="620" />
    <use href="#tile-0" x="862" y="632" />
    <use href="#tile-0" x="838" y="644" />
    <use href="#tile-1" x="814" y="656" />
    <use href="#tile-0" x="790" y="668" />
    <use href="#tile-1" x="766" y="680" />
    <use href="#tile-0" x="934" y="620" />
    <use href="#tile-1" x="910" y="632" />
    <use href="#tile-1" x="886" y="644" />
    <use href="#tile-2" x="862" y="656" />
    <use href="#tile-0" x="838" y="668" />
    <use href="#tile-3" x="814" y="680" />
    <use href="#tile-1" x="790" y="692" />
    <use href="#tile-2" x="958" y="632" />
    <use href="#tile-0" x="934" y="644" />
    <use href="#tile-2" x="910" y="656" />
    <use href="#tile-1" x="886" y="668" />
    <use href="#tile-2" x="862" y="680" />
    <use href="#tile-1" x="838" y="692" />
    <use href="#tile-2" x="814" y="704" />
    <use href="#tile-0" x="982" y="644" />
    <use href="#tile-0" x="958" y="656" />
    <use href="#tile-0" x="934" y="668" />
    <use href="#tile-0" x="910" y="680" />
    <use href="#tile-1" x="886" y="692" />
    <use href="#tile-1" x="862" y="704" />
    <use href="#tile-0" x="838" y="716" />
    <use href="#tile-1" x="1006" y="656" />
    <use href="#tile-0" x="982" y="668" />
    <use href="#tile-0" x="958" y="680" />
    <use href="#tile-0" x="934" y="692" />
    <use href="#tile-0" x="910" y="704" />
    <use href="#tile-0" x="886" y="716" />
    <use href="#tile-1" x="862" y="728" />
    <use href="#tile-0" x="1030" y="668" />
    <use href="#tile-0" x="1006" y="680" />
    <use href="#tile-1" x="982" y="692" />
    <use href="#tile-0" x="958" y="704" />
    <use href="#tile-0" x="934" y="716" />
    <use href="#tile-1" x="910" y="728" />
    <use href="#tile-1" x="886" y="740" />
    <use href="#tile-1" x="1054" y="680" />
    <use href="#tile-0" x="1030" y="692" />
    <use href="#tile-1" x="1006" y="704" />
    <use href="#tile-0" x="982" y="716" />
    <use href="#tile-1" x="958" y="728" />
    <use href="#tile-0" x="934" y="740" />
    <use href="#tile-1" x="910" y="752" />
    <use href="#tile-1" x="1078" y="692" />
    <use href="#tile-1" x="1054" y="704" />
    <use href="#tile-0" x="1030" y="716" />
    <use href="#tile-1" x="1006" y="728" />
    <use href="#tile-1" x="982" y="740" />
    <use href="#tile-2" x="958" y="752" />
    <use href="#tile-4" x="934" y="764" />
    <use href="#tile-1" x="1102" y="704" />
    <use href="#tile-0" x="1078" y="716" />
    <use href="#tile-0" x="1054" y="728" />
    <use href="#tile-0" x="1030" y="740" />
    <use href="#tile-0" x="1006" y="752" />
    <use href="#tile-0" x="982" y="764" />
    <use href="#tile-1" x="958" y="776" />
    <use href="#tile-1" x="1126" y="716" />
    <use href="#tile-0" x="1102" y="728" />
    <use href="#tile-1" x="1078" y="740" />
    <use href="#tile-0" x="1054" y="752" />
    <use href="#tile-0" x="1030" y="764" />
    <use href="#tile-0" x="1006" y="776" />
    <use href="#tile-0" x="982" y="788" />
    <use href="#tile-0" x="1150" y="728" />
    <use href="#tile-0" x="1126" y="740" />
    <use href="#tile-0" x="1102" y="752" />
    <use href="#tile-1" x="1078" y="764" />
    <use href="#tile-0" x="1054" y="776" />
    <use href="#tile-0" x="1030" y="788" />
    <use href="#tile-0" x="1006" y="800" />
    <use href="#tile-0" x="1174" y="740" />
    <use href="#tile-0" x="1150" y="752" />
    <use href="#tile-1" x="1126" y="764" />
    <use href="#tile-1" x="1102" y="776" />
    <use href="#tile-0" x="1078" y="788" />
    <use href="#tile-0" x="1054" y="800" />
    <use href="#tile-1" x="1030" y="812" />
    <use href="#tile-0" x="1198" y="752" />
    <use href="#tile-0" x="1174" y="764" />
    <use href="#tile-0" x="1150" y="776" />
    <use href="#tile-0" x="1126" y="788" />
    <use href="#tile-0" x="1102" y="800" />
    <use href="#tile-0" x="1078" y="812" />
    <use href="#tile-0" x="1054" y="824" />
    <use href="#tile-0" x="1222" y="764" />
    <use href="#tile-0" x="1198" y="776" />
    <use href="#tile-0" x="1174" y="788" />
    <use href="#tile-1" x="1150" y="800" />
    <use href="#tile-1" x="1126" y="812" />
    <use href="#tile-1" x="1102" y="824" />
    <use href="#tile-0" x="1078" y="836" />
    <use href="#tile-0" x="1246" y="776" />
    <use href="#tile-1" x="1222" y="788" />
    <use href="#tile-1" x="1198" y="800" />
    <use href="#tile-0" x="1174" y="812" />
    <use href="#tile-0" x="1150" y="824" />
    <use href="#tile-0" x="1126" y="836" />
    <use href="#tile-0" x="1102" y="848" />
    <use href="#tile-0" x="1270" y="788" />
    <use href="#tile-0" x="1246" y="800" />
    <use href="#tile-1" x="1222" y="812" />
    <use href="#tile-1" x="1198" y="824" />
    <use href="#tile-1" x="1174" y="836" />
    <use href="#tile-1" x="1150" y="848" />
    <use href="#tile-1" x="1126" y="860" />
    <use href="#tile-1" x="1294" y="800" />
    <use href="#tile-1" x="1270" y="812" />
    <use href="#tile-1" x="1246" y="824" />
    <use href="#tile-1" x="1222" y="836" />
    <use href="#tile-1" x="1198" y="848" />
    <use href="#tile-1" x="1174" y="860" />
    <use href="#tile-0" x="1150" y="872" />
    <use href="#tile-1" x="1318" y="812" />
    <use href="#tile-1" x="1294" y="824" />
    <use href="#tile-4" x="1270" y="836" />
    <use href="#tile-4" x="1246" y="848" />
    <use href="#tile-0" x="1222" y="860" />
    <use href="#tile-1" x="1198" y="872" />
    <use href="#tile-1" x="1174" y="884" />
    <use href="#tile-0" x="1342" y="824" />
    <use href="#tile-1" x="1318" y="836" />
    <use href="#tile-1" x="1294" y="848" />
    <use href="#tile-1" x="1270" y="860" />
    <use href="#tile-1" x="1246" y="872" />
    <use href="#tile-0" x="1222" y="884" />
    <use href="#tile-1" x="1198" y="896" />
    <use href="#tile-2" x="1366" y="836" />
    <use href="#tile-1" x="1342" y="848" />
    <use href="#tile-1" x="1318" y="860" />
    <use href="#tile-2" x="1294" y="872" />
    <use href="#tile-1" x="1270" y="884" />
    <use href="#tile-1" x="1246" y="896" />
    <use href="#tile-2" x="1222" y="908" />
    <use href="#tile-1" x="1390" y="848" />
    <use href="#tile-1" x="1366" y="860" />
    <use href="#tile-0" x="1342" y="872" />
    <use href="#tile-0" x="1318" y="884" />
    <use href="#tile-1" x="1294" y="896" />
    <use href="#tile-0" x="1270" y="908" />
    <use href="#tile-0" x="1246" y="920" />
    <use href="#tile-0" x="1414" y="860" />
    <use href="#tile-1" x="1390" y="872" />
    <use href="#tile-1" x="1366" y="884" />
    <use href="#tile-1" x="1342" y="896" />
    <use href="#tile-1" x="1318" y="908" />
    <use href="#tile-1" x="1294" y="920" />
    <use href="#tile-1" x="1270" y="932" />
    <use href="#tile-1" x="1438" y="872" />
    <use href="#tile-1" x="1414" y="884" />
    <use href="#tile-1" x="1390" y="896" />
    <use href="#tile-1" x="1366" y="908" />
    <use href="#tile-1" x="1342" y="920" />
    <use href="#tile-1" x="1318" y="932" />
    <use href="#tile-1" x="1294" y="944" />
    <use href="#tile-1" x="1462" y="884" />
    <use href="#tile-1" x="1438" y="896" />
    <use href="#tile-1" x="1414" y="908" />
    <use href="#tile-0" x="1390" y="920" />
    
          <path d="M 139.6,292.4 C 142.6,290.4 145.6,290.4 148.6,292.4 M 142,298.4 C 145,296.4 148,296.4 151,298.4" 
                stroke="#ffffff" stroke-width="1.0" fill="none" opacity="0.4" />
        
    
          <path d="M 187.6,292.4 C 190.6,290.4 193.6,290.4 196.6,292.4 M 190,298.4 C 193,296.4 196,296.4 199,298.4" 
                stroke="#ffffff" stroke-width="1.0" fill="none" opacity="0.4" />
        
    <path d="M 94,342 L 95,344 L 97,344 L 95.5,345.2 L 96,347 L 94,345.8 L 92,347 L 92.5,345.2 L 91,344 L 93,344 Z" fill="#ef4444" stroke="#ffffff" stroke-width="0.3" />
    <path d="M 262,282 L 263,284 L 265,284 L 263.5,285.2 L 264,287 L 262,285.8 L 260,287 L 260.5,285.2 L 259,284 L 261,284 Z" fill="#ef4444" stroke="#ffffff" stroke-width="0.3" />
    
          <path d="M 235.6,292.4 C 238.6,290.4 241.6,290.4 244.6,292.4 M 238,298.4 C 241,296.4 244,296.4 247,298.4" 
                stroke="#ffffff" stroke-width="1.0" fill="none" opacity="0.4" />
        
    
          <path d="M 115.6,352.4 C 118.6,350.4 121.6,350.4 124.6,352.4 M 118,358.4 C 121,356.4 124,356.4 127,358.4" 
                stroke="#ffffff" stroke-width="1.0" fill="none" opacity="0.4" />
        
    <path d="M 286,294 L 287,296 L 289,296 L 287.5,297.2 L 288,299 L 286,297.8 L 284,299 L 284.5,297.2 L 283,296 L 285,296 Z" fill="#ef4444" stroke="#ffffff" stroke-width="0.3" />
    
          <path d="M 211.6,352.4 C 214.6,350.4 217.6,350.4 220.6,352.4 M 214,358.4 C 217,356.4 220,356.4 223,358.4" 
                stroke="#ffffff" stroke-width="1.0" fill="none" opacity="0.4" />
        
    
          <path d="M 259.6,352.4 C 262.6,350.4 265.6,350.4 268.6,352.4 M 262,358.4 C 265,356.4 268,356.4 271,358.4" 
                stroke="#ffffff" stroke-width="1.0" fill="none" opacity="0.4" />
        
    
          <path d="M 307.6,352.4 C 310.6,350.4 313.6,350.4 316.6,352.4 M 310,358.4 C 313,356.4 316,356.4 319,358.4" 
                stroke="#ffffff" stroke-width="1.0" fill="none" opacity="0.4" />
        
    
          <path d="M 355.6,352.4 C 358.6,350.4 361.6,350.4 364.6,352.4 M 358,358.4 C 361,356.4 364,356.4 367,358.4" 
                stroke="#ffffff" stroke-width="1.0" fill="none" opacity="0.4" />
        
    
          <path d="M 235.6,412.4 C 238.6,410.4 241.6,410.4 244.6,412.4 M 238,418.4 C 241,416.4 244,416.4 247,418.4" 
                stroke="#ffffff" stroke-width="1.0" fill="none" opacity="0.4" />
        
    
          <path d="M 403.6,352.4 C 406.6,350.4 409.6,350.4 412.6,352.4 M 406,358.4 C 409,356.4 412,356.4 415,358.4" 
                stroke="#ffffff" stroke-width="1.0" fill="none" opacity="0.4" />
        
    <path d="M 310,402 L 311,404 L 313,404 L 311.5,405.2 L 312,407 L 310,405.8 L 308,407 L 308.5,405.2 L 307,404 L 309,404 Z" fill="#ef4444" stroke="#ffffff" stroke-width="0.3" />
    
          <path d="M 283.6,412.4 C 286.6,410.4 289.6,410.4 292.6,412.4 M 286,418.4 C 289,416.4 292,416.4 295,418.4" 
                stroke="#ffffff" stroke-width="1.0" fill="none" opacity="0.4" />
        
    <path d="M 382,390 L 383,392 L 385,392 L 383.5,393.2 L 384,395 L 382,393.8 L 380,395 L 380.5,393.2 L 379,392 L 381,392 Z" fill="#ef4444" stroke="#ffffff" stroke-width="0.3" />
    
          <path d="M 331.6,412.4 C 334.6,410.4 337.6,410.4 340.6,412.4 M 334,418.4 C 337,416.4 340,416.4 343,418.4" 
                stroke="#ffffff" stroke-width="1.0" fill="none" opacity="0.4" />
        
    <path d="M 430,390 L 431,392 L 433,392 L 431.5,393.2 L 432,395 L 430,393.8 L 428,395 L 428.5,393.2 L 427,392 L 429,392 Z" fill="#ef4444" stroke="#ffffff" stroke-width="0.3" />
    
          <path d="M 379.6,412.4 C 382.6,410.4 385.6,410.4 388.6,412.4 M 382,418.4 C 385,416.4 388,416.4 391,418.4" 
                stroke="#ffffff" stroke-width="1.0" fill="none" opacity="0.4" />
        
    <path d="M 430,414 L 431,416 L 433,416 L 431.5,417.2 L 432,419 L 430,417.8 L 428,419 L 428.5,417.2 L 427,416 L 429,416 Z" fill="#ef4444" stroke="#ffffff" stroke-width="0.3" />
    <path d="M 406,426 L 407,428 L 409,428 L 407.5,429.2 L 408,431 L 406,429.8 L 404,431 L 404.5,429.2 L 403,428 L 405,428 Z" fill="#ef4444" stroke="#ffffff" stroke-width="0.3" />
    <path d="M 454,426 L 455,428 L 457,428 L 455.5,429.2 L 456,431 L 454,429.8 L 452,431 L 452.5,429.2 L 451,428 L 453,428 Z" fill="#ef4444" stroke="#ffffff" stroke-width="0.3" />
    <path d="M 430,438 L 431,440 L 433,440 L 431.5,441.2 L 432,443 L 430,441.8 L 428,443 L 428.5,441.2 L 427,440 L 429,440 Z" fill="#ef4444" stroke="#ffffff" stroke-width="0.3" />
    
          <path d="M 355.6,472.4 C 358.6,470.4 361.6,470.4 364.6,472.4 M 358,478.4 C 361,476.4 364,476.4 367,478.4" 
                stroke="#ffffff" stroke-width="1.0" fill="none" opacity="0.4" />
        
    
          <path d="M 403.6,472.4 C 406.6,470.4 409.6,470.4 412.6,472.4 M 406,478.4 C 409,476.4 412,476.4 415,478.4" 
                stroke="#ffffff" stroke-width="1.0" fill="none" opacity="0.4" />
        
    <path d="M 454,474 L 455,476 L 457,476 L 455.5,477.2 L 456,479 L 454,477.8 L 452,479 L 452.5,477.2 L 451,476 L 453,476 Z" fill="#ef4444" stroke="#ffffff" stroke-width="0.3" />
    <path d="M 406,498 L 407,500 L 409,500 L 407.5,501.2 L 408,503 L 406,501.8 L 404,503 L 404.5,501.2 L 403,500 L 405,500 Z" fill="#ef4444" stroke="#ffffff" stroke-width="0.3" />
    <path d="M 574,438 L 575,440 L 577,440 L 575.5,441.2 L 576,443 L 574,441.8 L 572,443 L 572.5,441.2 L 571,440 L 573,440 Z" fill="#ef4444" stroke="#ffffff" stroke-width="0.3" />
    
          <path d="M 499.6,472.4 C 502.6,470.4 505.6,470.4 508.6,472.4 M 502,478.4 C 505,476.4 508,476.4 511,478.4" 
                stroke="#ffffff" stroke-width="1.0" fill="none" opacity="0.4" />
        
    <path d="M 478,486 L 479,488 L 481,488 L 479.5,489.2 L 480,491 L 478,489.8 L 476,491 L 476.5,489.2 L 475,488 L 477,488 Z" fill="#ef4444" stroke="#ffffff" stroke-width="0.3" />
    <path d="M 598,450 L 599,452 L 601,452 L 599.5,453.2 L 600,455 L 598,453.8 L 596,455 L 596.5,453.2 L 595,452 L 597,452 Z" fill="#ef4444" stroke="#ffffff" stroke-width="0.3" />
    <ellipse cx="574" cy="465" rx="8" ry="4" fill="url(#island-shadow)" opacity="0.3" />
        <!-- Trunk -->
        <path d="M 573,464 Q 569.2,452 566,440 L 567,440 Q 570.2,452 575,464 Z" fill="#854d0e" />
        <!-- Leaves -->
        <g stroke="#166534" stroke-width="1.2" fill="none">
          <path d="M 566,440 Q 553.2,443.2 550,449.6" />
          <path d="M 566,440 Q 578.8,443.2 582,449.6" />
          <path d="M 566,440 Q 559.6,430.4 556.4,424" fill="#22c55e" fill-opacity="0.1" />
          <path d="M 566,440 Q 572.4,430.4 575.6,424" fill="#22c55e" fill-opacity="0.1" />
          <path d="M 566,440 Q 551.6,436.8 546.8,433.6" />
          <path d="M 566,440 Q 580.4,436.8 585.2,433.6" />
        </g>
      
    <path d="M 526,486 L 527,488 L 529,488 L 527.5,489.2 L 528,491 L 526,489.8 L 524,491 L 524.5,489.2 L 523,488 L 525,488 Z" fill="#ef4444" stroke="#ffffff" stroke-width="0.3" />
    <path d="M 502,498 L 503,500 L 505,500 L 503.5,501.2 L 504,503 L 502,501.8 L 500,503 L 500.5,501.2 L 499,500 L 501,500 Z" fill="#ef4444" stroke="#ffffff" stroke-width="0.3" />
    <ellipse cx="478" cy="514" rx="18" ry="9" fill="url(#island-shadow)" opacity="0.4" />
    <path d="M 468.784,510 L 478,514.608 L 478,497.80799999999994 L 468.784,493.2 Z" fill="url(#lighthouse-white)" />
    <path d="M 478,514.608 L 487.216,510 L 487.216,493.2 L 478,497.80799999999994 Z" fill="#cbd5e1" />
    <path d="M 478,488.592 L 487.216,493.2 L 478,497.80799999999994 L 468.784,493.2 Z" fill="#ffffff" />
  
    <path d="M 469.936,510 L 478,514.032 L 478,480.432 L 469.936,476.4 Z" fill="url(#lighthouse-red)" />
    <path d="M 478,514.032 L 486.064,510 L 486.064,476.4 L 478,480.432 Z" fill="#b91c1c" />
    <path d="M 478,472.368 L 486.064,476.4 L 478,480.432 L 469.936,476.4 Z" fill="#ef4444" />
  
    <path d="M 471.088,510 L 478,513.456 L 478,463.05600000000004 L 471.088,459.6 Z" fill="url(#lighthouse-white)" />
    <path d="M 478,513.456 L 484.912,510 L 484.912,459.6 L 478,463.05600000000004 Z" fill="#cbd5e1" />
    <path d="M 478,456.144 L 484.912,459.6 L 478,463.05600000000004 L 471.088,459.6 Z" fill="#ffffff" />
  
    <path d="M 472.24,510 L 478,512.88 L 478,445.68 L 472.24,442.8 Z" fill="url(#lighthouse-red)" />
    <path d="M 478,512.88 L 483.76,510 L 483.76,442.8 L 478,445.68 Z" fill="#b91c1c" />
    <path d="M 478,439.92 L 483.76,442.8 L 478,445.68 L 472.24,442.8 Z" fill="#ef4444" />
  
    <path d="M 470.896,510 L 478,513.552 L 478,443.952 L 470.896,440.4 Z" fill="#0f172a" />
    <path d="M 478,513.552 L 485.104,510 L 485.104,440.4 L 478,443.952 Z" fill="#020617" />
    <path d="M 478,436.84799999999996 L 485.104,440.4 L 478,443.952 L 470.896,440.4 Z" fill="#1e293b" />
  
    <path d="M 471.856,510 L 478,513.072 L 478,433.072 L 471.856,430 Z" fill="#fbbf24" />
    <path d="M 478,513.072 L 484.144,510 L 484.144,430 L 478,433.072 Z" fill="#d97706" />
    <path d="M 478,426.928 L 484.144,430 L 478,433.072 L 471.856,430 Z" fill="#fef08a" />
  
    <path d="M 471.376,510 L 478,513.312 L 478,430.112 L 471.376,426.8 Z" fill="#0f172a" />
    <path d="M 478,513.312 L 484.624,510 L 484.624,426.8 L 478,430.112 Z" fill="#020617" />
    <path d="M 478,423.488 L 484.624,426.8 L 478,430.112 L 471.376,426.8 Z" fill="#1e293b" />
  
      <polygon points="478,436.4 588,316.4 648,316.4" 
               fill="url(#beam-light)" opacity="0.5" />
      <circle cx="478" cy="436.4" r="3" fill="#ffffff" filter="url(#neon-glow)" />
    
        <!-- Trunk -->
        <path d="M 469,515 Q 464.72,501.8 461.2,488.6 L 462.2,488.6 Q 465.72,501.8 471,515 Z" fill="#854d0e" />
        <!-- Leaves -->
        <g stroke="#166534" stroke-width="1.2" fill="none">
          <path d="M 461.2,488.6 Q 447.12,492.12 443.59999999999997,499.16" />
          <path d="M 461.2,488.6 Q 475.28,492.12 478.8,499.16" />
          <path d="M 461.2,488.6 Q 454.15999999999997,478.04 450.64,471" fill="#22c55e" fill-opacity="0.1" />
          <path d="M 461.2,488.6 Q 468.24,478.04 471.76,471" fill="#22c55e" fill-opacity="0.1" />
          <path d="M 461.2,488.6 Q 445.36,485.08000000000004 440.08,481.56" />
          <path d="M 461.2,488.6 Q 477.03999999999996,485.08000000000004 482.32,481.56" />
        </g>
      
    <path d="M 481.12,515 L 484,516.44 L 484,513.44 L 481.12,512 Z" fill="#ca8a04" />
    <path d="M 484,516.44 L 486.88,515 L 486.88,512 L 484,513.44 Z" fill="#451a03" />
    <path d="M 484,510.55999999999995 L 486.88,512 L 484,513.44 L 481.12,512 Z" fill="#78350f" />
  
    <ellipse cx="454" cy="526" rx="14" ry="7" fill="url(#island-shadow)" opacity="0.35" />
    <path d="M 450.8,521 L 458,524.6 L 458,515 L 450.8,511.4 Z" fill="#78350f" />
    <path d="M 458,524.6 L 465.2,521 L 465.2,511.4 L 458,515 Z" fill="#451a03" />
    <path d="M 458,507.79999999999995 L 465.2,511.4 L 458,515 L 450.8,511.4 Z" fill="#b45309" />
  
        <path d="M 449.84,511.4 L 458,503.4 L 458,515.48 Z" fill="#fef08a" />
        <path d="M 458,515.48 L 458,503.4 L 466.16,511.4 Z" fill="#facc15" />
      
        <!-- Trunk -->
        <path d="M 448,526 Q 444.44,514.6 441.4,503.2 L 442.4,503.2 Q 445.44,514.6 450,526 Z" fill="#854d0e" />
        <!-- Leaves -->
        <g stroke="#166534" stroke-width="1.2" fill="none">
          <path d="M 441.4,503.2 Q 429.23999999999995,506.24 426.2,512.3199999999999" />
          <path d="M 441.4,503.2 Q 453.56,506.24 456.59999999999997,512.3199999999999" />
          <path d="M 441.4,503.2 Q 435.32,494.08 432.28,488" fill="#22c55e" fill-opacity="0.1" />
          <path d="M 441.4,503.2 Q 447.47999999999996,494.08 450.52,488" fill="#22c55e" fill-opacity="0.1" />
          <path d="M 441.4,503.2 Q 427.71999999999997,500.15999999999997 423.15999999999997,497.12" />
          <path d="M 441.4,503.2 Q 455.08,500.15999999999997 459.64,497.12" />
        </g>
      
        <!-- Trunk -->
        <path d="M 454,528 Q 451.64,519.6 449.4,511.2 L 450.4,511.2 Q 452.64,519.6 456,528 Z" fill="#854d0e" />
        <!-- Leaves -->
        <g stroke="#166534" stroke-width="1.2" fill="none">
          <path d="M 449.4,511.2 Q 440.44,513.4399999999999 438.2,517.92" />
          <path d="M 449.4,511.2 Q 458.35999999999996,513.4399999999999 460.59999999999997,517.92" />
          <path d="M 449.4,511.2 Q 444.91999999999996,504.48 442.67999999999995,500" fill="#22c55e" fill-opacity="0.1" />
          <path d="M 449.4,511.2 Q 453.88,504.48 456.12,500" fill="#22c55e" fill-opacity="0.1" />
          <path d="M 449.4,511.2 Q 439.32,508.96 435.96,506.71999999999997" />
          <path d="M 449.4,511.2 Q 459.47999999999996,508.96 462.84,506.71999999999997" />
        </g>
      
    <path d="M 598,474 L 599,476 L 601,476 L 599.5,477.2 L 600,479 L 598,477.8 L 596,479 L 596.5,477.2 L 595,476 L 597,476 Z" fill="#ef4444" stroke="#ffffff" stroke-width="0.3" />
    <path d="M 502,522 L 503,524 L 505,524 L 503.5,525.2 L 504,527 L 502,525.8 L 500,527 L 500.5,525.2 L 499,524 L 501,524 Z" fill="#ef4444" stroke="#ffffff" stroke-width="0.3" />
    
          <path d="M 595.6,496.4 C 598.6,494.4 601.6,494.4 604.6,496.4 M 598,502.4 C 601,500.4 604,500.4 607,502.4" 
                stroke="#ffffff" stroke-width="1.0" fill="none" opacity="0.4" />
        
    <path d="M 550,522 L 551,524 L 553,524 L 551.5,525.2 L 552,527 L 550,525.8 L 548,527 L 548.5,525.2 L 547,524 L 549,524 Z" fill="#ef4444" stroke="#ffffff" stroke-width="0.3" />
    <path d="M 526,534 L 527,536 L 529,536 L 527.5,537.2 L 528,539 L 526,537.8 L 524,539 L 524.5,537.2 L 523,536 L 525,536 Z" fill="#ef4444" stroke="#ffffff" stroke-width="0.3" />
    
          <path d="M 643.6,496.4 C 646.6,494.4 649.6,494.4 652.6,496.4 M 646,502.4 C 649,500.4 652,500.4 655,502.4" 
                stroke="#ffffff" stroke-width="1.0" fill="none" opacity="0.4" />
        
    
          <path d="M 691.6,496.4 C 694.6,494.4 697.6,494.4 700.6,496.4 M 694,502.4 C 697,500.4 700,500.4 703,502.4" 
                stroke="#ffffff" stroke-width="1.0" fill="none" opacity="0.4" />
        
    <ellipse cx="670" cy="513" rx="8" ry="4" fill="url(#island-shadow)" opacity="0.3" />
        <!-- Trunk -->
        <path d="M 669,512 Q 665.2,500 662,488 L 663,488 Q 666.2,500 671,512 Z" fill="#854d0e" />
        <!-- Leaves -->
        <g stroke="#166534" stroke-width="1.2" fill="none">
          <path d="M 662,488 Q 649.2,491.2 646,497.6" />
          <path d="M 662,488 Q 674.8,491.2 678,497.6" />
          <path d="M 662,488 Q 655.6,478.4 652.4,472" fill="#22c55e" fill-opacity="0.1" />
          <path d="M 662,488 Q 668.4,478.4 671.6,472" fill="#22c55e" fill-opacity="0.1" />
          <path d="M 662,488 Q 647.6,484.8 642.8,481.6" />
          <path d="M 662,488 Q 676.4,484.8 681.2,481.6" />
        </g>
      
    <ellipse cx="646" cy="525" rx="8" ry="4" fill="url(#island-shadow)" opacity="0.3" />
        <!-- Trunk -->
        <path d="M 645,524 Q 641.2,512 638,500 L 639,500 Q 642.2,512 647,524 Z" fill="#854d0e" />
        <!-- Leaves -->
        <g stroke="#166534" stroke-width="1.2" fill="none">
          <path d="M 638,500 Q 625.2,503.2 622,509.6" />
          <path d="M 638,500 Q 650.8,503.2 654,509.6" />
          <path d="M 638,500 Q 631.6,490.4 628.4,484" fill="#22c55e" fill-opacity="0.1" />
          <path d="M 638,500 Q 644.4,490.4 647.6,484" fill="#22c55e" fill-opacity="0.1" />
          <path d="M 638,500 Q 623.6,496.8 618.8,493.6" />
          <path d="M 638,500 Q 652.4,496.8 657.2,493.6" />
        </g>
      
    <path d="M 574,558 L 575,560 L 577,560 L 575.5,561.2 L 576,563 L 574,561.8 L 572,563 L 572.5,561.2 L 571,560 L 573,560 Z" fill="#ef4444" stroke="#ffffff" stroke-width="0.3" />
    <path d="M 550,570 L 551,572 L 553,572 L 551.5,573.2 L 552,575 L 550,573.8 L 548,575 L 548.5,573.2 L 547,572 L 549,572 Z" fill="#ef4444" stroke="#ffffff" stroke-width="0.3" />
    <ellipse cx="718" cy="513" rx="8" ry="4" fill="url(#island-shadow)" opacity="0.3" />
        <!-- Trunk -->
        <path d="M 717,512 Q 713.2,500 710,488 L 711,488 Q 714.2,500 719,512 Z" fill="#854d0e" />
        <!-- Leaves -->
        <g stroke="#166534" stroke-width="1.2" fill="none">
          <path d="M 710,488 Q 697.2,491.2 694,497.6" />
          <path d="M 710,488 Q 722.8,491.2 726,497.6" />
          <path d="M 710,488 Q 703.6,478.4 700.4,472" fill="#22c55e" fill-opacity="0.1" />
          <path d="M 710,488 Q 716.4,478.4 719.6,472" fill="#22c55e" fill-opacity="0.1" />
          <path d="M 710,488 Q 695.6,484.8 690.8,481.6" />
          <path d="M 710,488 Q 724.4,484.8 729.2,481.6" />
        </g>
      
    <path d="M 694,522 L 695,524 L 697,524 L 695.5,525.2 L 696,527 L 694,525.8 L 692,527 L 692.5,525.2 L 691,524 L 693,524 Z" fill="#ef4444" stroke="#ffffff" stroke-width="0.3" />
    <path d="M 670,534 L 671,536 L 673,536 L 671.5,537.2 L 672,539 L 670,537.8 L 668,539 L 668.5,537.2 L 667,536 L 669,536 Z" fill="#ef4444" stroke="#ffffff" stroke-width="0.3" />
    
          <path d="M 667.6,556.4 C 670.6,554.4 673.6,554.4 676.6,556.4 M 670,562.4 C 673,560.4 676,560.4 679,562.4" 
                stroke="#ffffff" stroke-width="1.0" fill="none" opacity="0.4" />
        
    <path d="M 598,594 L 599,596 L 601,596 L 599.5,597.2 L 600,599 L 598,597.8 L 596,599 L 596.5,597.2 L 595,596 L 597,596 Z" fill="#ef4444" stroke="#ffffff" stroke-width="0.3" />
    <ellipse cx="742" cy="549" rx="8" ry="4" fill="url(#island-shadow)" opacity="0.3" />
        <!-- Trunk -->
        <path d="M 741,548 Q 737.2,536 734,524 L 735,524 Q 738.2,536 743,548 Z" fill="#854d0e" />
        <!-- Leaves -->
        <g stroke="#166534" stroke-width="1.2" fill="none">
          <path d="M 734,524 Q 721.2,527.2 718,533.6" />
          <path d="M 734,524 Q 746.8,527.2 750,533.6" />
          <path d="M 734,524 Q 727.6,514.4 724.4,508" fill="#22c55e" fill-opacity="0.1" />
          <path d="M 734,524 Q 740.4,514.4 743.6,508" fill="#22c55e" fill-opacity="0.1" />
          <path d="M 734,524 Q 719.6,520.8 714.8,517.6" />
          <path d="M 734,524 Q 748.4,520.8 753.2,517.6" />
        </g>
      
    
          <path d="M 715.6,556.4 C 718.6,554.4 721.6,554.4 724.6,556.4 M 718,562.4 C 721,560.4 724,560.4 727,562.4" 
                stroke="#ffffff" stroke-width="1.0" fill="none" opacity="0.4" />
        
    
          <path d="M 763.6,556.4 C 766.6,554.4 769.6,554.4 772.6,556.4 M 766,562.4 C 769,560.4 772,560.4 775,562.4" 
                stroke="#ffffff" stroke-width="1.0" fill="none" opacity="0.4" />
        
    
          <path d="M 643.6,616.4 C 646.6,614.4 649.6,614.4 652.6,616.4 M 646,622.4 C 649,620.4 652,620.4 655,622.4" 
                stroke="#ffffff" stroke-width="1.0" fill="none" opacity="0.4" />
        
    <path d="M 814,558 L 815,560 L 817,560 L 815.5,561.2 L 816,563 L 814,561.8 L 812,563 L 812.5,561.2 L 811,560 L 813,560 Z" fill="#ef4444" stroke="#ffffff" stroke-width="0.3" />
    <path d="M 742,594 L 743,596 L 745,596 L 743.5,597.2 L 744,599 L 742,597.8 L 740,599 L 740.5,597.2 L 739,596 L 741,596 Z" fill="#ef4444" stroke="#ffffff" stroke-width="0.3" />
    <path d="M 838,570 L 839,572 L 841,572 L 839.5,573.2 L 840,575 L 838,573.8 L 836,575 L 836.5,573.2 L 835,572 L 837,572 Z" fill="#ef4444" stroke="#ffffff" stroke-width="0.3" />
    <path d="M 766,606 L 767,608 L 769,608 L 767.5,609.2 L 768,611 L 766,609.8 L 764,611 L 764.5,609.2 L 763,608 L 765,608 Z" fill="#ef4444" stroke="#ffffff" stroke-width="0.3" />
    
          <path d="M 739.6,616.4 C 742.6,614.4 745.6,614.4 748.6,616.4 M 742,622.4 C 745,620.4 748,620.4 751,622.4" 
                stroke="#ffffff" stroke-width="1.0" fill="none" opacity="0.4" />
        
    <ellipse cx="814" cy="610" rx="14" ry="7" fill="url(#island-shadow)" opacity="0.35" />
    <path d="M 810.8,605 L 818,608.6 L 818,599 L 810.8,595.4 Z" fill="#78350f" />
    <path d="M 818,608.6 L 825.2,605 L 825.2,595.4 L 818,599 Z" fill="#451a03" />
    <path d="M 818,591.8 L 825.2,595.4 L 818,599 L 810.8,595.4 Z" fill="#b45309" />
  
        <path d="M 809.84,595.4 L 818,587.4 L 818,599.48 Z" fill="#fef08a" />
        <path d="M 818,599.48 L 818,587.4 L 826.16,595.4 Z" fill="#facc15" />
      
        <!-- Trunk -->
        <path d="M 808,610 Q 804.44,598.6 801.4,587.2 L 802.4,587.2 Q 805.44,598.6 810,610 Z" fill="#854d0e" />
        <!-- Leaves -->
        <g stroke="#166534" stroke-width="1.2" fill="none">
          <path d="M 801.4,587.2 Q 789.24,590.24 786.1999999999999,596.32" />
          <path d="M 801.4,587.2 Q 813.56,590.24 816.6,596.32" />
          <path d="M 801.4,587.2 Q 795.3199999999999,578.08 792.28,572" fill="#22c55e" fill-opacity="0.1" />
          <path d="M 801.4,587.2 Q 807.48,578.08 810.52,572" fill="#22c55e" fill-opacity="0.1" />
          <path d="M 801.4,587.2 Q 787.72,584.1600000000001 783.16,581.12" />
          <path d="M 801.4,587.2 Q 815.0799999999999,584.1600000000001 819.64,581.12" />
        </g>
      
        <!-- Trunk -->
        <path d="M 814,612 Q 811.64,603.6 809.4,595.2 L 810.4,595.2 Q 812.64,603.6 816,612 Z" fill="#854d0e" />
        <!-- Leaves -->
        <g stroke="#166534" stroke-width="1.2" fill="none">
          <path d="M 809.4,595.2 Q 800.4399999999999,597.44 798.1999999999999,601.9200000000001" />
          <path d="M 809.4,595.2 Q 818.36,597.44 820.6,601.9200000000001" />
          <path d="M 809.4,595.2 Q 804.92,588.48 802.68,584" fill="#22c55e" fill-opacity="0.1" />
          <path d="M 809.4,595.2 Q 813.88,588.48 816.12,584" fill="#22c55e" fill-opacity="0.1" />
          <path d="M 809.4,595.2 Q 799.3199999999999,592.96 795.96,590.72" />
          <path d="M 809.4,595.2 Q 819.48,592.96 822.8399999999999,590.72" />
        </g>
      
    
          <path d="M 787.6,616.4 C 790.6,614.4 793.6,614.4 796.6,616.4 M 790,622.4 C 793,620.4 796,620.4 799,622.4" 
                stroke="#ffffff" stroke-width="1.0" fill="none" opacity="0.4" />
        
    
          <path d="M 883.6,616.4 C 886.6,614.4 889.6,614.4 892.6,616.4 M 886,622.4 C 889,620.4 892,620.4 895,622.4" 
                stroke="#ffffff" stroke-width="1.0" fill="none" opacity="0.4" />
        
    <path d="M 814,654 L 815,656 L 817,656 L 815.5,657.2 L 816,659 L 814,657.8 L 812,659 L 812.5,657.2 L 811,656 L 813,656 Z" fill="#ef4444" stroke="#ffffff" stroke-width="0.3" />
    
          <path d="M 931.6,616.4 C 934.6,614.4 937.6,614.4 940.6,616.4 M 934,622.4 C 937,620.4 940,620.4 943,622.4" 
                stroke="#ffffff" stroke-width="1.0" fill="none" opacity="0.4" />
        
    <path d="M 910,630 L 911,632 L 913,632 L 911.5,633.2 L 912,635 L 910,633.8 L 908,635 L 908.5,633.2 L 907,632 L 909,632 Z" fill="#ef4444" stroke="#ffffff" stroke-width="0.3" />
    <ellipse cx="862" cy="657" rx="8" ry="4" fill="url(#island-shadow)" opacity="0.3" />
        <!-- Trunk -->
        <path d="M 861,656 Q 857.2,644 854,632 L 855,632 Q 858.2,644 863,656 Z" fill="#854d0e" />
        <!-- Leaves -->
        <g stroke="#166534" stroke-width="1.2" fill="none">
          <path d="M 854,632 Q 841.2,635.2 838,641.6" />
          <path d="M 854,632 Q 866.8,635.2 870,641.6" />
          <path d="M 854,632 Q 847.6,622.4 844.4,616" fill="#22c55e" fill-opacity="0.1" />
          <path d="M 854,632 Q 860.4,622.4 863.6,616" fill="#22c55e" fill-opacity="0.1" />
          <path d="M 854,632 Q 839.6,628.8 834.8,625.6" />
          <path d="M 854,632 Q 868.4,628.8 873.2,625.6" />
        </g>
      
    <ellipse cx="814" cy="682" rx="14" ry="7" fill="url(#island-shadow)" opacity="0.35" />
    <path d="M 810.8,677 L 818,680.6 L 818,671 L 810.8,667.4 Z" fill="#78350f" />
    <path d="M 818,680.6 L 825.2,677 L 825.2,667.4 L 818,671 Z" fill="#451a03" />
    <path d="M 818,663.8 L 825.2,667.4 L 818,671 L 810.8,667.4 Z" fill="#b45309" />
  
        <path d="M 809.84,667.4 L 818,659.4 L 818,671.48 Z" fill="#fef08a" />
        <path d="M 818,671.48 L 818,659.4 L 826.16,667.4 Z" fill="#facc15" />
      
        <!-- Trunk -->
        <path d="M 808,682 Q 804.44,670.6 801.4,659.2 L 802.4,659.2 Q 805.44,670.6 810,682 Z" fill="#854d0e" />
        <!-- Leaves -->
        <g stroke="#166534" stroke-width="1.2" fill="none">
          <path d="M 801.4,659.2 Q 789.24,662.24 786.1999999999999,668.32" />
          <path d="M 801.4,659.2 Q 813.56,662.24 816.6,668.32" />
          <path d="M 801.4,659.2 Q 795.3199999999999,650.08 792.28,644" fill="#22c55e" fill-opacity="0.1" />
          <path d="M 801.4,659.2 Q 807.48,650.08 810.52,644" fill="#22c55e" fill-opacity="0.1" />
          <path d="M 801.4,659.2 Q 787.72,656.1600000000001 783.16,653.12" />
          <path d="M 801.4,659.2 Q 815.0799999999999,656.1600000000001 819.64,653.12" />
        </g>
      
        <!-- Trunk -->
        <path d="M 814,684 Q 811.64,675.6 809.4,667.2 L 810.4,667.2 Q 812.64,675.6 816,684 Z" fill="#854d0e" />
        <!-- Leaves -->
        <g stroke="#166534" stroke-width="1.2" fill="none">
          <path d="M 809.4,667.2 Q 800.4399999999999,669.44 798.1999999999999,673.9200000000001" />
          <path d="M 809.4,667.2 Q 818.36,669.44 820.6,673.9200000000001" />
          <path d="M 809.4,667.2 Q 804.92,660.48 802.68,656" fill="#22c55e" fill-opacity="0.1" />
          <path d="M 809.4,667.2 Q 813.88,660.48 816.12,656" fill="#22c55e" fill-opacity="0.1" />
          <path d="M 809.4,667.2 Q 799.3199999999999,664.96 795.96,662.72" />
          <path d="M 809.4,667.2 Q 819.48,664.96 822.8399999999999,662.72" />
        </g>
      
    <ellipse cx="958" cy="633" rx="8" ry="4" fill="url(#island-shadow)" opacity="0.3" />
        <!-- Trunk -->
        <path d="M 957,632 Q 953.2,620 950,608 L 951,608 Q 954.2,620 959,632 Z" fill="#854d0e" />
        <!-- Leaves -->
        <g stroke="#166534" stroke-width="1.2" fill="none">
          <path d="M 950,608 Q 937.2,611.2 934,617.6" />
          <path d="M 950,608 Q 962.8,611.2 966,617.6" />
          <path d="M 950,608 Q 943.6,598.4 940.4,592" fill="#22c55e" fill-opacity="0.1" />
          <path d="M 950,608 Q 956.4,598.4 959.6,592" fill="#22c55e" fill-opacity="0.1" />
          <path d="M 950,608 Q 935.6,604.8 930.8,601.6" />
          <path d="M 950,608 Q 964.4,604.8 969.2,601.6" />
        </g>
      
    <ellipse cx="910" cy="657" rx="8" ry="4" fill="url(#island-shadow)" opacity="0.3" />
        <!-- Trunk -->
        <path d="M 909,656 Q 905.2,644 902,632 L 903,632 Q 906.2,644 911,656 Z" fill="#854d0e" />
        <!-- Leaves -->
        <g stroke="#166534" stroke-width="1.2" fill="none">
          <path d="M 902,632 Q 889.2,635.2 886,641.6" />
          <path d="M 902,632 Q 914.8,635.2 918,641.6" />
          <path d="M 902,632 Q 895.6,622.4 892.4,616" fill="#22c55e" fill-opacity="0.1" />
          <path d="M 902,632 Q 908.4,622.4 911.6,616" fill="#22c55e" fill-opacity="0.1" />
          <path d="M 902,632 Q 887.6,628.8 882.8,625.6" />
          <path d="M 902,632 Q 916.4,628.8 921.2,625.6" />
        </g>
      
    <ellipse cx="862" cy="681" rx="8" ry="4" fill="url(#island-shadow)" opacity="0.3" />
        <!-- Trunk -->
        <path d="M 861,680 Q 857.2,668 854,656 L 855,656 Q 858.2,668 863,680 Z" fill="#854d0e" />
        <!-- Leaves -->
        <g stroke="#166534" stroke-width="1.2" fill="none">
          <path d="M 854,656 Q 841.2,659.2 838,665.6" />
          <path d="M 854,656 Q 866.8,659.2 870,665.6" />
          <path d="M 854,656 Q 847.6,646.4 844.4,640" fill="#22c55e" fill-opacity="0.1" />
          <path d="M 854,656 Q 860.4,646.4 863.6,640" fill="#22c55e" fill-opacity="0.1" />
          <path d="M 854,656 Q 839.6,652.8 834.8,649.6" />
          <path d="M 854,656 Q 868.4,652.8 873.2,649.6" />
        </g>
      
    <path d="M 838,690 L 839,692 L 841,692 L 839.5,693.2 L 840,695 L 838,693.8 L 836,695 L 836.5,693.2 L 835,692 L 837,692 Z" fill="#ef4444" stroke="#ffffff" stroke-width="0.3" />
    <ellipse cx="814" cy="705" rx="8" ry="4" fill="url(#island-shadow)" opacity="0.3" />
        <!-- Trunk -->
        <path d="M 813,704 Q 809.2,692 806,680 L 807,680 Q 810.2,692 815,704 Z" fill="#854d0e" />
        <!-- Leaves -->
        <g stroke="#166534" stroke-width="1.2" fill="none">
          <path d="M 806,680 Q 793.2,683.2 790,689.6" />
          <path d="M 806,680 Q 818.8,683.2 822,689.6" />
          <path d="M 806,680 Q 799.6,670.4 796.4,664" fill="#22c55e" fill-opacity="0.1" />
          <path d="M 806,680 Q 812.4,670.4 815.6,664" fill="#22c55e" fill-opacity="0.1" />
          <path d="M 806,680 Q 791.6,676.8 786.8,673.6" />
          <path d="M 806,680 Q 820.4,676.8 825.2,673.6" />
        </g>
      
    
          <path d="M 907.6,676.4 C 910.6,674.4 913.6,674.4 916.6,676.4 M 910,682.4 C 913,680.4 916,680.4 919,682.4" 
                stroke="#ffffff" stroke-width="1.0" fill="none" opacity="0.4" />
        
    <path d="M 862,702 L 863,704 L 865,704 L 863.5,705.2 L 864,707 L 862,705.8 L 860,707 L 860.5,705.2 L 859,704 L 861,704 Z" fill="#ef4444" stroke="#ffffff" stroke-width="0.3" />
    
          <path d="M 955.6,676.4 C 958.6,674.4 961.6,674.4 964.6,676.4 M 958,682.4 C 961,680.4 964,680.4 967,682.4" 
                stroke="#ffffff" stroke-width="1.0" fill="none" opacity="0.4" />
        
    <path d="M 862,726 L 863,728 L 865,728 L 863.5,729.2 L 864,731 L 862,729.8 L 860,731 L 860.5,729.2 L 859,728 L 861,728 Z" fill="#ef4444" stroke="#ffffff" stroke-width="0.3" />
    
          <path d="M 1003.6,676.4 C 1006.6,674.4 1009.6,674.4 1012.6,676.4 M 1006,682.4 C 1009,680.4 1012,680.4 1015,682.4" 
                stroke="#ffffff" stroke-width="1.0" fill="none" opacity="0.4" />
        
    <path d="M 982,690 L 983,692 L 985,692 L 983.5,693.2 L 984,695 L 982,693.8 L 980,695 L 980.5,693.2 L 979,692 L 981,692 Z" fill="#ef4444" stroke="#ffffff" stroke-width="0.3" />
    <path d="M 886,738 L 887,740 L 889,740 L 887.5,741.2 L 888,743 L 886,741.8 L 884,743 L 884.5,741.2 L 883,740 L 885,740 Z" fill="#ef4444" stroke="#ffffff" stroke-width="0.3" />
    <path d="M 1006,702 L 1007,704 L 1009,704 L 1007.5,705.2 L 1008,707 L 1006,705.8 L 1004,707 L 1004.5,705.2 L 1003,704 L 1005,704 Z" fill="#ef4444" stroke="#ffffff" stroke-width="0.3" />
    
          <path d="M 931.6,736.4 C 934.6,734.4 937.6,734.4 940.6,736.4 M 934,742.4 C 937,740.4 940,740.4 943,742.4" 
                stroke="#ffffff" stroke-width="1.0" fill="none" opacity="0.4" />
        
    <path d="M 910,750 L 911,752 L 913,752 L 911.5,753.2 L 912,755 L 910,753.8 L 908,755 L 908.5,753.2 L 907,752 L 909,752 Z" fill="#ef4444" stroke="#ffffff" stroke-width="0.3" />
    <path d="M 1078,690 L 1079,692 L 1081,692 L 1079.5,693.2 L 1080,695 L 1078,693.8 L 1076,695 L 1076.5,693.2 L 1075,692 L 1077,692 Z" fill="#ef4444" stroke="#ffffff" stroke-width="0.3" />
    <path d="M 1006,726 L 1007,728 L 1009,728 L 1007.5,729.2 L 1008,731 L 1006,729.8 L 1004,731 L 1004.5,729.2 L 1003,728 L 1005,728 Z" fill="#ef4444" stroke="#ffffff" stroke-width="0.3" />
    <ellipse cx="958" cy="753" rx="8" ry="4" fill="url(#island-shadow)" opacity="0.3" />
        <!-- Trunk -->
        <path d="M 957,752 Q 953.2,740 950,728 L 951,728 Q 954.2,740 959,752 Z" fill="#854d0e" />
        <!-- Leaves -->
        <g stroke="#166534" stroke-width="1.2" fill="none">
          <path d="M 950,728 Q 937.2,731.2 934,737.6" />
          <path d="M 950,728 Q 962.8,731.2 966,737.6" />
          <path d="M 950,728 Q 943.6,718.4 940.4,712" fill="#22c55e" fill-opacity="0.1" />
          <path d="M 950,728 Q 956.4,718.4 959.6,712" fill="#22c55e" fill-opacity="0.1" />
          <path d="M 950,728 Q 935.6,724.8 930.8,721.6" />
          <path d="M 950,728 Q 964.4,724.8 969.2,721.6" />
        </g>
      
    <ellipse cx="934" cy="766" rx="18" ry="9" fill="url(#island-shadow)" opacity="0.4" />
    <path d="M 924.784,762 L 934,766.608 L 934,749.808 L 924.784,745.2 Z" fill="url(#lighthouse-white)" />
    <path d="M 934,766.608 L 943.216,762 L 943.216,745.2 L 934,749.808 Z" fill="#cbd5e1" />
    <path d="M 934,740.5920000000001 L 943.216,745.2 L 934,749.808 L 924.784,745.2 Z" fill="#ffffff" />
  
    <path d="M 925.936,762 L 934,766.032 L 934,732.432 L 925.936,728.4 Z" fill="url(#lighthouse-red)" />
    <path d="M 934,766.032 L 942.064,762 L 942.064,728.4 L 934,732.432 Z" fill="#b91c1c" />
    <path d="M 934,724.3679999999999 L 942.064,728.4 L 934,732.432 L 925.936,728.4 Z" fill="#ef4444" />
  
    <path d="M 927.088,762 L 934,765.456 L 934,715.056 L 927.088,711.6 Z" fill="url(#lighthouse-white)" />
    <path d="M 934,765.456 L 940.912,762 L 940.912,711.6 L 934,715.056 Z" fill="#cbd5e1" />
    <path d="M 934,708.144 L 940.912,711.6 L 934,715.056 L 927.088,711.6 Z" fill="#ffffff" />
  
    <path d="M 928.24,762 L 934,764.88 L 934,697.68 L 928.24,694.8 Z" fill="url(#lighthouse-red)" />
    <path d="M 934,764.88 L 939.76,762 L 939.76,694.8 L 934,697.68 Z" fill="#b91c1c" />
    <path d="M 934,691.92 L 939.76,694.8 L 934,697.68 L 928.24,694.8 Z" fill="#ef4444" />
  
    <path d="M 926.896,762 L 934,765.552 L 934,695.952 L 926.896,692.4 Z" fill="#0f172a" />
    <path d="M 934,765.552 L 941.104,762 L 941.104,692.4 L 934,695.952 Z" fill="#020617" />
    <path d="M 934,688.848 L 941.104,692.4 L 934,695.952 L 926.896,692.4 Z" fill="#1e293b" />
  
    <path d="M 927.856,762 L 934,765.072 L 934,685.072 L 927.856,682 Z" fill="#fbbf24" />
    <path d="M 934,765.072 L 940.144,762 L 940.144,682 L 934,685.072 Z" fill="#d97706" />
    <path d="M 934,678.928 L 940.144,682 L 934,685.072 L 927.856,682 Z" fill="#fef08a" />
  
    <path d="M 927.376,762 L 934,765.312 L 934,682.112 L 927.376,678.8 Z" fill="#0f172a" />
    <path d="M 934,765.312 L 940.624,762 L 940.624,678.8 L 934,682.112 Z" fill="#020617" />
    <path d="M 934,675.4879999999999 L 940.624,678.8 L 934,682.112 L 927.376,678.8 Z" fill="#1e293b" />
  
      <polygon points="934,688.4 1044,568.4 1104,568.4" 
               fill="url(#beam-light)" opacity="0.5" />
      <circle cx="934" cy="688.4" r="3" fill="#ffffff" filter="url(#neon-glow)" />
    
        <!-- Trunk -->
        <path d="M 925,767 Q 920.72,753.8 917.2,740.6 L 918.2,740.6 Q 921.72,753.8 927,767 Z" fill="#854d0e" />
        <!-- Leaves -->
        <g stroke="#166534" stroke-width="1.2" fill="none">
          <path d="M 917.2,740.6 Q 903.12,744.12 899.6,751.1600000000001" />
          <path d="M 917.2,740.6 Q 931.2800000000001,744.12 934.8000000000001,751.1600000000001" />
          <path d="M 917.2,740.6 Q 910.1600000000001,730.04 906.6400000000001,723" fill="#22c55e" fill-opacity="0.1" />
          <path d="M 917.2,740.6 Q 924.24,730.04 927.76,723" fill="#22c55e" fill-opacity="0.1" />
          <path d="M 917.2,740.6 Q 901.36,737.08 896.08,733.5600000000001" />
          <path d="M 917.2,740.6 Q 933.0400000000001,737.08 938.32,733.5600000000001" />
        </g>
      
    <path d="M 937.12,767 L 940,768.44 L 940,765.44 L 937.12,764 Z" fill="#ca8a04" />
    <path d="M 940,768.44 L 942.88,767 L 942.88,764 L 940,765.44 Z" fill="#451a03" />
    <path d="M 940,762.56 L 942.88,764 L 940,765.44 L 937.12,764 Z" fill="#78350f" />
  
    <path d="M 1102,702 L 1103,704 L 1105,704 L 1103.5,705.2 L 1104,707 L 1102,705.8 L 1100,707 L 1100.5,705.2 L 1099,704 L 1101,704 Z" fill="#ef4444" stroke="#ffffff" stroke-width="0.3" />
    
          <path d="M 1027.6,736.4 C 1030.6,734.4 1033.6,734.4 1036.6,736.4 M 1030,742.4 C 1033,740.4 1036,740.4 1039,742.4" 
                stroke="#ffffff" stroke-width="1.0" fill="none" opacity="0.4" />
        
    <path d="M 1126,714 L 1127,716 L 1129,716 L 1127.5,717.2 L 1128,719 L 1126,717.8 L 1124,719 L 1124.5,717.2 L 1123,716 L 1125,716 Z" fill="#ef4444" stroke="#ffffff" stroke-width="0.3" />
    
          <path d="M 1123.6,736.4 C 1126.6,734.4 1129.6,734.4 1132.6,736.4 M 1126,742.4 C 1129,740.4 1132,740.4 1135,742.4" 
                stroke="#ffffff" stroke-width="1.0" fill="none" opacity="0.4" />
        
    
          <path d="M 1003.6,796.4 C 1006.6,794.4 1009.6,794.4 1012.6,796.4 M 1006,802.4 C 1009,800.4 1012,800.4 1015,802.4" 
                stroke="#ffffff" stroke-width="1.0" fill="none" opacity="0.4" />
        
    
          <path d="M 1171.6,736.4 C 1174.6,734.4 1177.6,734.4 1180.6,736.4 M 1174,742.4 C 1177,740.4 1180,740.4 1183,742.4" 
                stroke="#ffffff" stroke-width="1.0" fill="none" opacity="0.4" />
        
    
          <path d="M 1051.6,796.4 C 1054.6,794.4 1057.6,794.4 1060.6,796.4 M 1054,802.4 C 1057,800.4 1060,800.4 1063,802.4" 
                stroke="#ffffff" stroke-width="1.0" fill="none" opacity="0.4" />
        
    
          <path d="M 1099.6,796.4 C 1102.6,794.4 1105.6,794.4 1108.6,796.4 M 1102,802.4 C 1105,800.4 1108,800.4 1111,802.4" 
                stroke="#ffffff" stroke-width="1.0" fill="none" opacity="0.4" />
        
    <path d="M 1102,822 L 1103,824 L 1105,824 L 1103.5,825.2 L 1104,827 L 1102,825.8 L 1100,827 L 1100.5,825.2 L 1099,824 L 1101,824 Z" fill="#ef4444" stroke="#ffffff" stroke-width="0.3" />
    <path d="M 1222,786 L 1223,788 L 1225,788 L 1223.5,789.2 L 1224,791 L 1222,789.8 L 1220,791 L 1220.5,789.2 L 1219,788 L 1221,788 Z" fill="#ef4444" stroke="#ffffff" stroke-width="0.3" />
    <path d="M 1198,798 L 1199,800 L 1201,800 L 1199.5,801.2 L 1200,803 L 1198,801.8 L 1196,803 L 1196.5,801.2 L 1195,800 L 1197,800 Z" fill="#ef4444" stroke="#ffffff" stroke-width="0.3" />
    
          <path d="M 1243.6,796.4 C 1246.6,794.4 1249.6,794.4 1252.6,796.4 M 1246,802.4 C 1249,800.4 1252,800.4 1255,802.4" 
                stroke="#ffffff" stroke-width="1.0" fill="none" opacity="0.4" />
        
    <path d="M 1222,810 L 1223,812 L 1225,812 L 1223.5,813.2 L 1224,815 L 1222,813.8 L 1220,815 L 1220.5,813.2 L 1219,812 L 1221,812 Z" fill="#ef4444" stroke="#ffffff" stroke-width="0.3" />
    <path d="M 1150,846 L 1151,848 L 1153,848 L 1151.5,849.2 L 1152,851 L 1150,849.8 L 1148,851 L 1148.5,849.2 L 1147,848 L 1149,848 Z" fill="#ef4444" stroke="#ffffff" stroke-width="0.3" />
    <path d="M 1126,858 L 1127,860 L 1129,860 L 1127.5,861.2 L 1128,863 L 1126,861.8 L 1124,863 L 1124.5,861.2 L 1123,860 L 1125,860 Z" fill="#ef4444" stroke="#ffffff" stroke-width="0.3" />
    <path d="M 1246,822 L 1247,824 L 1249,824 L 1247.5,825.2 L 1248,827 L 1246,825.8 L 1244,827 L 1244.5,825.2 L 1243,824 L 1245,824 Z" fill="#ef4444" stroke="#ffffff" stroke-width="0.3" />
    <path d="M 1222,834 L 1223,836 L 1225,836 L 1223.5,837.2 L 1224,839 L 1222,837.8 L 1220,839 L 1220.5,837.2 L 1219,836 L 1221,836 Z" fill="#ef4444" stroke="#ffffff" stroke-width="0.3" />
    <ellipse cx="1270" cy="838" rx="18" ry="9" fill="url(#island-shadow)" opacity="0.4" />
    <path d="M 1260.784,834 L 1270,838.608 L 1270,821.808 L 1260.784,817.2 Z" fill="url(#lighthouse-white)" />
    <path d="M 1270,838.608 L 1279.216,834 L 1279.216,817.2 L 1270,821.808 Z" fill="#cbd5e1" />
    <path d="M 1270,812.5920000000001 L 1279.216,817.2 L 1270,821.808 L 1260.784,817.2 Z" fill="#ffffff" />
  
    <path d="M 1261.936,834 L 1270,838.032 L 1270,804.432 L 1261.936,800.4 Z" fill="url(#lighthouse-red)" />
    <path d="M 1270,838.032 L 1278.064,834 L 1278.064,800.4 L 1270,804.432 Z" fill="#b91c1c" />
    <path d="M 1270,796.3679999999999 L 1278.064,800.4 L 1270,804.432 L 1261.936,800.4 Z" fill="#ef4444" />
  
    <path d="M 1263.088,834 L 1270,837.456 L 1270,787.056 L 1263.088,783.6 Z" fill="url(#lighthouse-white)" />
    <path d="M 1270,837.456 L 1276.912,834 L 1276.912,783.6 L 1270,787.056 Z" fill="#cbd5e1" />
    <path d="M 1270,780.144 L 1276.912,783.6 L 1270,787.056 L 1263.088,783.6 Z" fill="#ffffff" />
  
    <path d="M 1264.24,834 L 1270,836.88 L 1270,769.68 L 1264.24,766.8 Z" fill="url(#lighthouse-red)" />
    <path d="M 1270,836.88 L 1275.76,834 L 1275.76,766.8 L 1270,769.68 Z" fill="#b91c1c" />
    <path d="M 1270,763.92 L 1275.76,766.8 L 1270,769.68 L 1264.24,766.8 Z" fill="#ef4444" />
  
    <path d="M 1262.896,834 L 1270,837.552 L 1270,767.952 L 1262.896,764.4 Z" fill="#0f172a" />
    <path d="M 1270,837.552 L 1277.104,834 L 1277.104,764.4 L 1270,767.952 Z" fill="#020617" />
    <path d="M 1270,760.848 L 1277.104,764.4 L 1270,767.952 L 1262.896,764.4 Z" fill="#1e293b" />
  
    <path d="M 1263.856,834 L 1270,837.072 L 1270,757.072 L 1263.856,754 Z" fill="#fbbf24" />
    <path d="M 1270,837.072 L 1276.144,834 L 1276.144,754 L 1270,757.072 Z" fill="#d97706" />
    <path d="M 1270,750.928 L 1276.144,754 L 1270,757.072 L 1263.856,754 Z" fill="#fef08a" />
  
    <path d="M 1263.376,834 L 1270,837.312 L 1270,754.112 L 1263.376,750.8 Z" fill="#0f172a" />
    <path d="M 1270,837.312 L 1276.624,834 L 1276.624,750.8 L 1270,754.112 Z" fill="#020617" />
    <path d="M 1270,747.4879999999999 L 1276.624,750.8 L 1270,754.112 L 1263.376,750.8 Z" fill="#1e293b" />
  
      <polygon points="1270,760.4 1380,640.4 1440,640.4" 
               fill="url(#beam-light)" opacity="0.5" />
      <circle cx="1270" cy="760.4" r="3" fill="#ffffff" filter="url(#neon-glow)" />
    
        <!-- Trunk -->
        <path d="M 1261,839 Q 1256.72,825.8 1253.2,812.6 L 1254.2,812.6 Q 1257.72,825.8 1263,839 Z" fill="#854d0e" />
        <!-- Leaves -->
        <g stroke="#166534" stroke-width="1.2" fill="none">
          <path d="M 1253.2,812.6 Q 1239.1200000000001,816.12 1235.6000000000001,823.1600000000001" />
          <path d="M 1253.2,812.6 Q 1267.28,816.12 1270.8,823.1600000000001" />
          <path d="M 1253.2,812.6 Q 1246.16,802.04 1242.64,795" fill="#22c55e" fill-opacity="0.1" />
          <path d="M 1253.2,812.6 Q 1260.24,802.04 1263.76,795" fill="#22c55e" fill-opacity="0.1" />
          <path d="M 1253.2,812.6 Q 1237.3600000000001,809.08 1232.08,805.5600000000001" />
          <path d="M 1253.2,812.6 Q 1269.04,809.08 1274.3200000000002,805.5600000000001" />
        </g>
      
    <path d="M 1273.12,839 L 1276,840.44 L 1276,837.44 L 1273.12,836 Z" fill="#ca8a04" />
    <path d="M 1276,840.44 L 1278.88,839 L 1278.88,836 L 1276,837.44 Z" fill="#451a03" />
    <path d="M 1276,834.56 L 1278.88,836 L 1276,837.44 L 1273.12,836 Z" fill="#78350f" />
  
    <ellipse cx="1246" cy="850" rx="18" ry="9" fill="url(#island-shadow)" opacity="0.4" />
    <path d="M 1236.784,846 L 1246,850.608 L 1246,833.808 L 1236.784,829.2 Z" fill="url(#lighthouse-white)" />
    <path d="M 1246,850.608 L 1255.216,846 L 1255.216,829.2 L 1246,833.808 Z" fill="#cbd5e1" />
    <path d="M 1246,824.5920000000001 L 1255.216,829.2 L 1246,833.808 L 1236.784,829.2 Z" fill="#ffffff" />
  
    <path d="M 1237.936,846 L 1246,850.032 L 1246,816.432 L 1237.936,812.4 Z" fill="url(#lighthouse-red)" />
    <path d="M 1246,850.032 L 1254.064,846 L 1254.064,812.4 L 1246,816.432 Z" fill="#b91c1c" />
    <path d="M 1246,808.3679999999999 L 1254.064,812.4 L 1246,816.432 L 1237.936,812.4 Z" fill="#ef4444" />
  
    <path d="M 1239.088,846 L 1246,849.456 L 1246,799.056 L 1239.088,795.6 Z" fill="url(#lighthouse-white)" />
    <path d="M 1246,849.456 L 1252.912,846 L 1252.912,795.6 L 1246,799.056 Z" fill="#cbd5e1" />
    <path d="M 1246,792.144 L 1252.912,795.6 L 1246,799.056 L 1239.088,795.6 Z" fill="#ffffff" />
  
    <path d="M 1240.24,846 L 1246,848.88 L 1246,781.68 L 1240.24,778.8 Z" fill="url(#lighthouse-red)" />
    <path d="M 1246,848.88 L 1251.76,846 L 1251.76,778.8 L 1246,781.68 Z" fill="#b91c1c" />
    <path d="M 1246,775.92 L 1251.76,778.8 L 1246,781.68 L 1240.24,778.8 Z" fill="#ef4444" />
  
    <path d="M 1238.896,846 L 1246,849.552 L 1246,779.952 L 1238.896,776.4 Z" fill="#0f172a" />
    <path d="M 1246,849.552 L 1253.104,846 L 1253.104,776.4 L 1246,779.952 Z" fill="#020617" />
    <path d="M 1246,772.848 L 1253.104,776.4 L 1246,779.952 L 1238.896,776.4 Z" fill="#1e293b" />
  
    <path d="M 1239.856,846 L 1246,849.072 L 1246,769.072 L 1239.856,766 Z" fill="#fbbf24" />
    <path d="M 1246,849.072 L 1252.144,846 L 1252.144,766 L 1246,769.072 Z" fill="#d97706" />
    <path d="M 1246,762.928 L 1252.144,766 L 1246,769.072 L 1239.856,766 Z" fill="#fef08a" />
  
    <path d="M 1239.376,846 L 1246,849.312 L 1246,766.112 L 1239.376,762.8 Z" fill="#0f172a" />
    <path d="M 1246,849.312 L 1252.624,846 L 1252.624,762.8 L 1246,766.112 Z" fill="#020617" />
    <path d="M 1246,759.4879999999999 L 1252.624,762.8 L 1246,766.112 L 1239.376,762.8 Z" fill="#1e293b" />
  
      <polygon points="1246,772.4 1356,652.4 1416,652.4" 
               fill="url(#beam-light)" opacity="0.5" />
      <circle cx="1246" cy="772.4" r="3" fill="#ffffff" filter="url(#neon-glow)" />
    
        <!-- Trunk -->
        <path d="M 1237,851 Q 1232.72,837.8 1229.2,824.6 L 1230.2,824.6 Q 1233.72,837.8 1239,851 Z" fill="#854d0e" />
        <!-- Leaves -->
        <g stroke="#166534" stroke-width="1.2" fill="none">
          <path d="M 1229.2,824.6 Q 1215.1200000000001,828.12 1211.6000000000001,835.1600000000001" />
          <path d="M 1229.2,824.6 Q 1243.28,828.12 1246.8,835.1600000000001" />
          <path d="M 1229.2,824.6 Q 1222.16,814.04 1218.64,807" fill="#22c55e" fill-opacity="0.1" />
          <path d="M 1229.2,824.6 Q 1236.24,814.04 1239.76,807" fill="#22c55e" fill-opacity="0.1" />
          <path d="M 1229.2,824.6 Q 1213.3600000000001,821.08 1208.08,817.5600000000001" />
          <path d="M 1229.2,824.6 Q 1245.04,821.08 1250.3200000000002,817.5600000000001" />
        </g>
      
    <path d="M 1249.12,851 L 1252,852.44 L 1252,849.44 L 1249.12,848 Z" fill="#ca8a04" />
    <path d="M 1252,852.44 L 1254.88,851 L 1254.88,848 L 1252,849.44 Z" fill="#451a03" />
    <path d="M 1252,846.56 L 1254.88,848 L 1252,849.44 L 1249.12,848 Z" fill="#78350f" />
  
    
          <path d="M 1219.6,856.4 C 1222.6,854.4 1225.6,854.4 1228.6,856.4 M 1222,862.4 C 1225,860.4 1228,860.4 1231,862.4" 
                stroke="#ffffff" stroke-width="1.0" fill="none" opacity="0.4" />
        
    <path d="M 1174,882 L 1175,884 L 1177,884 L 1175.5,885.2 L 1176,887 L 1174,885.8 L 1172,887 L 1172.5,885.2 L 1171,884 L 1173,884 Z" fill="#ef4444" stroke="#ffffff" stroke-width="0.3" />
    <path d="M 1270,858 L 1271,860 L 1273,860 L 1271.5,861.2 L 1272,863 L 1270,861.8 L 1268,863 L 1268.5,861.2 L 1267,860 L 1269,860 Z" fill="#ef4444" stroke="#ffffff" stroke-width="0.3" />
    <path d="M 1198,894 L 1199,896 L 1201,896 L 1199.5,897.2 L 1200,899 L 1198,897.8 L 1196,899 L 1196.5,897.2 L 1195,896 L 1197,896 Z" fill="#ef4444" stroke="#ffffff" stroke-width="0.3" />
    <ellipse cx="1366" cy="837" rx="8" ry="4" fill="url(#island-shadow)" opacity="0.3" />
        <!-- Trunk -->
        <path d="M 1365,836 Q 1361.2,824 1358,812 L 1359,812 Q 1362.2,824 1367,836 Z" fill="#854d0e" />
        <!-- Leaves -->
        <g stroke="#166534" stroke-width="1.2" fill="none">
          <path d="M 1358,812 Q 1345.2,815.2 1342,821.6" />
          <path d="M 1358,812 Q 1370.8,815.2 1374,821.6" />
          <path d="M 1358,812 Q 1351.6,802.4 1348.4,796" fill="#22c55e" fill-opacity="0.1" />
          <path d="M 1358,812 Q 1364.4,802.4 1367.6,796" fill="#22c55e" fill-opacity="0.1" />
          <path d="M 1358,812 Q 1343.6,808.8 1338.8,805.6" />
          <path d="M 1358,812 Q 1372.4,808.8 1377.2,805.6" />
        </g>
      
    <ellipse cx="1294" cy="873" rx="8" ry="4" fill="url(#island-shadow)" opacity="0.3" />
        <!-- Trunk -->
        <path d="M 1293,872 Q 1289.2,860 1286,848 L 1287,848 Q 1290.2,860 1295,872 Z" fill="#854d0e" />
        <!-- Leaves -->
        <g stroke="#166534" stroke-width="1.2" fill="none">
          <path d="M 1286,848 Q 1273.2,851.2 1270,857.6" />
          <path d="M 1286,848 Q 1298.8,851.2 1302,857.6" />
          <path d="M 1286,848 Q 1279.6,838.4 1276.4,832" fill="#22c55e" fill-opacity="0.1" />
          <path d="M 1286,848 Q 1292.4,838.4 1295.6,832" fill="#22c55e" fill-opacity="0.1" />
          <path d="M 1286,848 Q 1271.6,844.8 1266.8,841.6" />
          <path d="M 1286,848 Q 1300.4,844.8 1305.2,841.6" />
        </g>
      
    <path d="M 1270,882 L 1271,884 L 1273,884 L 1271.5,885.2 L 1272,887 L 1270,885.8 L 1268,887 L 1268.5,885.2 L 1267,884 L 1269,884 Z" fill="#ef4444" stroke="#ffffff" stroke-width="0.3" />
    <ellipse cx="1222" cy="909" rx="8" ry="4" fill="url(#island-shadow)" opacity="0.3" />
        <!-- Trunk -->
        <path d="M 1221,908 Q 1217.2,896 1214,884 L 1215,884 Q 1218.2,896 1223,908 Z" fill="#854d0e" />
        <!-- Leaves -->
        <g stroke="#166534" stroke-width="1.2" fill="none">
          <path d="M 1214,884 Q 1201.2,887.2 1198,893.6" />
          <path d="M 1214,884 Q 1226.8,887.2 1230,893.6" />
          <path d="M 1214,884 Q 1207.6,874.4 1204.4,868" fill="#22c55e" fill-opacity="0.1" />
          <path d="M 1214,884 Q 1220.4,874.4 1223.6,868" fill="#22c55e" fill-opacity="0.1" />
          <path d="M 1214,884 Q 1199.6,880.8 1194.8,877.6" />
          <path d="M 1214,884 Q 1228.4,880.8 1233.2,877.6" />
        </g>
      
    <path d="M 1390,846 L 1391,848 L 1393,848 L 1391.5,849.2 L 1392,851 L 1390,849.8 L 1388,851 L 1388.5,849.2 L 1387,848 L 1389,848 Z" fill="#ef4444" stroke="#ffffff" stroke-width="0.3" />
    <path d="M 1294,894 L 1295,896 L 1297,896 L 1295.5,897.2 L 1296,899 L 1294,897.8 L 1292,899 L 1292.5,897.2 L 1291,896 L 1293,896 Z" fill="#ef4444" stroke="#ffffff" stroke-width="0.3" />
    
          <path d="M 1243.6,916.4 C 1246.6,914.4 1249.6,914.4 1252.6,916.4 M 1246,922.4 C 1249,920.4 1252,920.4 1255,922.4" 
                stroke="#ffffff" stroke-width="1.0" fill="none" opacity="0.4" />
        
    <path d="M 1390,870 L 1391,872 L 1393,872 L 1391.5,873.2 L 1392,875 L 1390,873.8 L 1388,875 L 1388.5,873.2 L 1387,872 L 1389,872 Z" fill="#ef4444" stroke="#ffffff" stroke-width="0.3" />
    <path d="M 1318,906 L 1319,908 L 1321,908 L 1319.5,909.2 L 1320,911 L 1318,909.8 L 1316,911 L 1316.5,909.2 L 1315,908 L 1317,908 Z" fill="#ef4444" stroke="#ffffff" stroke-width="0.3" />
    <path d="M 1438,870 L 1439,872 L 1441,872 L 1439.5,873.2 L 1440,875 L 1438,873.8 L 1436,875 L 1436.5,873.2 L 1435,872 L 1437,872 Z" fill="#ef4444" stroke="#ffffff" stroke-width="0.3" />
    <path d="M 1414,882 L 1415,884 L 1417,884 L 1415.5,885.2 L 1416,887 L 1414,885.8 L 1412,887 L 1412.5,885.2 L 1411,884 L 1413,884 Z" fill="#ef4444" stroke="#ffffff" stroke-width="0.3" />
    <path d="M 1342,918 L 1343,920 L 1345,920 L 1343.5,921.2 L 1344,923 L 1342,921.8 L 1340,923 L 1340.5,921.2 L 1339,920 L 1341,920 Z" fill="#ef4444" stroke="#ffffff" stroke-width="0.3" />
    <path d="M 1318,930 L 1319,932 L 1321,932 L 1319.5,933.2 L 1320,935 L 1318,933.8 L 1316,935 L 1316.5,933.2 L 1315,932 L 1317,932 Z" fill="#ef4444" stroke="#ffffff" stroke-width="0.3" />
    <path d="M 1438,894 L 1439,896 L 1441,896 L 1439.5,897.2 L 1440,899 L 1438,897.8 L 1436,899 L 1436.5,897.2 L 1435,896 L 1437,896 Z" fill="#ef4444" stroke="#ffffff" stroke-width="0.3" />
    
          <path d="M 1387.6,916.4 C 1390.6,914.4 1393.6,914.4 1396.6,916.4 M 1390,922.4 C 1393,920.4 1396,920.4 1399,922.4" 
                stroke="#ffffff" stroke-width="1.0" fill="none" opacity="0.4" />
        
  </g>

  <!-- Legend (Activity Level) -->
  <g transform="translate(1220, 1005)">
    <text x="0" y="8" class="legend-text" text-anchor="end">Less</text>
    
    <g transform="translate(10, 0)">
      <use href="#tile-0" x="10" y="0" />
    </g>
    
    <g transform="translate(45, 0)">
      <use href="#tile-1" x="10" y="0" />
      
    </g>
    
    <g transform="translate(80, 0)">
      <use href="#tile-2" x="10" y="0" />
      <ellipse cx="10" cy="1" rx="8" ry="4" fill="url(#island-shadow)" opacity="0.3" />
        <!-- Trunk -->
        <path d="M 9,0 Q 6.16,-9.6 3.5999999999999996,-19.2 L 4.6,-19.2 Q 7.16,-9.6 11,0 Z" fill="#854d0e" />
        <!-- Leaves -->
        <g stroke="#166534" stroke-width="1.2" fill="none">
          <path d="M 3.5999999999999996,-19.2 Q -6.640000000000001,-16.64 -9.200000000000001,-11.52" />
          <path d="M 3.5999999999999996,-19.2 Q 13.84,-16.64 16.4,-11.52" />
          <path d="M 3.5999999999999996,-19.2 Q -1.5200000000000005,-26.88 -4.08,-32" fill="#22c55e" fill-opacity="0.1" />
          <path d="M 3.5999999999999996,-19.2 Q 8.719999999999999,-26.88 11.28,-32" fill="#22c55e" fill-opacity="0.1" />
          <path d="M 3.5999999999999996,-19.2 Q -7.92,-21.759999999999998 -11.76,-24.32" />
          <path d="M 3.5999999999999996,-19.2 Q 15.12,-21.759999999999998 18.96,-24.32" />
        </g>
      
    </g>
    
    <g transform="translate(115, 0)">
      <use href="#tile-3" x="10" y="0" />
      <ellipse cx="10" cy="2" rx="14" ry="7" fill="url(#island-shadow)" opacity="0.35" />
    <path d="M 6.800000000000001,-3 L 14,0.5999999999999996 L 14,-9.000000000000002 L 6.800000000000001,-12.600000000000001 Z" fill="#78350f" />
    <path d="M 14,0.5999999999999996 L 21.2,-3 L 21.2,-12.600000000000001 L 14,-9.000000000000002 Z" fill="#451a03" />
    <path d="M 14,-16.200000000000003 L 21.2,-12.600000000000001 L 14,-9.000000000000002 L 6.800000000000001,-12.600000000000001 Z" fill="#b45309" />
  
        <path d="M 5.84,-12.600000000000001 L 14,-20.6 L 14,-8.520000000000001 Z" fill="#fef08a" />
        <path d="M 14,-8.520000000000001 L 14,-20.6 L 22.16,-12.600000000000001 Z" fill="#facc15" />
      
        <!-- Trunk -->
        <path d="M 4,2 Q 0.4399999999999995,-9.4 -2.5999999999999996,-20.8 L -1.5999999999999996,-20.8 Q 1.4399999999999995,-9.4 6,2 Z" fill="#854d0e" />
        <!-- Leaves -->
        <g stroke="#166534" stroke-width="1.2" fill="none">
          <path d="M -2.5999999999999996,-20.8 Q -14.76,-17.76 -17.799999999999997,-11.68" />
          <path d="M -2.5999999999999996,-20.8 Q 9.56,-17.76 12.6,-11.68" />
          <path d="M -2.5999999999999996,-20.8 Q -8.68,-29.92 -11.72,-36" fill="#22c55e" fill-opacity="0.1" />
          <path d="M -2.5999999999999996,-20.8 Q 3.4800000000000004,-29.92 6.520000000000001,-36" fill="#22c55e" fill-opacity="0.1" />
          <path d="M -2.5999999999999996,-20.8 Q -16.28,-23.84 -20.840000000000003,-26.880000000000003" />
          <path d="M -2.5999999999999996,-20.8 Q 11.08,-23.84 15.640000000000002,-26.880000000000003" />
        </g>
      
        <!-- Trunk -->
        <path d="M 10,4 Q 7.640000000000001,-4.399999999999999 5.4,-12.799999999999997 L 6.4,-12.799999999999997 Q 8.64,-4.399999999999999 12,4 Z" fill="#854d0e" />
        <!-- Leaves -->
        <g stroke="#166534" stroke-width="1.2" fill="none">
          <path d="M 5.4,-12.799999999999997 Q -3.5599999999999987,-10.559999999999997 -5.799999999999999,-6.079999999999998" />
          <path d="M 5.4,-12.799999999999997 Q 14.36,-10.559999999999997 16.6,-6.079999999999998" />
          <path d="M 5.4,-12.799999999999997 Q 0.9200000000000008,-19.519999999999996 -1.3199999999999985,-23.999999999999996" fill="#22c55e" fill-opacity="0.1" />
          <path d="M 5.4,-12.799999999999997 Q 9.879999999999999,-19.519999999999996 12.12,-23.999999999999996" fill="#22c55e" fill-opacity="0.1" />
          <path d="M 5.4,-12.799999999999997 Q -4.679999999999998,-15.039999999999997 -8.039999999999997,-17.279999999999998" />
          <path d="M 5.4,-12.799999999999997 Q 15.479999999999999,-15.039999999999997 18.839999999999996,-17.279999999999998" />
        </g>
      
    </g>
    
    <g transform="translate(150, 0)">
      <use href="#tile-4" x="10" y="0" />
      <ellipse cx="10" cy="2" rx="18" ry="9" fill="url(#island-shadow)" opacity="0.4" />
    <path d="M 0.7839999999999989,-2 L 10,2.6080000000000005 L 10,-14.192 L 0.7839999999999989,-18.8 Z" fill="url(#lighthouse-white)" />
    <path d="M 10,2.6080000000000005 L 19.216,-2 L 19.216,-18.8 L 10,-14.192 Z" fill="#cbd5e1" />
    <path d="M 10,-23.408 L 19.216,-18.8 L 10,-14.192 L 0.7839999999999989,-18.8 Z" fill="#ffffff" />
  
    <path d="M 1.936,-2 L 10,2.032 L 10,-31.568 L 1.936,-35.6 Z" fill="url(#lighthouse-red)" />
    <path d="M 10,2.032 L 18.064,-2 L 18.064,-35.6 L 10,-31.568 Z" fill="#b91c1c" />
    <path d="M 10,-39.632000000000005 L 18.064,-35.6 L 10,-31.568 L 1.936,-35.6 Z" fill="#ef4444" />
  
    <path d="M 3.088000000000001,-2 L 10,1.4559999999999995 L 10,-48.944 L 3.088000000000001,-52.400000000000006 Z" fill="url(#lighthouse-white)" />
    <path d="M 10,1.4559999999999995 L 16.912,-2 L 16.912,-52.400000000000006 L 10,-48.944 Z" fill="#cbd5e1" />
    <path d="M 10,-55.85600000000001 L 16.912,-52.400000000000006 L 10,-48.944 L 3.088000000000001,-52.400000000000006 Z" fill="#ffffff" />
  
    <path d="M 4.24,-2 L 10,0.8799999999999999 L 10,-66.32000000000001 L 4.24,-69.2 Z" fill="url(#lighthouse-red)" />
    <path d="M 10,0.8799999999999999 L 15.76,-2 L 15.76,-69.2 L 10,-66.32000000000001 Z" fill="#b91c1c" />
    <path d="M 10,-72.08 L 15.76,-69.2 L 10,-66.32000000000001 L 4.24,-69.2 Z" fill="#ef4444" />
  
    <path d="M 2.896000000000001,-2 L 10,1.5519999999999996 L 10,-68.048 L 2.896000000000001,-71.60000000000001 Z" fill="#0f172a" />
    <path d="M 10,1.5519999999999996 L 17.104,-2 L 17.104,-71.60000000000001 L 10,-68.048 Z" fill="#020617" />
    <path d="M 10,-75.15200000000002 L 17.104,-71.60000000000001 L 10,-68.048 L 2.896000000000001,-71.60000000000001 Z" fill="#1e293b" />
  
    <path d="M 3.856,-2 L 10,1.072 L 10,-78.928 L 3.856,-82 Z" fill="#fbbf24" />
    <path d="M 10,1.072 L 16.144,-2 L 16.144,-82 L 10,-78.928 Z" fill="#d97706" />
    <path d="M 10,-85.072 L 16.144,-82 L 10,-78.928 L 3.856,-82 Z" fill="#fef08a" />
  
    <path d="M 3.3759999999999994,-2 L 10,1.3120000000000003 L 10,-81.888 L 3.3759999999999994,-85.2 Z" fill="#0f172a" />
    <path d="M 10,1.3120000000000003 L 16.624000000000002,-2 L 16.624000000000002,-85.2 L 10,-81.888 Z" fill="#020617" />
    <path d="M 10,-88.512 L 16.624000000000002,-85.2 L 10,-81.888 L 3.3759999999999994,-85.2 Z" fill="#1e293b" />
  
      <polygon points="10,-75.60000000000001 120,-195.60000000000002 180,-195.60000000000002" 
               fill="url(#beam-light)" opacity="0.5" />
      <circle cx="10" cy="-75.60000000000001" r="3" fill="#ffffff" filter="url(#neon-glow)" />
    
        <!-- Trunk -->
        <path d="M 1,3 Q -3.280000000000001,-10.200000000000001 -6.800000000000001,-23.400000000000002 L -5.800000000000001,-23.400000000000002 Q -2.280000000000001,-10.200000000000001 3,3 Z" fill="#854d0e" />
        <!-- Leaves -->
        <g stroke="#166534" stroke-width="1.2" fill="none">
          <path d="M -6.800000000000001,-23.400000000000002 Q -20.880000000000003,-19.880000000000003 -24.400000000000002,-12.84" />
          <path d="M -6.800000000000001,-23.400000000000002 Q 7.280000000000001,-19.880000000000003 10.8,-12.84" />
          <path d="M -6.800000000000001,-23.400000000000002 Q -13.840000000000002,-33.96000000000001 -17.360000000000003,-41" fill="#22c55e" fill-opacity="0.1" />
          <path d="M -6.800000000000001,-23.400000000000002 Q 0.2400000000000002,-33.96000000000001 3.7600000000000016,-41" fill="#22c55e" fill-opacity="0.1" />
          <path d="M -6.800000000000001,-23.400000000000002 Q -22.64,-26.92 -27.920000000000005,-30.440000000000005" />
          <path d="M -6.800000000000001,-23.400000000000002 Q 9.040000000000001,-26.92 14.320000000000004,-30.440000000000005" />
        </g>
      
    <path d="M 13.120000000000001,3 L 16,4.4399999999999995 L 16,1.4399999999999995 L 13.120000000000001,0 Z" fill="#ca8a04" />
    <path d="M 16,4.4399999999999995 L 18.88,3 L 18.88,0 L 16,1.4399999999999995 Z" fill="#451a03" />
    <path d="M 16,-1.44 L 18.88,0 L 16,1.4399999999999995 L 13.120000000000001,0 Z" fill="#78350f" />
  
    </g>

    <text x="195" y="8" class="legend-text">More</text>
  </g>

  <!-- Island-Specific Legend -->
  <g transform="translate(60, 1005)">
    <g transform="translate(10, 0)">
      <use href="#tile-0" x="10" y="0" />
    </g>
    <text x="35" y="8" class="legend-text">Meerwasser (Level 0)</text>

    <g transform="translate(190, 0)">
      <use href="#tile-1" x="10" y="0" />
    </g>
    <text x="215" y="8" class="legend-text">Sandbänke (Level 1)</text>

    <g transform="translate(370, 0)">
      <use href="#tile-2" x="10" y="0" />
      <ellipse cx="10" cy="1" rx="8" ry="4" fill="url(#island-shadow)" opacity="0.3" />
        <!-- Trunk -->
        <path d="M 9,0 Q 6.16,-9.6 3.5999999999999996,-19.2 L 4.6,-19.2 Q 7.16,-9.6 11,0 Z" fill="#854d0e" />
        <!-- Leaves -->
        <g stroke="#166534" stroke-width="1.2" fill="none">
          <path d="M 3.5999999999999996,-19.2 Q -6.640000000000001,-16.64 -9.200000000000001,-11.52" />
          <path d="M 3.5999999999999996,-19.2 Q 13.84,-16.64 16.4,-11.52" />
          <path d="M 3.5999999999999996,-19.2 Q -1.5200000000000005,-26.88 -4.08,-32" fill="#22c55e" fill-opacity="0.1" />
          <path d="M 3.5999999999999996,-19.2 Q 8.719999999999999,-26.88 11.28,-32" fill="#22c55e" fill-opacity="0.1" />
          <path d="M 3.5999999999999996,-19.2 Q -7.92,-21.759999999999998 -11.76,-24.32" />
          <path d="M 3.5999999999999996,-19.2 Q 15.12,-21.759999999999998 18.96,-24.32" />
        </g>
      
    </g>
    <text x="395" y="8" class="legend-text">Inseln mit Palmen/Gebäuden (Level 2-4)</text>
  </g>

</svg>
