<?xml version="1.0" encoding="UTF-8" standalone="no"?>
<svg xmlns="http://www.w3.org/2000/svg" 
     viewBox="0 0 1580 1060" 
     width="1580" 
     height="1060">
  <style>
    .title {
      font-family: 'Outfit', 'Inter', -apple-system, BlinkMacSystemFont, "Segoe UI", sans-serif;
      font-size: 26px;
      font-weight: 800;
      fill: #0c4a6e;
      letter-spacing: -0.5px;
    }
    .subtitle {
      font-family: 'Inter', -apple-system, BlinkMacSystemFont, "Segoe UI", sans-serif;
      font-size: 14px;
      font-weight: 500;
      fill: #0369a1;
    }
    .legend-text {
      font-family: 'Inter', -apple-system, BlinkMacSystemFont, "Segoe UI", sans-serif;
      font-size: 12px;
      font-weight: 500;
      fill: #0369a1;
    }
  </style>

  <defs>
    <!-- Background Gradient -->
    <linearGradient id="bg-gradient" x1="0%" y1="0%" x2="100%" y2="100%">
      <stop offset="0%" stop-color="#e0f2fe" />
      <stop offset="100%" stop-color="#bae6fd" />
    </linearGradient>
    
    <radialGradient id="island-shadow" cx="50%" cy="50%" r="50%">
      <stop offset="0%" stop-color="#0284c7" stop-opacity="0.5" />
      <stop offset="100%" stop-color="#0284c7" stop-opacity="0" />
    </radialGradient>
    <radialGradient id="island-shadow-dark" cx="50%" cy="50%" r="50%">
      <stop offset="0%" stop-color="#0c4a6e" stop-opacity="0.8" />
      <stop offset="100%" stop-color="#0c4a6e" stop-opacity="0" />
    </radialGradient>
    <linearGradient id="lighthouse-red" x1="0%" y1="0%" x2="100%" y2="0%">
      <stop offset="0%" stop-color="#ef4444" />
      <stop offset="50%" stop-color="#f87171" />
      <stop offset="100%" stop-color="#991b1b" />
    </linearGradient>
    <linearGradient id="lighthouse-white" x1="0%" y1="0%" x2="100%" y2="0%">
      <stop offset="0%" stop-color="#f1f5f9" />
      <stop offset="50%" stop-color="#ffffff" />
      <stop offset="100%" stop-color="#cbd5e1" />
    </linearGradient>
    <linearGradient id="beam-light" x1="0%" y1="100%" x2="0%" y2="0%">
      <stop offset="0%" stop-color="#fef08a" stop-opacity="0.35" />
      <stop offset="80%" stop-color="#fef08a" stop-opacity="0.05" />
      <stop offset="100%" stop-color="#fef08a" stop-opacity="0" />
    </linearGradient>
  
    
    <!-- Theme Tile Symbols -->
    
    <g id="tile-0">
      <path d="M -24,0 L 0,12 L 0,15 L -24,3 Z" fill="#0274af" />
      <path d="M 0,12 L 24,0 L 24,3 L 0,15 Z" fill="#016497" />
      <path d="M 0,-12 L 24,0 L 0,12 L -24,0 Z" fill="#0284c7" />
      
    </g>
  

    <g id="tile-1">
      <path d="M -24,0 L 0,12 L 0,17 L -24,5 Z" fill="#eab308" />
      <path d="M 0,12 L 24,0 L 24,5 L 0,17 Z" fill="#ca8a04" />
      <path d="M 0,-12 L 24,0 L 0,12 L -24,0 Z" fill="#fef08a" />
      
    </g>
  

          <g id="tile-2">
            <path d="M -24,0 L 0,12 L 0,18 L -24,6 Z" fill="#eab308" />
            <path d="M 0,12 L 24,0 L 24,6 L 0,18 Z" fill="#ca8a04" />
            <path d="M 0,-12 L 24,0 L 0,12 L -24,0 Z" fill="#fef08a" />
            <path d="M 0,-10.2 L 20.4,0 L 0,10.2 L -20.4,0 Z" fill="#86efac" />
          </g>
        

          <g id="tile-3">
            <path d="M -24,0 L 0,12 L 0,19 L -24,7 Z" fill="#ca8a04" />
            <path d="M 0,12 L 24,0 L 24,7 L 0,19 Z" fill="#a16207" />
            <path d="M 0,-12 L 24,0 L 0,12 L -24,0 Z" fill="#fef08a" />
            <path d="M 0,-10.2 L 20.4,0 L 0,10.2 L -20.4,0 Z" fill="#4ade80" />
          </g>
        

          <g id="tile-4">
            <path d="M -24,0 L 0,12 L 0,20 L -24,8 Z" fill="#a16207" />
            <path d="M 0,12 L 24,0 L 24,8 L 0,20 Z" fill="#854d0e" />
            <path d="M 0,-12 L 24,0 L 0,12 L -24,0 Z" fill="#fef08a" />
            <path d="M 0,-10.2 L 20.4,0 L 0,10.2 L -20.4,0 Z" fill="#22c55e" />
          </g>
        
  </defs>

  <!-- Background -->
  <rect width="100%" height="100%" fill="url(#bg-gradient)" rx="16" />

  <!-- Header -->
  <g transform="translate(60, 65)">
    <text x="0" y="0" class="title">HUSKYNARR'S GITHUB ACTIVITY</text>
    <text x="0" y="24" class="subtitle">Theme: Island • Total Contributions: 4,055 in the last year</text>
  </g>
  <!-- Isometric Grid Tiles & Objects -->
  <g>
    <use href="#tile-0" x="214" y="260" />
    <use href="#tile-1" x="190" y="272" />
    <use href="#tile-0" x="166" y="284" />
    <use href="#tile-0" x="142" y="296" />
    <use href="#tile-0" x="118" y="308" />
    <use href="#tile-0" x="94" y="320" />
    <use href="#tile-0" x="70" y="332" />
    <use href="#tile-0" x="238" y="272" />
    <use href="#tile-0" x="214" y="284" />
    <use href="#tile-1" x="190" y="296" />
    <use href="#tile-1" x="166" y="308" />
    <use href="#tile-1" x="142" y="320" />
    <use href="#tile-0" x="118" y="332" />
    <use href="#tile-0" x="94" y="344" />
    <use href="#tile-0" x="262" y="284" />
    <use href="#tile-1" x="238" y="296" />
    <use href="#tile-1" x="214" y="308" />
    <use href="#tile-1" x="190" y="320" />
    <use href="#tile-1" x="166" y="332" />
    <use href="#tile-0" x="142" y="344" />
    <use href="#tile-0" x="118" y="356" />
    <use href="#tile-0" x="286" y="296" />
    <use href="#tile-1" x="262" y="308" />
    <use href="#tile-0" x="238" y="320" />
    <use href="#tile-0" x="214" y="332" />
    <use href="#tile-1" x="190" y="344" />
    <use href="#tile-0" x="166" y="356" />
    <use href="#tile-0" x="142" y="368" />
    <use href="#tile-0" x="310" y="308" />
    <use href="#tile-1" x="286" y="320" />
    <use href="#tile-1" x="262" y="332" />
    <use href="#tile-0" x="238" y="344" />
    <use href="#tile-1" x="214" y="356" />
    <use href="#tile-1" x="190" y="368" />
    <use href="#tile-1" x="166" y="380" />
    <use href="#tile-1" x="334" y="320" />
    <use href="#tile-0" x="310" y="332" />
    <use href="#tile-1" x="286" y="344" />
    <use href="#tile-0" x="262" y="356" />
    <use href="#tile-1" x="238" y="368" />
    <use href="#tile-0" x="214" y="380" />
    <use href="#tile-0" x="190" y="392" />
    <use href="#tile-1" x="358" y="332" />
    <use href="#tile-1" x="334" y="344" />
    <use href="#tile-1" x="310" y="356" />
    <use href="#tile-1" x="286" y="368" />
    <use href="#tile-1" x="262" y="380" />
    <use href="#tile-2" x="238" y="392" />
    <use href="#tile-1" x="214" y="404" />
    <use href="#tile-0" x="382" y="344" />
    <use href="#tile-1" x="358" y="356" />
    <use href="#tile-0" x="334" y="368" />
    <use href="#tile-1" x="310" y="380" />
    <use href="#tile-0" x="286" y="392" />
    <use href="#tile-1" x="262" y="404" />
    <use href="#tile-1" x="238" y="416" />
    <use href="#tile-0" x="406" y="356" />
    <use href="#tile-0" x="382" y="368" />
    <use href="#tile-0" x="358" y="380" />
    <use href="#tile-1" x="334" y="392" />
    <use href="#tile-1" x="310" y="404" />
    <use href="#tile-1" x="286" y="416" />
    <use href="#tile-0" x="262" y="428" />
    <use href="#tile-0" x="430" y="368" />
    <use href="#tile-0" x="406" y="380" />
    <use href="#tile-0" x="382" y="392" />
    <use href="#tile-1" x="358" y="404" />
    <use href="#tile-0" x="334" y="416" />
    <use href="#tile-0" x="310" y="428" />
    <use href="#tile-0" x="286" y="440" />
    <use href="#tile-0" x="454" y="380" />
    <use href="#tile-1" x="430" y="392" />
    <use href="#tile-1" x="406" y="404" />
    <use href="#tile-1" x="382" y="416" />
    <use href="#tile-1" x="358" y="428" />
    <use href="#tile-1" x="334" y="440" />
    <use href="#tile-1" x="310" y="452" />
    <use href="#tile-1" x="478" y="392" />
    <use href="#tile-1" x="454" y="404" />
    <use href="#tile-1" x="430" y="416" />
    <use href="#tile-1" x="406" y="428" />
    <use href="#tile-1" x="382" y="440" />
    <use href="#tile-0" x="358" y="452" />
    <use href="#tile-0" x="334" y="464" />
    <use href="#tile-0" x="502" y="404" />
    <use href="#tile-0" x="478" y="416" />
    <use href="#tile-0" x="454" y="428" />
    <use href="#tile-0" x="430" y="440" />
    <use href="#tile-1" x="406" y="452" />
    <use href="#tile-0" x="382" y="464" />
    <use href="#tile-1" x="358" y="476" />
    <use href="#tile-0" x="526" y="416" />
    <use href="#tile-1" x="502" y="428" />
    <use href="#tile-0" x="478" y="440" />
    <use href="#tile-0" x="454" y="452" />
    <use href="#tile-0" x="430" y="464" />
    <use href="#tile-0" x="406" y="476" />
    <use href="#tile-0" x="382" y="488" />
    <use href="#tile-0" x="550" y="428" />
    <use href="#tile-0" x="526" y="440" />
    <use href="#tile-0" x="502" y="452" />
    <use href="#tile-0" x="478" y="464" />
    <use href="#tile-1" x="454" y="476" />
    <use href="#tile-1" x="430" y="488" />
    <use href="#tile-0" x="406" y="500" />
    <use href="#tile-1" x="574" y="440" />
    <use href="#tile-1" x="550" y="452" />
    <use href="#tile-1" x="526" y="464" />
    <use href="#tile-1" x="502" y="476" />
    <use href="#tile-0" x="478" y="488" />
    <use href="#tile-1" x="454" y="500" />
    <use href="#tile-0" x="430" y="512" />
    <use href="#tile-1" x="598" y="452" />
    <use href="#tile-1" x="574" y="464" />
    <use href="#tile-0" x="550" y="476" />
    <use href="#tile-1" x="526" y="488" />
    <use href="#tile-0" x="502" y="500" />
    <use href="#tile-1" x="478" y="512" />
    <use href="#tile-0" x="454" y="524" />
    <use href="#tile-0" x="622" y="464" />
    <use href="#tile-1" x="598" y="476" />
    <use href="#tile-1" x="574" y="488" />
    <use href="#tile-0" x="550" y="500" />
    <use href="#tile-0" x="526" y="512" />
    <use href="#tile-1" x="502" y="524" />
    <use href="#tile-1" x="478" y="536" />
    <use href="#tile-0" x="646" y="476" />
    <use href="#tile-0" x="622" y="488" />
    <use href="#tile-1" x="598" y="500" />
    <use href="#tile-0" x="574" y="512" />
    <use href="#tile-0" x="550" y="524" />
    <use href="#tile-0" x="526" y="536" />
    <use href="#tile-1" x="502" y="548" />
    <use href="#tile-0" x="670" y="488" />
    <use href="#tile-0" x="646" y="500" />
    <use href="#tile-0" x="622" y="512" />
    <use href="#tile-0" x="598" y="524" />
    <use href="#tile-1" x="574" y="536" />
    <use href="#tile-0" x="550" y="548" />
    <use href="#tile-1" x="526" y="560" />
    <use href="#tile-0" x="694" y="500" />
    <use href="#tile-1" x="670" y="512" />
    <use href="#tile-1" x="646" y="524" />
    <use href="#tile-1" x="622" y="536" />
    <use href="#tile-0" x="598" y="548" />
    <use href="#tile-1" x="574" y="560" />
    <use href="#tile-1" x="550" y="572" />
    <use href="#tile-1" x="718" y="512" />
    <use href="#tile-0" x="694" y="524" />
    <use href="#tile-1" x="670" y="536" />
    <use href="#tile-1" x="646" y="548" />
    <use href="#tile-1" x="622" y="560" />
    <use href="#tile-1" x="598" y="572" />
    <use href="#tile-1" x="574" y="584" />
    <use href="#tile-0" x="742" y="524" />
    <use href="#tile-0" x="718" y="536" />
    <use href="#tile-0" x="694" y="548" />
    <use href="#tile-0" x="670" y="560" />
    <use href="#tile-1" x="646" y="572" />
    <use href="#tile-1" x="622" y="584" />
    <use href="#tile-0" x="598" y="596" />
    <use href="#tile-1" x="766" y="536" />
    <use href="#tile-0" x="742" y="548" />
    <use href="#tile-0" x="718" y="560" />
    <use href="#tile-0" x="694" y="572" />
    <use href="#tile-0" x="670" y="584" />
    <use href="#tile-0" x="646" y="596" />
    <use href="#tile-1" x="622" y="608" />
    <use href="#tile-0" x="790" y="548" />
    <use href="#tile-0" x="766" y="560" />
    <use href="#tile-1" x="742" y="572" />
    <use href="#tile-0" x="718" y="584" />
    <use href="#tile-0" x="694" y="596" />
    <use href="#tile-1" x="670" y="608" />
    <use href="#tile-1" x="646" y="620" />
    <use href="#tile-1" x="814" y="560" />
    <use href="#tile-0" x="790" y="572" />
    <use href="#tile-1" x="766" y="584" />
    <use href="#tile-0" x="742" y="596" />
    <use href="#tile-1" x="718" y="608" />
    <use href="#tile-0" x="694" y="620" />
    <use href="#tile-1" x="670" y="632" />
    <use href="#tile-1" x="838" y="572" />
    <use href="#tile-1" x="814" y="584" />
    <use href="#tile-0" x="790" y="596" />
    <use href="#tile-1" x="766" y="608" />
    <use href="#tile-1" x="742" y="620" />
    <use href="#tile-1" x="718" y="632" />
    <use href="#tile-2" x="694" y="644" />
    <use href="#tile-1" x="862" y="584" />
    <use href="#tile-0" x="838" y="596" />
    <use href="#tile-0" x="814" y="608" />
    <use href="#tile-0" x="790" y="620" />
    <use href="#tile-0" x="766" y="632" />
    <use href="#tile-0" x="742" y="644" />
    <use href="#tile-1" x="718" y="656" />
    <use href="#tile-1" x="886" y="596" />
    <use href="#tile-0" x="862" y="608" />
    <use href="#tile-1" x="838" y="620" />
    <use href="#tile-0" x="814" y="632" />
    <use href="#tile-0" x="790" y="644" />
    <use href="#tile-0" x="766" y="656" />
    <use href="#tile-0" x="742" y="668" />
    <use href="#tile-0" x="910" y="608" />
    <use href="#tile-0" x="886" y="620" />
    <use href="#tile-0" x="862" y="632" />
    <use href="#tile-1" x="838" y="644" />
    <use href="#tile-0" x="814" y="656" />
    <use href="#tile-0" x="790" y="668" />
    <use href="#tile-0" x="766" y="680" />
    <use href="#tile-0" x="934" y="620" />
    <use href="#tile-0" x="910" y="632" />
    <use href="#tile-1" x="886" y="644" />
    <use href="#tile-1" x="862" y="656" />
    <use href="#tile-0" x="838" y="668" />
    <use href="#tile-0" x="814" y="680" />
    <use href="#tile-1" x="790" y="692" />
    <use href="#tile-0" x="958" y="632" />
    <use href="#tile-0" x="934" y="644" />
    <use href="#tile-0" x="910" y="656" />
    <use href="#tile-0" x="886" y="668" />
    <use href="#tile-0" x="862" y="680" />
    <use href="#tile-0" x="838" y="692" />
    <use href="#tile-0" x="814" y="704" />
    <use href="#tile-0" x="982" y="644" />
    <use href="#tile-0" x="958" y="656" />
    <use href="#tile-0" x="934" y="668" />
    <use href="#tile-1" x="910" y="680" />
    <use href="#tile-1" x="886" y="692" />
    <use href="#tile-1" x="862" y="704" />
    <use href="#tile-0" x="838" y="716" />
    <use href="#tile-0" x="1006" y="656" />
    <use href="#tile-1" x="982" y="668" />
    <use href="#tile-1" x="958" y="680" />
    <use href="#tile-0" x="934" y="692" />
    <use href="#tile-0" x="910" y="704" />
    <use href="#tile-0" x="886" y="716" />
    <use href="#tile-0" x="862" y="728" />
    <use href="#tile-0" x="1030" y="668" />
    <use href="#tile-0" x="1006" y="680" />
    <use href="#tile-1" x="982" y="692" />
    <use href="#tile-1" x="958" y="704" />
    <use href="#tile-1" x="934" y="716" />
    <use href="#tile-1" x="910" y="728" />
    <use href="#tile-1" x="886" y="740" />
    <use href="#tile-1" x="1054" y="680" />
    <use href="#tile-1" x="1030" y="692" />
    <use href="#tile-1" x="1006" y="704" />
    <use href="#tile-1" x="982" y="716" />
    <use href="#tile-1" x="958" y="728" />
    <use href="#tile-1" x="934" y="740" />
    <use href="#tile-0" x="910" y="752" />
    <use href="#tile-1" x="1078" y="692" />
    <use href="#tile-1" x="1054" y="704" />
    <use href="#tile-1" x="1030" y="716" />
    <use href="#tile-2" x="1006" y="728" />
    <use href="#tile-0" x="982" y="740" />
    <use href="#tile-1" x="958" y="752" />
    <use href="#tile-1" x="934" y="764" />
    <use href="#tile-0" x="1102" y="704" />
    <use href="#tile-1" x="1078" y="716" />
    <use href="#tile-1" x="1054" y="728" />
    <use href="#tile-1" x="1030" y="740" />
    <use href="#tile-1" x="1006" y="752" />
    <use href="#tile-0" x="982" y="764" />
    <use href="#tile-1" x="958" y="776" />
    <use href="#tile-1" x="1126" y="716" />
    <use href="#tile-1" x="1102" y="728" />
    <use href="#tile-1" x="1078" y="740" />
    <use href="#tile-1" x="1054" y="752" />
    <use href="#tile-1" x="1030" y="764" />
    <use href="#tile-1" x="1006" y="776" />
    <use href="#tile-1" x="982" y="788" />
    <use href="#tile-1" x="1150" y="728" />
    <use href="#tile-1" x="1126" y="740" />
    <use href="#tile-0" x="1102" y="752" />
    <use href="#tile-0" x="1078" y="764" />
    <use href="#tile-1" x="1054" y="776" />
    <use href="#tile-0" x="1030" y="788" />
    <use href="#tile-0" x="1006" y="800" />
    <use href="#tile-0" x="1174" y="740" />
    <use href="#tile-1" x="1150" y="752" />
    <use href="#tile-1" x="1126" y="764" />
    <use href="#tile-1" x="1102" y="776" />
    <use href="#tile-1" x="1078" y="788" />
    <use href="#tile-1" x="1054" y="800" />
    <use href="#tile-1" x="1030" y="812" />
    <use href="#tile-1" x="1198" y="752" />
    <use href="#tile-1" x="1174" y="764" />
    <use href="#tile-1" x="1150" y="776" />
    <use href="#tile-1" x="1126" y="788" />
    <use href="#tile-1" x="1102" y="800" />
    <use href="#tile-1" x="1078" y="812" />
    <use href="#tile-1" x="1054" y="824" />
    <use href="#tile-1" x="1222" y="764" />
    <use href="#tile-1" x="1198" y="776" />
    <use href="#tile-1" x="1174" y="788" />
    <use href="#tile-1" x="1150" y="800" />
    <use href="#tile-0" x="1126" y="812" />
    <use href="#tile-1" x="1102" y="824" />
    <use href="#tile-1" x="1078" y="836" />
    <use href="#tile-1" x="1246" y="776" />
    <use href="#tile-0" x="1222" y="788" />
    <use href="#tile-0" x="1198" y="800" />
    <use href="#tile-0" x="1174" y="812" />
    <use href="#tile-0" x="1150" y="824" />
    <use href="#tile-1" x="1126" y="836" />
    <use href="#tile-1" x="1102" y="848" />
    <use href="#tile-1" x="1270" y="788" />
    <use href="#tile-1" x="1246" y="800" />
    <use href="#tile-1" x="1222" y="812" />
    <use href="#tile-1" x="1198" y="824" />
    <use href="#tile-1" x="1174" y="836" />
    <use href="#tile-0" x="1150" y="848" />
    <use href="#tile-2" x="1126" y="860" />
    <use href="#tile-4" x="1294" y="800" />
    <use href="#tile-3" x="1270" y="812" />
    <use href="#tile-0" x="1246" y="824" />
    <use href="#tile-0" x="1222" y="836" />
    <use href="#tile-1" x="1198" y="848" />
    <use href="#tile-0" x="1174" y="860" />
    <use href="#tile-4" x="1150" y="872" />
    <use href="#tile-1" x="1318" y="812" />
    <use href="#tile-1" x="1294" y="824" />
    <use href="#tile-1" x="1270" y="836" />
    <use href="#tile-0" x="1246" y="848" />
    <use href="#tile-0" x="1222" y="860" />
    <use href="#tile-0" x="1198" y="872" />
    <use href="#tile-1" x="1174" y="884" />
    <use href="#tile-1" x="1342" y="824" />
    <use href="#tile-1" x="1318" y="836" />
    <use href="#tile-1" x="1294" y="848" />
    <use href="#tile-1" x="1270" y="860" />
    <use href="#tile-1" x="1246" y="872" />
    <use href="#tile-0" x="1222" y="884" />
    <use href="#tile-1" x="1198" y="896" />
    <use href="#tile-1" x="1366" y="836" />
    <use href="#tile-0" x="1342" y="848" />
    <use href="#tile-0" x="1318" y="860" />
    <use href="#tile-0" x="1294" y="872" />
    <use href="#tile-0" x="1270" y="884" />
    <use href="#tile-0" x="1246" y="896" />
    <use href="#tile-1" x="1222" y="908" />
    <use href="#tile-1" x="1390" y="848" />
    <use href="#tile-0" x="1366" y="860" />
    <use href="#tile-1" x="1342" y="872" />
    <use href="#tile-1" x="1318" y="884" />
    <use href="#tile-0" x="1294" y="896" />
    <use href="#tile-1" x="1270" y="908" />
    <use href="#tile-1" x="1246" y="920" />
    <use href="#tile-0" x="1414" y="860" />
    <use href="#tile-1" x="1390" y="872" />
    <use href="#tile-1" x="1366" y="884" />
    <use href="#tile-1" x="1342" y="896" />
    <use href="#tile-1" x="1318" y="908" />
    <use href="#tile-2" x="1294" y="920" />
    <use href="#tile-1" x="1270" y="932" />
    <use href="#tile-1" x="1438" y="872" />
    <use href="#tile-0" x="1414" y="884" />
    <use href="#tile-0" x="1390" y="896" />
    <use href="#tile-1" x="1366" y="908" />
    <use href="#tile-1" x="1342" y="920" />
    <use href="#tile-1" x="1318" y="932" />
    <use href="#tile-1" x="1294" y="944" />
    <use href="#tile-1" x="1462" y="884" />
    <use href="#tile-0" x="1438" y="896" />
    <use href="#tile-0" x="1414" y="908" />
    
          <path d="M 139.6,292.4 C 142.6,290.4 145.6,290.4 148.6,292.4 M 142,298.4 C 145,296.4 148,296.4 151,298.4" 
                stroke="#ffffff" stroke-width="1.0" fill="none" opacity="0.4" />
        
    <path d="M 190,294 L 191,296 L 193,296 L 191.5,297.2 L 192,299 L 190,297.8 L 188,299 L 188.5,297.2 L 187,296 L 189,296 Z" fill="#ef4444" stroke="#ffffff" stroke-width="0.3" />
    <path d="M 166,306 L 167,308 L 169,308 L 167.5,309.2 L 168,311 L 166,309.8 L 164,311 L 164.5,309.2 L 163,308 L 165,308 Z" fill="#ef4444" stroke="#ffffff" stroke-width="0.3" />
    <path d="M 214,306 L 215,308 L 217,308 L 215.5,309.2 L 216,311 L 214,309.8 L 212,311 L 212.5,309.2 L 211,308 L 213,308 Z" fill="#ef4444" stroke="#ffffff" stroke-width="0.3" />
    <path d="M 190,318 L 191,320 L 193,320 L 191.5,321.2 L 192,323 L 190,321.8 L 188,323 L 188.5,321.2 L 187,320 L 189,320 Z" fill="#ef4444" stroke="#ffffff" stroke-width="0.3" />
    
          <path d="M 115.6,352.4 C 118.6,350.4 121.6,350.4 124.6,352.4 M 118,358.4 C 121,356.4 124,356.4 127,358.4" 
                stroke="#ffffff" stroke-width="1.0" fill="none" opacity="0.4" />
        
    
          <path d="M 283.6,292.4 C 286.6,290.4 289.6,290.4 292.6,292.4 M 286,298.4 C 289,296.4 292,296.4 295,298.4" 
                stroke="#ffffff" stroke-width="1.0" fill="none" opacity="0.4" />
        
    <path d="M 190,342 L 191,344 L 193,344 L 191.5,345.2 L 192,347 L 190,345.8 L 188,347 L 188.5,345.2 L 187,344 L 189,344 Z" fill="#ef4444" stroke="#ffffff" stroke-width="0.3" />
    
          <path d="M 163.6,352.4 C 166.6,350.4 169.6,350.4 172.6,352.4 M 166,358.4 C 169,356.4 172,356.4 175,358.4" 
                stroke="#ffffff" stroke-width="1.0" fill="none" opacity="0.4" />
        
    <path d="M 214,354 L 215,356 L 217,356 L 215.5,357.2 L 216,359 L 214,357.8 L 212,359 L 212.5,357.2 L 211,356 L 213,356 Z" fill="#ef4444" stroke="#ffffff" stroke-width="0.3" />
    <path d="M 334,318 L 335,320 L 337,320 L 335.5,321.2 L 336,323 L 334,321.8 L 332,323 L 332.5,321.2 L 331,320 L 333,320 Z" fill="#ef4444" stroke="#ffffff" stroke-width="0.3" />
    
          <path d="M 259.6,352.4 C 262.6,350.4 265.6,350.4 268.6,352.4 M 262,358.4 C 265,356.4 268,356.4 271,358.4" 
                stroke="#ffffff" stroke-width="1.0" fill="none" opacity="0.4" />
        
    <path d="M 238,366 L 239,368 L 241,368 L 239.5,369.2 L 240,371 L 238,369.8 L 236,371 L 236.5,369.2 L 235,368 L 237,368 Z" fill="#ef4444" stroke="#ffffff" stroke-width="0.3" />
    <path d="M 358,330 L 359,332 L 361,332 L 359.5,333.2 L 360,335 L 358,333.8 L 356,335 L 356.5,333.2 L 355,332 L 357,332 Z" fill="#ef4444" stroke="#ffffff" stroke-width="0.3" />
    <path d="M 334,342 L 335,344 L 337,344 L 335.5,345.2 L 336,347 L 334,345.8 L 332,347 L 332.5,345.2 L 331,344 L 333,344 Z" fill="#ef4444" stroke="#ffffff" stroke-width="0.3" />
    <path d="M 262,378 L 263,380 L 265,380 L 263.5,381.2 L 264,383 L 262,381.8 L 260,383 L 260.5,381.2 L 259,380 L 261,380 Z" fill="#ef4444" stroke="#ffffff" stroke-width="0.3" />
    <ellipse cx="238" cy="393" rx="8" ry="4" fill="url(#island-shadow)" opacity="0.3" />
        <!-- Trunk -->
        <path d="M 237,392 Q 233.2,380 230,368 L 231,368 Q 234.2,380 239,392 Z" fill="#854d0e" />
        <!-- Leaves -->
        <g stroke="#166534" stroke-width="1.2" fill="none">
          <path d="M 230,368 Q 217.2,371.2 214,377.6" />
          <path d="M 230,368 Q 242.8,371.2 246,377.6" />
          <path d="M 230,368 Q 223.6,358.4 220.4,352" fill="#22c55e" fill-opacity="0.1" />
          <path d="M 230,368 Q 236.4,358.4 239.6,352" fill="#22c55e" fill-opacity="0.1" />
          <path d="M 230,368 Q 215.6,364.8 210.8,361.6" />
          <path d="M 230,368 Q 244.4,364.8 249.2,361.6" />
        </g>
      
    <path d="M 358,354 L 359,356 L 361,356 L 359.5,357.2 L 360,359 L 358,357.8 L 356,359 L 356.5,357.2 L 355,356 L 357,356 Z" fill="#ef4444" stroke="#ffffff" stroke-width="0.3" />
    <path d="M 262,402 L 263,404 L 265,404 L 263.5,405.2 L 264,407 L 262,405.8 L 260,407 L 260.5,405.2 L 259,404 L 261,404 Z" fill="#ef4444" stroke="#ffffff" stroke-width="0.3" />
    
          <path d="M 403.6,352.4 C 406.6,350.4 409.6,350.4 412.6,352.4 M 406,358.4 C 409,356.4 412,356.4 415,358.4" 
                stroke="#ffffff" stroke-width="1.0" fill="none" opacity="0.4" />
        
    <path d="M 310,402 L 311,404 L 313,404 L 311.5,405.2 L 312,407 L 310,405.8 L 308,407 L 308.5,405.2 L 307,404 L 309,404 Z" fill="#ef4444" stroke="#ffffff" stroke-width="0.3" />
    <path d="M 286,414 L 287,416 L 289,416 L 287.5,417.2 L 288,419 L 286,417.8 L 284,419 L 284.5,417.2 L 283,416 L 285,416 Z" fill="#ef4444" stroke="#ffffff" stroke-width="0.3" />
    
          <path d="M 331.6,412.4 C 334.6,410.4 337.6,410.4 340.6,412.4 M 334,418.4 C 337,416.4 340,416.4 343,418.4" 
                stroke="#ffffff" stroke-width="1.0" fill="none" opacity="0.4" />
        
    <path d="M 430,390 L 431,392 L 433,392 L 431.5,393.2 L 432,395 L 430,393.8 L 428,395 L 428.5,393.2 L 427,392 L 429,392 Z" fill="#ef4444" stroke="#ffffff" stroke-width="0.3" />
    <path d="M 406,402 L 407,404 L 409,404 L 407.5,405.2 L 408,407 L 406,405.8 L 404,407 L 404.5,405.2 L 403,404 L 405,404 Z" fill="#ef4444" stroke="#ffffff" stroke-width="0.3" />
    <path d="M 334,438 L 335,440 L 337,440 L 335.5,441.2 L 336,443 L 334,441.8 L 332,443 L 332.5,441.2 L 331,440 L 333,440 Z" fill="#ef4444" stroke="#ffffff" stroke-width="0.3" />
    <path d="M 310,450 L 311,452 L 313,452 L 311.5,453.2 L 312,455 L 310,453.8 L 308,455 L 308.5,453.2 L 307,452 L 309,452 Z" fill="#ef4444" stroke="#ffffff" stroke-width="0.3" />
    <path d="M 430,414 L 431,416 L 433,416 L 431.5,417.2 L 432,419 L 430,417.8 L 428,419 L 428.5,417.2 L 427,416 L 429,416 Z" fill="#ef4444" stroke="#ffffff" stroke-width="0.3" />
    <path d="M 406,426 L 407,428 L 409,428 L 407.5,429.2 L 408,431 L 406,429.8 L 404,431 L 404.5,429.2 L 403,428 L 405,428 Z" fill="#ef4444" stroke="#ffffff" stroke-width="0.3" />
    
          <path d="M 475.6,412.4 C 478.6,410.4 481.6,410.4 484.6,412.4 M 478,418.4 C 481,416.4 484,416.4 487,418.4" 
                stroke="#ffffff" stroke-width="1.0" fill="none" opacity="0.4" />
        
    <path d="M 358,474 L 359,476 L 361,476 L 359.5,477.2 L 360,479 L 358,477.8 L 356,479 L 356.5,477.2 L 355,476 L 357,476 Z" fill="#ef4444" stroke="#ffffff" stroke-width="0.3" />
    
          <path d="M 403.6,472.4 C 406.6,470.4 409.6,470.4 412.6,472.4 M 406,478.4 C 409,476.4 412,476.4 415,478.4" 
                stroke="#ffffff" stroke-width="1.0" fill="none" opacity="0.4" />
        
    
          <path d="M 523.6,436.4 C 526.6,434.4 529.6,434.4 532.6,436.4 M 526,442.4 C 529,440.4 532,440.4 535,442.4" 
                stroke="#ffffff" stroke-width="1.0" fill="none" opacity="0.4" />
        
    <path d="M 454,474 L 455,476 L 457,476 L 455.5,477.2 L 456,479 L 454,477.8 L 452,479 L 452.5,477.2 L 451,476 L 453,476 Z" fill="#ef4444" stroke="#ffffff" stroke-width="0.3" />
    <path d="M 574,438 L 575,440 L 577,440 L 575.5,441.2 L 576,443 L 574,441.8 L 572,443 L 572.5,441.2 L 571,440 L 573,440 Z" fill="#ef4444" stroke="#ffffff" stroke-width="0.3" />
    <path d="M 502,474 L 503,476 L 505,476 L 503.5,477.2 L 504,479 L 502,477.8 L 500,479 L 500.5,477.2 L 499,476 L 501,476 Z" fill="#ef4444" stroke="#ffffff" stroke-width="0.3" />
    <path d="M 598,450 L 599,452 L 601,452 L 599.5,453.2 L 600,455 L 598,453.8 L 596,455 L 596.5,453.2 L 595,452 L 597,452 Z" fill="#ef4444" stroke="#ffffff" stroke-width="0.3" />
    <path d="M 526,486 L 527,488 L 529,488 L 527.5,489.2 L 528,491 L 526,489.8 L 524,491 L 524.5,489.2 L 523,488 L 525,488 Z" fill="#ef4444" stroke="#ffffff" stroke-width="0.3" />
    <path d="M 598,474 L 599,476 L 601,476 L 599.5,477.2 L 600,479 L 598,477.8 L 596,479 L 596.5,477.2 L 595,476 L 597,476 Z" fill="#ef4444" stroke="#ffffff" stroke-width="0.3" />
    
          <path d="M 547.6,496.4 C 550.6,494.4 553.6,494.4 556.6,496.4 M 550,502.4 C 553,500.4 556,500.4 559,502.4" 
                stroke="#ffffff" stroke-width="1.0" fill="none" opacity="0.4" />
        
    <path d="M 502,522 L 503,524 L 505,524 L 503.5,525.2 L 504,527 L 502,525.8 L 500,527 L 500.5,525.2 L 499,524 L 501,524 Z" fill="#ef4444" stroke="#ffffff" stroke-width="0.3" />
    
          <path d="M 523.6,532.4 C 526.6,530.4 529.6,530.4 532.6,532.4 M 526,538.4 C 529,536.4 532,536.4 535,538.4" 
                stroke="#ffffff" stroke-width="1.0" fill="none" opacity="0.4" />
        
    
          <path d="M 643.6,496.4 C 646.6,494.4 649.6,494.4 652.6,496.4 M 646,502.4 C 649,500.4 652,500.4 655,502.4" 
                stroke="#ffffff" stroke-width="1.0" fill="none" opacity="0.4" />
        
    <path d="M 574,534 L 575,536 L 577,536 L 575.5,537.2 L 576,539 L 574,537.8 L 572,539 L 572.5,537.2 L 571,536 L 573,536 Z" fill="#ef4444" stroke="#ffffff" stroke-width="0.3" />
    
          <path d="M 691.6,496.4 C 694.6,494.4 697.6,494.4 700.6,496.4 M 694,502.4 C 697,500.4 700,500.4 703,502.4" 
                stroke="#ffffff" stroke-width="1.0" fill="none" opacity="0.4" />
        
    <path d="M 670,510 L 671,512 L 673,512 L 671.5,513.2 L 672,515 L 670,513.8 L 668,515 L 668.5,513.2 L 667,512 L 669,512 Z" fill="#ef4444" stroke="#ffffff" stroke-width="0.3" />
    <path d="M 646,522 L 647,524 L 649,524 L 647.5,525.2 L 648,527 L 646,525.8 L 644,527 L 644.5,525.2 L 643,524 L 645,524 Z" fill="#ef4444" stroke="#ffffff" stroke-width="0.3" />
    <path d="M 574,558 L 575,560 L 577,560 L 575.5,561.2 L 576,563 L 574,561.8 L 572,563 L 572.5,561.2 L 571,560 L 573,560 Z" fill="#ef4444" stroke="#ffffff" stroke-width="0.3" />
    <path d="M 550,570 L 551,572 L 553,572 L 551.5,573.2 L 552,575 L 550,573.8 L 548,575 L 548.5,573.2 L 547,572 L 549,572 Z" fill="#ef4444" stroke="#ffffff" stroke-width="0.3" />
    <path d="M 670,534 L 671,536 L 673,536 L 671.5,537.2 L 672,539 L 670,537.8 L 668,539 L 668.5,537.2 L 667,536 L 669,536 Z" fill="#ef4444" stroke="#ffffff" stroke-width="0.3" />
    <path d="M 598,570 L 599,572 L 601,572 L 599.5,573.2 L 600,575 L 598,573.8 L 596,575 L 596.5,573.2 L 595,572 L 597,572 Z" fill="#ef4444" stroke="#ffffff" stroke-width="0.3" />
    <path d="M 574,582 L 575,584 L 577,584 L 575.5,585.2 L 576,587 L 574,585.8 L 572,587 L 572.5,585.2 L 571,584 L 573,584 Z" fill="#ef4444" stroke="#ffffff" stroke-width="0.3" />
    
          <path d="M 667.6,556.4 C 670.6,554.4 673.6,554.4 676.6,556.4 M 670,562.4 C 673,560.4 676,560.4 679,562.4" 
                stroke="#ffffff" stroke-width="1.0" fill="none" opacity="0.4" />
        
    <path d="M 622,582 L 623,584 L 625,584 L 623.5,585.2 L 624,587 L 622,585.8 L 620,587 L 620.5,585.2 L 619,584 L 621,584 Z" fill="#ef4444" stroke="#ffffff" stroke-width="0.3" />
    
          <path d="M 715.6,556.4 C 718.6,554.4 721.6,554.4 724.6,556.4 M 718,562.4 C 721,560.4 724,560.4 727,562.4" 
                stroke="#ffffff" stroke-width="1.0" fill="none" opacity="0.4" />
        
    <path d="M 622,606 L 623,608 L 625,608 L 623.5,609.2 L 624,611 L 622,609.8 L 620,611 L 620.5,609.2 L 619,608 L 621,608 Z" fill="#ef4444" stroke="#ffffff" stroke-width="0.3" />
    
          <path d="M 763.6,556.4 C 766.6,554.4 769.6,554.4 772.6,556.4 M 766,562.4 C 769,560.4 772,560.4 775,562.4" 
                stroke="#ffffff" stroke-width="1.0" fill="none" opacity="0.4" />
        
    <path d="M 742,570 L 743,572 L 745,572 L 743.5,573.2 L 744,575 L 742,573.8 L 740,575 L 740.5,573.2 L 739,572 L 741,572 Z" fill="#ef4444" stroke="#ffffff" stroke-width="0.3" />
    <path d="M 646,618 L 647,620 L 649,620 L 647.5,621.2 L 648,623 L 646,621.8 L 644,623 L 644.5,621.2 L 643,620 L 645,620 Z" fill="#ef4444" stroke="#ffffff" stroke-width="0.3" />
    <path d="M 814,558 L 815,560 L 817,560 L 815.5,561.2 L 816,563 L 814,561.8 L 812,563 L 812.5,561.2 L 811,560 L 813,560 Z" fill="#ef4444" stroke="#ffffff" stroke-width="0.3" />
    
          <path d="M 691.6,616.4 C 694.6,614.4 697.6,614.4 700.6,616.4 M 694,622.4 C 697,620.4 700,620.4 703,622.4" 
                stroke="#ffffff" stroke-width="1.0" fill="none" opacity="0.4" />
        
    <path d="M 670,630 L 671,632 L 673,632 L 671.5,633.2 L 672,635 L 670,633.8 L 668,635 L 668.5,633.2 L 667,632 L 669,632 Z" fill="#ef4444" stroke="#ffffff" stroke-width="0.3" />
    <path d="M 838,570 L 839,572 L 841,572 L 839.5,573.2 L 840,575 L 838,573.8 L 836,575 L 836.5,573.2 L 835,572 L 837,572 Z" fill="#ef4444" stroke="#ffffff" stroke-width="0.3" />
    <path d="M 766,606 L 767,608 L 769,608 L 767.5,609.2 L 768,611 L 766,609.8 L 764,611 L 764.5,609.2 L 763,608 L 765,608 Z" fill="#ef4444" stroke="#ffffff" stroke-width="0.3" />
    <path d="M 742,618 L 743,620 L 745,620 L 743.5,621.2 L 744,623 L 742,621.8 L 740,623 L 740.5,621.2 L 739,620 L 741,620 Z" fill="#ef4444" stroke="#ffffff" stroke-width="0.3" />
    <ellipse cx="694" cy="645" rx="8" ry="4" fill="url(#island-shadow)" opacity="0.3" />
        <!-- Trunk -->
        <path d="M 693,644 Q 689.2,632 686,620 L 687,620 Q 690.2,632 695,644 Z" fill="#854d0e" />
        <!-- Leaves -->
        <g stroke="#166534" stroke-width="1.2" fill="none">
          <path d="M 686,620 Q 673.2,623.2 670,629.6" />
          <path d="M 686,620 Q 698.8,623.2 702,629.6" />
          <path d="M 686,620 Q 679.6,610.4 676.4,604" fill="#22c55e" fill-opacity="0.1" />
          <path d="M 686,620 Q 692.4,610.4 695.6,604" fill="#22c55e" fill-opacity="0.1" />
          <path d="M 686,620 Q 671.6,616.8 666.8,613.6" />
          <path d="M 686,620 Q 700.4,616.8 705.2,613.6" />
        </g>
      
    <path d="M 862,582 L 863,584 L 865,584 L 863.5,585.2 L 864,587 L 862,585.8 L 860,587 L 860.5,585.2 L 859,584 L 861,584 Z" fill="#ef4444" stroke="#ffffff" stroke-width="0.3" />
    
          <path d="M 787.6,616.4 C 790.6,614.4 793.6,614.4 796.6,616.4 M 790,622.4 C 793,620.4 796,620.4 799,622.4" 
                stroke="#ffffff" stroke-width="1.0" fill="none" opacity="0.4" />
        
    <path d="M 886,594 L 887,596 L 889,596 L 887.5,597.2 L 888,599 L 886,597.8 L 884,599 L 884.5,597.2 L 883,596 L 885,596 Z" fill="#ef4444" stroke="#ffffff" stroke-width="0.3" />
    
          <path d="M 883.6,616.4 C 886.6,614.4 889.6,614.4 892.6,616.4 M 886,622.4 C 889,620.4 892,620.4 895,622.4" 
                stroke="#ffffff" stroke-width="1.0" fill="none" opacity="0.4" />
        
    
          <path d="M 763.6,676.4 C 766.6,674.4 769.6,674.4 772.6,676.4 M 766,682.4 C 769,680.4 772,680.4 775,682.4" 
                stroke="#ffffff" stroke-width="1.0" fill="none" opacity="0.4" />
        
    
          <path d="M 931.6,616.4 C 934.6,614.4 937.6,614.4 940.6,616.4 M 934,622.4 C 937,620.4 940,620.4 943,622.4" 
                stroke="#ffffff" stroke-width="1.0" fill="none" opacity="0.4" />
        
    
          <path d="M 811.6,676.4 C 814.6,674.4 817.6,674.4 820.6,676.4 M 814,682.4 C 817,680.4 820,680.4 823,682.4" 
                stroke="#ffffff" stroke-width="1.0" fill="none" opacity="0.4" />
        
    
          <path d="M 859.6,676.4 C 862.6,674.4 865.6,674.4 868.6,676.4 M 862,682.4 C 865,680.4 868,680.4 871,682.4" 
                stroke="#ffffff" stroke-width="1.0" fill="none" opacity="0.4" />
        
    <path d="M 862,702 L 863,704 L 865,704 L 863.5,705.2 L 864,707 L 862,705.8 L 860,707 L 860.5,705.2 L 859,704 L 861,704 Z" fill="#ef4444" stroke="#ffffff" stroke-width="0.3" />
    <path d="M 958,678 L 959,680 L 961,680 L 959.5,681.2 L 960,683 L 958,681.8 L 956,683 L 956.5,681.2 L 955,680 L 957,680 Z" fill="#ef4444" stroke="#ffffff" stroke-width="0.3" />
    
          <path d="M 1003.6,676.4 C 1006.6,674.4 1009.6,674.4 1012.6,676.4 M 1006,682.4 C 1009,680.4 1012,680.4 1015,682.4" 
                stroke="#ffffff" stroke-width="1.0" fill="none" opacity="0.4" />
        
    <path d="M 982,690 L 983,692 L 985,692 L 983.5,693.2 L 984,695 L 982,693.8 L 980,695 L 980.5,693.2 L 979,692 L 981,692 Z" fill="#ef4444" stroke="#ffffff" stroke-width="0.3" />
    <path d="M 958,702 L 959,704 L 961,704 L 959.5,705.2 L 960,707 L 958,705.8 L 956,707 L 956.5,705.2 L 955,704 L 957,704 Z" fill="#ef4444" stroke="#ffffff" stroke-width="0.3" />
    <path d="M 886,738 L 887,740 L 889,740 L 887.5,741.2 L 888,743 L 886,741.8 L 884,743 L 884.5,741.2 L 883,740 L 885,740 Z" fill="#ef4444" stroke="#ffffff" stroke-width="0.3" />
    <path d="M 1006,702 L 1007,704 L 1009,704 L 1007.5,705.2 L 1008,707 L 1006,705.8 L 1004,707 L 1004.5,705.2 L 1003,704 L 1005,704 Z" fill="#ef4444" stroke="#ffffff" stroke-width="0.3" />
    <path d="M 982,714 L 983,716 L 985,716 L 983.5,717.2 L 984,719 L 982,717.8 L 980,719 L 980.5,717.2 L 979,716 L 981,716 Z" fill="#ef4444" stroke="#ffffff" stroke-width="0.3" />
    <path d="M 1078,690 L 1079,692 L 1081,692 L 1079.5,693.2 L 1080,695 L 1078,693.8 L 1076,695 L 1076.5,693.2 L 1075,692 L 1077,692 Z" fill="#ef4444" stroke="#ffffff" stroke-width="0.3" />
    <ellipse cx="1006" cy="729" rx="8" ry="4" fill="url(#island-shadow)" opacity="0.3" />
        <!-- Trunk -->
        <path d="M 1005,728 Q 1001.2,716 998,704 L 999,704 Q 1002.2,716 1007,728 Z" fill="#854d0e" />
        <!-- Leaves -->
        <g stroke="#166534" stroke-width="1.2" fill="none">
          <path d="M 998,704 Q 985.2,707.2 982,713.6" />
          <path d="M 998,704 Q 1010.8,707.2 1014,713.6" />
          <path d="M 998,704 Q 991.6,694.4 988.4,688" fill="#22c55e" fill-opacity="0.1" />
          <path d="M 998,704 Q 1004.4,694.4 1007.6,688" fill="#22c55e" fill-opacity="0.1" />
          <path d="M 998,704 Q 983.6,700.8 978.8,697.6" />
          <path d="M 998,704 Q 1012.4,700.8 1017.2,697.6" />
        </g>
      
    
          <path d="M 979.6,736.4 C 982.6,734.4 985.6,734.4 988.6,736.4 M 982,742.4 C 985,740.4 988,740.4 991,742.4" 
                stroke="#ffffff" stroke-width="1.0" fill="none" opacity="0.4" />
        
    <path d="M 934,762 L 935,764 L 937,764 L 935.5,765.2 L 936,767 L 934,765.8 L 932,767 L 932.5,765.2 L 931,764 L 933,764 Z" fill="#ef4444" stroke="#ffffff" stroke-width="0.3" />
    <path d="M 1030,738 L 1031,740 L 1033,740 L 1031.5,741.2 L 1032,743 L 1030,741.8 L 1028,743 L 1028.5,741.2 L 1027,740 L 1029,740 Z" fill="#ef4444" stroke="#ffffff" stroke-width="0.3" />
    <path d="M 1006,750 L 1007,752 L 1009,752 L 1007.5,753.2 L 1008,755 L 1006,753.8 L 1004,755 L 1004.5,753.2 L 1003,752 L 1005,752 Z" fill="#ef4444" stroke="#ffffff" stroke-width="0.3" />
    <path d="M 1126,714 L 1127,716 L 1129,716 L 1127.5,717.2 L 1128,719 L 1126,717.8 L 1124,719 L 1124.5,717.2 L 1123,716 L 1125,716 Z" fill="#ef4444" stroke="#ffffff" stroke-width="0.3" />
    <path d="M 1054,750 L 1055,752 L 1057,752 L 1055.5,753.2 L 1056,755 L 1054,753.8 L 1052,755 L 1052.5,753.2 L 1051,752 L 1053,752 Z" fill="#ef4444" stroke="#ffffff" stroke-width="0.3" />
    <path d="M 1030,762 L 1031,764 L 1033,764 L 1031.5,765.2 L 1032,767 L 1030,765.8 L 1028,767 L 1028.5,765.2 L 1027,764 L 1029,764 Z" fill="#ef4444" stroke="#ffffff" stroke-width="0.3" />
    <path d="M 1150,726 L 1151,728 L 1153,728 L 1151.5,729.2 L 1152,731 L 1150,729.8 L 1148,731 L 1148.5,729.2 L 1147,728 L 1149,728 Z" fill="#ef4444" stroke="#ffffff" stroke-width="0.3" />
    <path d="M 1126,738 L 1127,740 L 1129,740 L 1127.5,741.2 L 1128,743 L 1126,741.8 L 1124,743 L 1124.5,741.2 L 1123,740 L 1125,740 Z" fill="#ef4444" stroke="#ffffff" stroke-width="0.3" />
    <path d="M 1054,774 L 1055,776 L 1057,776 L 1055.5,777.2 L 1056,779 L 1054,777.8 L 1052,779 L 1052.5,777.2 L 1051,776 L 1053,776 Z" fill="#ef4444" stroke="#ffffff" stroke-width="0.3" />
    
          <path d="M 1003.6,796.4 C 1006.6,794.4 1009.6,794.4 1012.6,796.4 M 1006,802.4 C 1009,800.4 1012,800.4 1015,802.4" 
                stroke="#ffffff" stroke-width="1.0" fill="none" opacity="0.4" />
        
    
          <path d="M 1171.6,736.4 C 1174.6,734.4 1177.6,734.4 1180.6,736.4 M 1174,742.4 C 1177,740.4 1180,740.4 1183,742.4" 
                stroke="#ffffff" stroke-width="1.0" fill="none" opacity="0.4" />
        
    <path d="M 1150,750 L 1151,752 L 1153,752 L 1151.5,753.2 L 1152,755 L 1150,753.8 L 1148,755 L 1148.5,753.2 L 1147,752 L 1149,752 Z" fill="#ef4444" stroke="#ffffff" stroke-width="0.3" />
    <path d="M 1078,786 L 1079,788 L 1081,788 L 1079.5,789.2 L 1080,791 L 1078,789.8 L 1076,791 L 1076.5,789.2 L 1075,788 L 1077,788 Z" fill="#ef4444" stroke="#ffffff" stroke-width="0.3" />
    <path d="M 1054,798 L 1055,800 L 1057,800 L 1055.5,801.2 L 1056,803 L 1054,801.8 L 1052,803 L 1052.5,801.2 L 1051,800 L 1053,800 Z" fill="#ef4444" stroke="#ffffff" stroke-width="0.3" />
    <path d="M 1174,762 L 1175,764 L 1177,764 L 1175.5,765.2 L 1176,767 L 1174,765.8 L 1172,767 L 1172.5,765.2 L 1171,764 L 1173,764 Z" fill="#ef4444" stroke="#ffffff" stroke-width="0.3" />
    <path d="M 1102,798 L 1103,800 L 1105,800 L 1103.5,801.2 L 1104,803 L 1102,801.8 L 1100,803 L 1100.5,801.2 L 1099,800 L 1101,800 Z" fill="#ef4444" stroke="#ffffff" stroke-width="0.3" />
    <path d="M 1078,810 L 1079,812 L 1081,812 L 1079.5,813.2 L 1080,815 L 1078,813.8 L 1076,815 L 1076.5,813.2 L 1075,812 L 1077,812 Z" fill="#ef4444" stroke="#ffffff" stroke-width="0.3" />
    <path d="M 1198,774 L 1199,776 L 1201,776 L 1199.5,777.2 L 1200,779 L 1198,777.8 L 1196,779 L 1196.5,777.2 L 1195,776 L 1197,776 Z" fill="#ef4444" stroke="#ffffff" stroke-width="0.3" />
    <path d="M 1174,786 L 1175,788 L 1177,788 L 1175.5,789.2 L 1176,791 L 1174,789.8 L 1172,791 L 1172.5,789.2 L 1171,788 L 1173,788 Z" fill="#ef4444" stroke="#ffffff" stroke-width="0.3" />
    <path d="M 1102,822 L 1103,824 L 1105,824 L 1103.5,825.2 L 1104,827 L 1102,825.8 L 1100,827 L 1100.5,825.2 L 1099,824 L 1101,824 Z" fill="#ef4444" stroke="#ffffff" stroke-width="0.3" />
    
          <path d="M 1195.6,796.4 C 1198.6,794.4 1201.6,794.4 1204.6,796.4 M 1198,802.4 C 1201,800.4 1204,800.4 1207,802.4" 
                stroke="#ffffff" stroke-width="1.0" fill="none" opacity="0.4" />
        
    <path d="M 1126,834 L 1127,836 L 1129,836 L 1127.5,837.2 L 1128,839 L 1126,837.8 L 1124,839 L 1124.5,837.2 L 1123,836 L 1125,836 Z" fill="#ef4444" stroke="#ffffff" stroke-width="0.3" />
    <path d="M 1102,846 L 1103,848 L 1105,848 L 1103.5,849.2 L 1104,851 L 1102,849.8 L 1100,851 L 1100.5,849.2 L 1099,848 L 1101,848 Z" fill="#ef4444" stroke="#ffffff" stroke-width="0.3" />
    <path d="M 1222,810 L 1223,812 L 1225,812 L 1223.5,813.2 L 1224,815 L 1222,813.8 L 1220,815 L 1220.5,813.2 L 1219,812 L 1221,812 Z" fill="#ef4444" stroke="#ffffff" stroke-width="0.3" />
    <ellipse cx="1126" cy="861" rx="8" ry="4" fill="url(#island-shadow)" opacity="0.3" />
        <!-- Trunk -->
        <path d="M 1125,860 Q 1121.2,848 1118,836 L 1119,836 Q 1122.2,848 1127,860 Z" fill="#854d0e" />
        <!-- Leaves -->
        <g stroke="#166534" stroke-width="1.2" fill="none">
          <path d="M 1118,836 Q 1105.2,839.2 1102,845.6" />
          <path d="M 1118,836 Q 1130.8,839.2 1134,845.6" />
          <path d="M 1118,836 Q 1111.6,826.4 1108.4,820" fill="#22c55e" fill-opacity="0.1" />
          <path d="M 1118,836 Q 1124.4,826.4 1127.6,820" fill="#22c55e" fill-opacity="0.1" />
          <path d="M 1118,836 Q 1103.6,832.8 1098.8,829.6" />
          <path d="M 1118,836 Q 1132.4,832.8 1137.2,829.6" />
        </g>
      
    <ellipse cx="1294" cy="802" rx="18" ry="9" fill="url(#island-shadow)" opacity="0.4" />
    <path d="M 1284.784,798 L 1294,802.608 L 1294,785.808 L 1284.784,781.2 Z" fill="url(#lighthouse-white)" />
    <path d="M 1294,802.608 L 1303.216,798 L 1303.216,781.2 L 1294,785.808 Z" fill="#cbd5e1" />
    <path d="M 1294,776.5920000000001 L 1303.216,781.2 L 1294,785.808 L 1284.784,781.2 Z" fill="#ffffff" />
  
    <path d="M 1285.936,798 L 1294,802.032 L 1294,768.432 L 1285.936,764.4 Z" fill="url(#lighthouse-red)" />
    <path d="M 1294,802.032 L 1302.064,798 L 1302.064,764.4 L 1294,768.432 Z" fill="#b91c1c" />
    <path d="M 1294,760.3679999999999 L 1302.064,764.4 L 1294,768.432 L 1285.936,764.4 Z" fill="#ef4444" />
  
    <path d="M 1287.088,798 L 1294,801.456 L 1294,751.056 L 1287.088,747.6 Z" fill="url(#lighthouse-white)" />
    <path d="M 1294,801.456 L 1300.912,798 L 1300.912,747.6 L 1294,751.056 Z" fill="#cbd5e1" />
    <path d="M 1294,744.144 L 1300.912,747.6 L 1294,751.056 L 1287.088,747.6 Z" fill="#ffffff" />
  
    <path d="M 1288.24,798 L 1294,800.88 L 1294,733.68 L 1288.24,730.8 Z" fill="url(#lighthouse-red)" />
    <path d="M 1294,800.88 L 1299.76,798 L 1299.76,730.8 L 1294,733.68 Z" fill="#b91c1c" />
    <path d="M 1294,727.92 L 1299.76,730.8 L 1294,733.68 L 1288.24,730.8 Z" fill="#ef4444" />
  
    <path d="M 1286.896,798 L 1294,801.552 L 1294,731.952 L 1286.896,728.4 Z" fill="#0f172a" />
    <path d="M 1294,801.552 L 1301.104,798 L 1301.104,728.4 L 1294,731.952 Z" fill="#020617" />
    <path d="M 1294,724.848 L 1301.104,728.4 L 1294,731.952 L 1286.896,728.4 Z" fill="#1e293b" />
  
    <path d="M 1287.856,798 L 1294,801.072 L 1294,721.072 L 1287.856,718 Z" fill="#fbbf24" />
    <path d="M 1294,801.072 L 1300.144,798 L 1300.144,718 L 1294,721.072 Z" fill="#d97706" />
    <path d="M 1294,714.928 L 1300.144,718 L 1294,721.072 L 1287.856,718 Z" fill="#fef08a" />
  
    <path d="M 1287.376,798 L 1294,801.312 L 1294,718.112 L 1287.376,714.8 Z" fill="#0f172a" />
    <path d="M 1294,801.312 L 1300.624,798 L 1300.624,714.8 L 1294,718.112 Z" fill="#020617" />
    <path d="M 1294,711.4879999999999 L 1300.624,714.8 L 1294,718.112 L 1287.376,714.8 Z" fill="#1e293b" />
  
      <polygon points="1294,724.4 1404,604.4 1464,604.4" 
               fill="url(#beam-light)" opacity="0.5" />
      <circle cx="1294" cy="724.4" r="3" fill="#ffffff" filter="url(#neon-glow)" />
    
        <!-- Trunk -->
        <path d="M 1285,803 Q 1280.72,789.8 1277.2,776.6 L 1278.2,776.6 Q 1281.72,789.8 1287,803 Z" fill="#854d0e" />
        <!-- Leaves -->
        <g stroke="#166534" stroke-width="1.2" fill="none">
          <path d="M 1277.2,776.6 Q 1263.1200000000001,780.12 1259.6000000000001,787.1600000000001" />
          <path d="M 1277.2,776.6 Q 1291.28,780.12 1294.8,787.1600000000001" />
          <path d="M 1277.2,776.6 Q 1270.16,766.04 1266.64,759" fill="#22c55e" fill-opacity="0.1" />
          <path d="M 1277.2,776.6 Q 1284.24,766.04 1287.76,759" fill="#22c55e" fill-opacity="0.1" />
          <path d="M 1277.2,776.6 Q 1261.3600000000001,773.08 1256.08,769.5600000000001" />
          <path d="M 1277.2,776.6 Q 1293.04,773.08 1298.3200000000002,769.5600000000001" />
        </g>
      
    <path d="M 1297.12,803 L 1300,804.44 L 1300,801.44 L 1297.12,800 Z" fill="#ca8a04" />
    <path d="M 1300,804.44 L 1302.88,803 L 1302.88,800 L 1300,801.44 Z" fill="#451a03" />
    <path d="M 1300,798.56 L 1302.88,800 L 1300,801.44 L 1297.12,800 Z" fill="#78350f" />
  
    <ellipse cx="1270" cy="814" rx="14" ry="7" fill="url(#island-shadow)" opacity="0.35" />
    <path d="M 1266.8,809 L 1274,812.6 L 1274,803 L 1266.8,799.4 Z" fill="#78350f" />
    <path d="M 1274,812.6 L 1281.2,809 L 1281.2,799.4 L 1274,803 Z" fill="#451a03" />
    <path d="M 1274,795.8 L 1281.2,799.4 L 1274,803 L 1266.8,799.4 Z" fill="#b45309" />
  
        <path d="M 1265.84,799.4 L 1274,791.4 L 1274,803.48 Z" fill="#fef08a" />
        <path d="M 1274,803.48 L 1274,791.4 L 1282.16,799.4 Z" fill="#facc15" />
      
        <!-- Trunk -->
        <path d="M 1264,814 Q 1260.44,802.6 1257.4,791.2 L 1258.4,791.2 Q 1261.44,802.6 1266,814 Z" fill="#854d0e" />
        <!-- Leaves -->
        <g stroke="#166534" stroke-width="1.2" fill="none">
          <path d="M 1257.4,791.2 Q 1245.24,794.24 1242.2,800.32" />
          <path d="M 1257.4,791.2 Q 1269.5600000000002,794.24 1272.6000000000001,800.32" />
          <path d="M 1257.4,791.2 Q 1251.3200000000002,782.08 1248.2800000000002,776" fill="#22c55e" fill-opacity="0.1" />
          <path d="M 1257.4,791.2 Q 1263.48,782.08 1266.52,776" fill="#22c55e" fill-opacity="0.1" />
          <path d="M 1257.4,791.2 Q 1243.72,788.1600000000001 1239.16,785.12" />
          <path d="M 1257.4,791.2 Q 1271.0800000000002,788.1600000000001 1275.64,785.12" />
        </g>
      
        <!-- Trunk -->
        <path d="M 1270,816 Q 1267.64,807.6 1265.4,799.2 L 1266.4,799.2 Q 1268.64,807.6 1272,816 Z" fill="#854d0e" />
        <!-- Leaves -->
        <g stroke="#166534" stroke-width="1.2" fill="none">
          <path d="M 1265.4,799.2 Q 1256.44,801.44 1254.2,805.9200000000001" />
          <path d="M 1265.4,799.2 Q 1274.3600000000001,801.44 1276.6000000000001,805.9200000000001" />
          <path d="M 1265.4,799.2 Q 1260.92,792.48 1258.68,788" fill="#22c55e" fill-opacity="0.1" />
          <path d="M 1265.4,799.2 Q 1269.88,792.48 1272.1200000000001,788" fill="#22c55e" fill-opacity="0.1" />
          <path d="M 1265.4,799.2 Q 1255.3200000000002,796.96 1251.96,794.72" />
          <path d="M 1265.4,799.2 Q 1275.48,796.96 1278.8400000000001,794.72" />
        </g>
      
    
          <path d="M 1171.6,856.4 C 1174.6,854.4 1177.6,854.4 1180.6,856.4 M 1174,862.4 C 1177,860.4 1180,860.4 1183,862.4" 
                stroke="#ffffff" stroke-width="1.0" fill="none" opacity="0.4" />
        
    <ellipse cx="1150" cy="874" rx="18" ry="9" fill="url(#island-shadow)" opacity="0.4" />
    <path d="M 1140.784,870 L 1150,874.608 L 1150,857.808 L 1140.784,853.2 Z" fill="url(#lighthouse-white)" />
    <path d="M 1150,874.608 L 1159.216,870 L 1159.216,853.2 L 1150,857.808 Z" fill="#cbd5e1" />
    <path d="M 1150,848.5920000000001 L 1159.216,853.2 L 1150,857.808 L 1140.784,853.2 Z" fill="#ffffff" />
  
    <path d="M 1141.936,870 L 1150,874.032 L 1150,840.432 L 1141.936,836.4 Z" fill="url(#lighthouse-red)" />
    <path d="M 1150,874.032 L 1158.064,870 L 1158.064,836.4 L 1150,840.432 Z" fill="#b91c1c" />
    <path d="M 1150,832.3679999999999 L 1158.064,836.4 L 1150,840.432 L 1141.936,836.4 Z" fill="#ef4444" />
  
    <path d="M 1143.088,870 L 1150,873.456 L 1150,823.056 L 1143.088,819.6 Z" fill="url(#lighthouse-white)" />
    <path d="M 1150,873.456 L 1156.912,870 L 1156.912,819.6 L 1150,823.056 Z" fill="#cbd5e1" />
    <path d="M 1150,816.144 L 1156.912,819.6 L 1150,823.056 L 1143.088,819.6 Z" fill="#ffffff" />
  
    <path d="M 1144.24,870 L 1150,872.88 L 1150,805.68 L 1144.24,802.8 Z" fill="url(#lighthouse-red)" />
    <path d="M 1150,872.88 L 1155.76,870 L 1155.76,802.8 L 1150,805.68 Z" fill="#b91c1c" />
    <path d="M 1150,799.92 L 1155.76,802.8 L 1150,805.68 L 1144.24,802.8 Z" fill="#ef4444" />
  
    <path d="M 1142.896,870 L 1150,873.552 L 1150,803.952 L 1142.896,800.4 Z" fill="#0f172a" />
    <path d="M 1150,873.552 L 1157.104,870 L 1157.104,800.4 L 1150,803.952 Z" fill="#020617" />
    <path d="M 1150,796.848 L 1157.104,800.4 L 1150,803.952 L 1142.896,800.4 Z" fill="#1e293b" />
  
    <path d="M 1143.856,870 L 1150,873.072 L 1150,793.072 L 1143.856,790 Z" fill="#fbbf24" />
    <path d="M 1150,873.072 L 1156.144,870 L 1156.144,790 L 1150,793.072 Z" fill="#d97706" />
    <path d="M 1150,786.928 L 1156.144,790 L 1150,793.072 L 1143.856,790 Z" fill="#fef08a" />
  
    <path d="M 1143.376,870 L 1150,873.312 L 1150,790.112 L 1143.376,786.8 Z" fill="#0f172a" />
    <path d="M 1150,873.312 L 1156.624,870 L 1156.624,786.8 L 1150,790.112 Z" fill="#020617" />
    <path d="M 1150,783.4879999999999 L 1156.624,786.8 L 1150,790.112 L 1143.376,786.8 Z" fill="#1e293b" />
  
      <polygon points="1150,796.4 1260,676.4 1320,676.4" 
               fill="url(#beam-light)" opacity="0.5" />
      <circle cx="1150" cy="796.4" r="3" fill="#ffffff" filter="url(#neon-glow)" />
    
        <!-- Trunk -->
        <path d="M 1141,875 Q 1136.72,861.8 1133.2,848.6 L 1134.2,848.6 Q 1137.72,861.8 1143,875 Z" fill="#854d0e" />
        <!-- Leaves -->
        <g stroke="#166534" stroke-width="1.2" fill="none">
          <path d="M 1133.2,848.6 Q 1119.1200000000001,852.12 1115.6000000000001,859.1600000000001" />
          <path d="M 1133.2,848.6 Q 1147.28,852.12 1150.8,859.1600000000001" />
          <path d="M 1133.2,848.6 Q 1126.16,838.04 1122.64,831" fill="#22c55e" fill-opacity="0.1" />
          <path d="M 1133.2,848.6 Q 1140.24,838.04 1143.76,831" fill="#22c55e" fill-opacity="0.1" />
          <path d="M 1133.2,848.6 Q 1117.3600000000001,845.08 1112.08,841.5600000000001" />
          <path d="M 1133.2,848.6 Q 1149.04,845.08 1154.3200000000002,841.5600000000001" />
        </g>
      
    <path d="M 1153.12,875 L 1156,876.44 L 1156,873.44 L 1153.12,872 Z" fill="#ca8a04" />
    <path d="M 1156,876.44 L 1158.88,875 L 1158.88,872 L 1156,873.44 Z" fill="#451a03" />
    <path d="M 1156,870.56 L 1158.88,872 L 1156,873.44 L 1153.12,872 Z" fill="#78350f" />
  
    <path d="M 1270,834 L 1271,836 L 1273,836 L 1271.5,837.2 L 1272,839 L 1270,837.8 L 1268,839 L 1268.5,837.2 L 1267,836 L 1269,836 Z" fill="#ef4444" stroke="#ffffff" stroke-width="0.3" />
    
          <path d="M 1219.6,856.4 C 1222.6,854.4 1225.6,854.4 1228.6,856.4 M 1222,862.4 C 1225,860.4 1228,860.4 1231,862.4" 
                stroke="#ffffff" stroke-width="1.0" fill="none" opacity="0.4" />
        
    <path d="M 1174,882 L 1175,884 L 1177,884 L 1175.5,885.2 L 1176,887 L 1174,885.8 L 1172,887 L 1172.5,885.2 L 1171,884 L 1173,884 Z" fill="#ef4444" stroke="#ffffff" stroke-width="0.3" />
    <path d="M 1342,822 L 1343,824 L 1345,824 L 1343.5,825.2 L 1344,827 L 1342,825.8 L 1340,827 L 1340.5,825.2 L 1339,824 L 1341,824 Z" fill="#ef4444" stroke="#ffffff" stroke-width="0.3" />
    <path d="M 1270,858 L 1271,860 L 1273,860 L 1271.5,861.2 L 1272,863 L 1270,861.8 L 1268,863 L 1268.5,861.2 L 1267,860 L 1269,860 Z" fill="#ef4444" stroke="#ffffff" stroke-width="0.3" />
    <path d="M 1198,894 L 1199,896 L 1201,896 L 1199.5,897.2 L 1200,899 L 1198,897.8 L 1196,899 L 1196.5,897.2 L 1195,896 L 1197,896 Z" fill="#ef4444" stroke="#ffffff" stroke-width="0.3" />
    <path d="M 1366,834 L 1367,836 L 1369,836 L 1367.5,837.2 L 1368,839 L 1366,837.8 L 1364,839 L 1364.5,837.2 L 1363,836 L 1365,836 Z" fill="#ef4444" stroke="#ffffff" stroke-width="0.3" />
    
          <path d="M 1315.6,856.4 C 1318.6,854.4 1321.6,854.4 1324.6,856.4 M 1318,862.4 C 1321,860.4 1324,860.4 1327,862.4" 
                stroke="#ffffff" stroke-width="1.0" fill="none" opacity="0.4" />
        
    <path d="M 1390,846 L 1391,848 L 1393,848 L 1391.5,849.2 L 1392,851 L 1390,849.8 L 1388,851 L 1388.5,849.2 L 1387,848 L 1389,848 Z" fill="#ef4444" stroke="#ffffff" stroke-width="0.3" />
    
          <path d="M 1363.6,856.4 C 1366.6,854.4 1369.6,854.4 1372.6,856.4 M 1366,862.4 C 1369,860.4 1372,860.4 1375,862.4" 
                stroke="#ffffff" stroke-width="1.0" fill="none" opacity="0.4" />
        
    <path d="M 1318,882 L 1319,884 L 1321,884 L 1319.5,885.2 L 1320,887 L 1318,885.8 L 1316,887 L 1316.5,885.2 L 1315,884 L 1317,884 Z" fill="#ef4444" stroke="#ffffff" stroke-width="0.3" />
    <path d="M 1390,870 L 1391,872 L 1393,872 L 1391.5,873.2 L 1392,875 L 1390,873.8 L 1388,875 L 1388.5,873.2 L 1387,872 L 1389,872 Z" fill="#ef4444" stroke="#ffffff" stroke-width="0.3" />
    <path d="M 1318,906 L 1319,908 L 1321,908 L 1319.5,909.2 L 1320,911 L 1318,909.8 L 1316,911 L 1316.5,909.2 L 1315,908 L 1317,908 Z" fill="#ef4444" stroke="#ffffff" stroke-width="0.3" />
    <ellipse cx="1294" cy="921" rx="8" ry="4" fill="url(#island-shadow)" opacity="0.3" />
        <!-- Trunk -->
        <path d="M 1293,920 Q 1289.2,908 1286,896 L 1287,896 Q 1290.2,908 1295,920 Z" fill="#854d0e" />
        <!-- Leaves -->
        <g stroke="#166534" stroke-width="1.2" fill="none">
          <path d="M 1286,896 Q 1273.2,899.2 1270,905.6" />
          <path d="M 1286,896 Q 1298.8,899.2 1302,905.6" />
          <path d="M 1286,896 Q 1279.6,886.4 1276.4,880" fill="#22c55e" fill-opacity="0.1" />
          <path d="M 1286,896 Q 1292.4,886.4 1295.6,880" fill="#22c55e" fill-opacity="0.1" />
          <path d="M 1286,896 Q 1271.6,892.8 1266.8,889.6" />
          <path d="M 1286,896 Q 1300.4,892.8 1305.2,889.6" />
        </g>
      
    <path d="M 1438,870 L 1439,872 L 1441,872 L 1439.5,873.2 L 1440,875 L 1438,873.8 L 1436,875 L 1436.5,873.2 L 1435,872 L 1437,872 Z" fill="#ef4444" stroke="#ffffff" stroke-width="0.3" />
    
          <path d="M 1411.6,880.4 C 1414.6,878.4 1417.6,878.4 1420.6,880.4 M 1414,886.4 C 1417,884.4 1420,884.4 1423,886.4" 
                stroke="#ffffff" stroke-width="1.0" fill="none" opacity="0.4" />
        
    <path d="M 1342,918 L 1343,920 L 1345,920 L 1343.5,921.2 L 1344,923 L 1342,921.8 L 1340,923 L 1340.5,921.2 L 1339,920 L 1341,920 Z" fill="#ef4444" stroke="#ffffff" stroke-width="0.3" />
    <path d="M 1318,930 L 1319,932 L 1321,932 L 1319.5,933.2 L 1320,935 L 1318,933.8 L 1316,935 L 1316.5,933.2 L 1315,932 L 1317,932 Z" fill="#ef4444" stroke="#ffffff" stroke-width="0.3" />
  </g>

  <!-- Legend (Activity Level) -->
  <g transform="translate(1220, 1005)">
    <text x="0" y="8" class="legend-text" text-anchor="end">Less</text>
    
    <g transform="translate(10, 0)">
      <use href="#tile-0" x="10" y="0" />
    </g>
    
    <g transform="translate(45, 0)">
      <use href="#tile-1" x="10" y="0" />
      
    </g>
    
    <g transform="translate(80, 0)">
      <use href="#tile-2" x="10" y="0" />
      <ellipse cx="10" cy="1" rx="8" ry="4" fill="url(#island-shadow)" opacity="0.3" />
        <!-- Trunk -->
        <path d="M 9,0 Q 6.16,-9.6 3.5999999999999996,-19.2 L 4.6,-19.2 Q 7.16,-9.6 11,0 Z" fill="#854d0e" />
        <!-- Leaves -->
        <g stroke="#166534" stroke-width="1.2" fill="none">
          <path d="M 3.5999999999999996,-19.2 Q -6.640000000000001,-16.64 -9.200000000000001,-11.52" />
          <path d="M 3.5999999999999996,-19.2 Q 13.84,-16.64 16.4,-11.52" />
          <path d="M 3.5999999999999996,-19.2 Q -1.5200000000000005,-26.88 -4.08,-32" fill="#22c55e" fill-opacity="0.1" />
          <path d="M 3.5999999999999996,-19.2 Q 8.719999999999999,-26.88 11.28,-32" fill="#22c55e" fill-opacity="0.1" />
          <path d="M 3.5999999999999996,-19.2 Q -7.92,-21.759999999999998 -11.76,-24.32" />
          <path d="M 3.5999999999999996,-19.2 Q 15.12,-21.759999999999998 18.96,-24.32" />
        </g>
      
    </g>
    
    <g transform="translate(115, 0)">
      <use href="#tile-3" x="10" y="0" />
      <ellipse cx="10" cy="2" rx="14" ry="7" fill="url(#island-shadow)" opacity="0.35" />
    <path d="M 6.800000000000001,-3 L 14,0.5999999999999996 L 14,-9.000000000000002 L 6.800000000000001,-12.600000000000001 Z" fill="#78350f" />
    <path d="M 14,0.5999999999999996 L 21.2,-3 L 21.2,-12.600000000000001 L 14,-9.000000000000002 Z" fill="#451a03" />
    <path d="M 14,-16.200000000000003 L 21.2,-12.600000000000001 L 14,-9.000000000000002 L 6.800000000000001,-12.600000000000001 Z" fill="#b45309" />
  
        <path d="M 5.84,-12.600000000000001 L 14,-20.6 L 14,-8.520000000000001 Z" fill="#fef08a" />
        <path d="M 14,-8.520000000000001 L 14,-20.6 L 22.16,-12.600000000000001 Z" fill="#facc15" />
      
        <!-- Trunk -->
        <path d="M 4,2 Q 0.4399999999999995,-9.4 -2.5999999999999996,-20.8 L -1.5999999999999996,-20.8 Q 1.4399999999999995,-9.4 6,2 Z" fill="#854d0e" />
        <!-- Leaves -->
        <g stroke="#166534" stroke-width="1.2" fill="none">
          <path d="M -2.5999999999999996,-20.8 Q -14.76,-17.76 -17.799999999999997,-11.68" />
          <path d="M -2.5999999999999996,-20.8 Q 9.56,-17.76 12.6,-11.68" />
          <path d="M -2.5999999999999996,-20.8 Q -8.68,-29.92 -11.72,-36" fill="#22c55e" fill-opacity="0.1" />
          <path d="M -2.5999999999999996,-20.8 Q 3.4800000000000004,-29.92 6.520000000000001,-36" fill="#22c55e" fill-opacity="0.1" />
          <path d="M -2.5999999999999996,-20.8 Q -16.28,-23.84 -20.840000000000003,-26.880000000000003" />
          <path d="M -2.5999999999999996,-20.8 Q 11.08,-23.84 15.640000000000002,-26.880000000000003" />
        </g>
      
        <!-- Trunk -->
        <path d="M 10,4 Q 7.640000000000001,-4.399999999999999 5.4,-12.799999999999997 L 6.4,-12.799999999999997 Q 8.64,-4.399999999999999 12,4 Z" fill="#854d0e" />
        <!-- Leaves -->
        <g stroke="#166534" stroke-width="1.2" fill="none">
          <path d="M 5.4,-12.799999999999997 Q -3.5599999999999987,-10.559999999999997 -5.799999999999999,-6.079999999999998" />
          <path d="M 5.4,-12.799999999999997 Q 14.36,-10.559999999999997 16.6,-6.079999999999998" />
          <path d="M 5.4,-12.799999999999997 Q 0.9200000000000008,-19.519999999999996 -1.3199999999999985,-23.999999999999996" fill="#22c55e" fill-opacity="0.1" />
          <path d="M 5.4,-12.799999999999997 Q 9.879999999999999,-19.519999999999996 12.12,-23.999999999999996" fill="#22c55e" fill-opacity="0.1" />
          <path d="M 5.4,-12.799999999999997 Q -4.679999999999998,-15.039999999999997 -8.039999999999997,-17.279999999999998" />
          <path d="M 5.4,-12.799999999999997 Q 15.479999999999999,-15.039999999999997 18.839999999999996,-17.279999999999998" />
        </g>
      
    </g>
    
    <g transform="translate(150, 0)">
      <use href="#tile-4" x="10" y="0" />
      <ellipse cx="10" cy="2" rx="18" ry="9" fill="url(#island-shadow)" opacity="0.4" />
    <path d="M 0.7839999999999989,-2 L 10,2.6080000000000005 L 10,-14.192 L 0.7839999999999989,-18.8 Z" fill="url(#lighthouse-white)" />
    <path d="M 10,2.6080000000000005 L 19.216,-2 L 19.216,-18.8 L 10,-14.192 Z" fill="#cbd5e1" />
    <path d="M 10,-23.408 L 19.216,-18.8 L 10,-14.192 L 0.7839999999999989,-18.8 Z" fill="#ffffff" />
  
    <path d="M 1.936,-2 L 10,2.032 L 10,-31.568 L 1.936,-35.6 Z" fill="url(#lighthouse-red)" />
    <path d="M 10,2.032 L 18.064,-2 L 18.064,-35.6 L 10,-31.568 Z" fill="#b91c1c" />
    <path d="M 10,-39.632000000000005 L 18.064,-35.6 L 10,-31.568 L 1.936,-35.6 Z" fill="#ef4444" />
  
    <path d="M 3.088000000000001,-2 L 10,1.4559999999999995 L 10,-48.944 L 3.088000000000001,-52.400000000000006 Z" fill="url(#lighthouse-white)" />
    <path d="M 10,1.4559999999999995 L 16.912,-2 L 16.912,-52.400000000000006 L 10,-48.944 Z" fill="#cbd5e1" />
    <path d="M 10,-55.85600000000001 L 16.912,-52.400000000000006 L 10,-48.944 L 3.088000000000001,-52.400000000000006 Z" fill="#ffffff" />
  
    <path d="M 4.24,-2 L 10,0.8799999999999999 L 10,-66.32000000000001 L 4.24,-69.2 Z" fill="url(#lighthouse-red)" />
    <path d="M 10,0.8799999999999999 L 15.76,-2 L 15.76,-69.2 L 10,-66.32000000000001 Z" fill="#b91c1c" />
    <path d="M 10,-72.08 L 15.76,-69.2 L 10,-66.32000000000001 L 4.24,-69.2 Z" fill="#ef4444" />
  
    <path d="M 2.896000000000001,-2 L 10,1.5519999999999996 L 10,-68.048 L 2.896000000000001,-71.60000000000001 Z" fill="#0f172a" />
    <path d="M 10,1.5519999999999996 L 17.104,-2 L 17.104,-71.60000000000001 L 10,-68.048 Z" fill="#020617" />
    <path d="M 10,-75.15200000000002 L 17.104,-71.60000000000001 L 10,-68.048 L 2.896000000000001,-71.60000000000001 Z" fill="#1e293b" />
  
    <path d="M 3.856,-2 L 10,1.072 L 10,-78.928 L 3.856,-82 Z" fill="#fbbf24" />
    <path d="M 10,1.072 L 16.144,-2 L 16.144,-82 L 10,-78.928 Z" fill="#d97706" />
    <path d="M 10,-85.072 L 16.144,-82 L 10,-78.928 L 3.856,-82 Z" fill="#fef08a" />
  
    <path d="M 3.3759999999999994,-2 L 10,1.3120000000000003 L 10,-81.888 L 3.3759999999999994,-85.2 Z" fill="#0f172a" />
    <path d="M 10,1.3120000000000003 L 16.624000000000002,-2 L 16.624000000000002,-85.2 L 10,-81.888 Z" fill="#020617" />
    <path d="M 10,-88.512 L 16.624000000000002,-85.2 L 10,-81.888 L 3.3759999999999994,-85.2 Z" fill="#1e293b" />
  
      <polygon points="10,-75.60000000000001 120,-195.60000000000002 180,-195.60000000000002" 
               fill="url(#beam-light)" opacity="0.5" />
      <circle cx="10" cy="-75.60000000000001" r="3" fill="#ffffff" filter="url(#neon-glow)" />
    
        <!-- Trunk -->
        <path d="M 1,3 Q -3.280000000000001,-10.200000000000001 -6.800000000000001,-23.400000000000002 L -5.800000000000001,-23.400000000000002 Q -2.280000000000001,-10.200000000000001 3,3 Z" fill="#854d0e" />
        <!-- Leaves -->
        <g stroke="#166534" stroke-width="1.2" fill="none">
          <path d="M -6.800000000000001,-23.400000000000002 Q -20.880000000000003,-19.880000000000003 -24.400000000000002,-12.84" />
          <path d="M -6.800000000000001,-23.400000000000002 Q 7.280000000000001,-19.880000000000003 10.8,-12.84" />
          <path d="M -6.800000000000001,-23.400000000000002 Q -13.840000000000002,-33.96000000000001 -17.360000000000003,-41" fill="#22c55e" fill-opacity="0.1" />
          <path d="M -6.800000000000001,-23.400000000000002 Q 0.2400000000000002,-33.96000000000001 3.7600000000000016,-41" fill="#22c55e" fill-opacity="0.1" />
          <path d="M -6.800000000000001,-23.400000000000002 Q -22.64,-26.92 -27.920000000000005,-30.440000000000005" />
          <path d="M -6.800000000000001,-23.400000000000002 Q 9.040000000000001,-26.92 14.320000000000004,-30.440000000000005" />
        </g>
      
    <path d="M 13.120000000000001,3 L 16,4.4399999999999995 L 16,1.4399999999999995 L 13.120000000000001,0 Z" fill="#ca8a04" />
    <path d="M 16,4.4399999999999995 L 18.88,3 L 18.88,0 L 16,1.4399999999999995 Z" fill="#451a03" />
    <path d="M 16,-1.44 L 18.88,0 L 16,1.4399999999999995 L 13.120000000000001,0 Z" fill="#78350f" />
  
    </g>

    <text x="195" y="8" class="legend-text">More</text>
  </g>

  <!-- Island-Specific Legend -->
  <g transform="translate(60, 1005)">
    <g transform="translate(10, 0)">
      <use href="#tile-0" x="10" y="0" />
    </g>
    <text x="35" y="8" class="legend-text">Meerwasser (Level 0)</text>

    <g transform="translate(190, 0)">
      <use href="#tile-1" x="10" y="0" />
    </g>
    <text x="215" y="8" class="legend-text">Sandbänke (Level 1)</text>

    <g transform="translate(370, 0)">
      <use href="#tile-2" x="10" y="0" />
      <ellipse cx="10" cy="1" rx="8" ry="4" fill="url(#island-shadow)" opacity="0.3" />
        <!-- Trunk -->
        <path d="M 9,0 Q 6.16,-9.6 3.5999999999999996,-19.2 L 4.6,-19.2 Q 7.16,-9.6 11,0 Z" fill="#854d0e" />
        <!-- Leaves -->
        <g stroke="#166534" stroke-width="1.2" fill="none">
          <path d="M 3.5999999999999996,-19.2 Q -6.640000000000001,-16.64 -9.200000000000001,-11.52" />
          <path d="M 3.5999999999999996,-19.2 Q 13.84,-16.64 16.4,-11.52" />
          <path d="M 3.5999999999999996,-19.2 Q -1.5200000000000005,-26.88 -4.08,-32" fill="#22c55e" fill-opacity="0.1" />
          <path d="M 3.5999999999999996,-19.2 Q 8.719999999999999,-26.88 11.28,-32" fill="#22c55e" fill-opacity="0.1" />
          <path d="M 3.5999999999999996,-19.2 Q -7.92,-21.759999999999998 -11.76,-24.32" />
          <path d="M 3.5999999999999996,-19.2 Q 15.12,-21.759999999999998 18.96,-24.32" />
        </g>
      
    </g>
    <text x="395" y="8" class="legend-text">Inseln mit Palmen/Gebäuden (Level 2-4)</text>
  </g>

</svg>
