<?xml version="1.0" encoding="UTF-8" standalone="no"?>
<svg xmlns="http://www.w3.org/2000/svg" 
     viewBox="0 0 1580 1060" 
     width="1580" 
     height="1060">
  <style>
    .title {
      font-family: 'Outfit', 'Inter', -apple-system, BlinkMacSystemFont, "Segoe UI", sans-serif;
      font-size: 26px;
      font-weight: 800;
      fill: #0c4a6e;
      letter-spacing: -0.5px;
    }
    .subtitle {
      font-family: 'Inter', -apple-system, BlinkMacSystemFont, "Segoe UI", sans-serif;
      font-size: 14px;
      font-weight: 500;
      fill: #0369a1;
    }
    .legend-text {
      font-family: 'Inter', -apple-system, BlinkMacSystemFont, "Segoe UI", sans-serif;
      font-size: 12px;
      font-weight: 500;
      fill: #0369a1;
    }
  </style>

  <defs>
    <!-- Background Gradient -->
    <linearGradient id="bg-gradient" x1="0%" y1="0%" x2="100%" y2="100%">
      <stop offset="0%" stop-color="#e0f2fe" />
      <stop offset="100%" stop-color="#bae6fd" />
    </linearGradient>
    
    <radialGradient id="island-shadow" cx="50%" cy="50%" r="50%">
      <stop offset="0%" stop-color="#0284c7" stop-opacity="0.5" />
      <stop offset="100%" stop-color="#0284c7" stop-opacity="0" />
    </radialGradient>
    <radialGradient id="island-shadow-dark" cx="50%" cy="50%" r="50%">
      <stop offset="0%" stop-color="#0c4a6e" stop-opacity="0.8" />
      <stop offset="100%" stop-color="#0c4a6e" stop-opacity="0" />
    </radialGradient>
    <linearGradient id="lighthouse-red" x1="0%" y1="0%" x2="100%" y2="0%">
      <stop offset="0%" stop-color="#ef4444" />
      <stop offset="50%" stop-color="#f87171" />
      <stop offset="100%" stop-color="#991b1b" />
    </linearGradient>
    <linearGradient id="lighthouse-white" x1="0%" y1="0%" x2="100%" y2="0%">
      <stop offset="0%" stop-color="#f1f5f9" />
      <stop offset="50%" stop-color="#ffffff" />
      <stop offset="100%" stop-color="#cbd5e1" />
    </linearGradient>
    <linearGradient id="beam-light" x1="0%" y1="100%" x2="0%" y2="0%">
      <stop offset="0%" stop-color="#fef08a" stop-opacity="0.35" />
      <stop offset="80%" stop-color="#fef08a" stop-opacity="0.05" />
      <stop offset="100%" stop-color="#fef08a" stop-opacity="0" />
    </linearGradient>
  
    
    <!-- Theme Tile Symbols -->
    
    <g id="tile-0">
      <path d="M -24,0 L 0,12 L 0,15 L -24,3 Z" fill="#0274af" />
      <path d="M 0,12 L 24,0 L 24,3 L 0,15 Z" fill="#016497" />
      <path d="M 0,-12 L 24,0 L 0,12 L -24,0 Z" fill="#0284c7" />
      
    </g>
  

    <g id="tile-1">
      <path d="M -24,0 L 0,12 L 0,17 L -24,5 Z" fill="#eab308" />
      <path d="M 0,12 L 24,0 L 24,5 L 0,17 Z" fill="#ca8a04" />
      <path d="M 0,-12 L 24,0 L 0,12 L -24,0 Z" fill="#fef08a" />
      
    </g>
  

          <g id="tile-2">
            <path d="M -24,0 L 0,12 L 0,18 L -24,6 Z" fill="#eab308" />
            <path d="M 0,12 L 24,0 L 24,6 L 0,18 Z" fill="#ca8a04" />
            <path d="M 0,-12 L 24,0 L 0,12 L -24,0 Z" fill="#fef08a" />
            <path d="M 0,-10.2 L 20.4,0 L 0,10.2 L -20.4,0 Z" fill="#86efac" />
          </g>
        

          <g id="tile-3">
            <path d="M -24,0 L 0,12 L 0,19 L -24,7 Z" fill="#ca8a04" />
            <path d="M 0,12 L 24,0 L 24,7 L 0,19 Z" fill="#a16207" />
            <path d="M 0,-12 L 24,0 L 0,12 L -24,0 Z" fill="#fef08a" />
            <path d="M 0,-10.2 L 20.4,0 L 0,10.2 L -20.4,0 Z" fill="#4ade80" />
          </g>
        

          <g id="tile-4">
            <path d="M -24,0 L 0,12 L 0,20 L -24,8 Z" fill="#a16207" />
            <path d="M 0,12 L 24,0 L 24,8 L 0,20 Z" fill="#854d0e" />
            <path d="M 0,-12 L 24,0 L 0,12 L -24,0 Z" fill="#fef08a" />
            <path d="M 0,-10.2 L 20.4,0 L 0,10.2 L -20.4,0 Z" fill="#22c55e" />
          </g>
        
  </defs>

  <!-- Background -->
  <rect width="100%" height="100%" fill="url(#bg-gradient)" rx="16" />

  <!-- Header -->
  <g transform="translate(60, 65)">
    <text x="0" y="0" class="title">HUSKYNARR'S GITHUB ACTIVITY</text>
    <text x="0" y="24" class="subtitle">Theme: Island • Total Contributions: 2,255 in the last year</text>
  </g>
  <!-- Isometric Grid Tiles & Objects -->
  <g>
    <use href="#tile-0" x="214" y="260" />
    <use href="#tile-0" x="190" y="272" />
    <use href="#tile-0" x="166" y="284" />
    <use href="#tile-0" x="142" y="296" />
    <use href="#tile-0" x="118" y="308" />
    <use href="#tile-0" x="94" y="320" />
    <use href="#tile-1" x="70" y="332" />
    <use href="#tile-1" x="238" y="272" />
    <use href="#tile-0" x="214" y="284" />
    <use href="#tile-0" x="190" y="296" />
    <use href="#tile-0" x="166" y="308" />
    <use href="#tile-0" x="142" y="320" />
    <use href="#tile-0" x="118" y="332" />
    <use href="#tile-0" x="94" y="344" />
    <use href="#tile-1" x="262" y="284" />
    <use href="#tile-0" x="238" y="296" />
    <use href="#tile-0" x="214" y="308" />
    <use href="#tile-0" x="190" y="320" />
    <use href="#tile-0" x="166" y="332" />
    <use href="#tile-1" x="142" y="344" />
    <use href="#tile-0" x="118" y="356" />
    <use href="#tile-0" x="286" y="296" />
    <use href="#tile-0" x="262" y="308" />
    <use href="#tile-0" x="238" y="320" />
    <use href="#tile-0" x="214" y="332" />
    <use href="#tile-0" x="190" y="344" />
    <use href="#tile-0" x="166" y="356" />
    <use href="#tile-0" x="142" y="368" />
    <use href="#tile-0" x="310" y="308" />
    <use href="#tile-0" x="286" y="320" />
    <use href="#tile-0" x="262" y="332" />
    <use href="#tile-0" x="238" y="344" />
    <use href="#tile-0" x="214" y="356" />
    <use href="#tile-0" x="190" y="368" />
    <use href="#tile-0" x="166" y="380" />
    <use href="#tile-0" x="334" y="320" />
    <use href="#tile-0" x="310" y="332" />
    <use href="#tile-0" x="286" y="344" />
    <use href="#tile-0" x="262" y="356" />
    <use href="#tile-0" x="238" y="368" />
    <use href="#tile-0" x="214" y="380" />
    <use href="#tile-0" x="190" y="392" />
    <use href="#tile-0" x="358" y="332" />
    <use href="#tile-0" x="334" y="344" />
    <use href="#tile-0" x="310" y="356" />
    <use href="#tile-0" x="286" y="368" />
    <use href="#tile-0" x="262" y="380" />
    <use href="#tile-0" x="238" y="392" />
    <use href="#tile-0" x="214" y="404" />
    <use href="#tile-0" x="382" y="344" />
    <use href="#tile-0" x="358" y="356" />
    <use href="#tile-0" x="334" y="368" />
    <use href="#tile-0" x="310" y="380" />
    <use href="#tile-1" x="286" y="392" />
    <use href="#tile-0" x="262" y="404" />
    <use href="#tile-0" x="238" y="416" />
    <use href="#tile-1" x="406" y="356" />
    <use href="#tile-0" x="382" y="368" />
    <use href="#tile-1" x="358" y="380" />
    <use href="#tile-0" x="334" y="392" />
    <use href="#tile-0" x="310" y="404" />
    <use href="#tile-0" x="286" y="416" />
    <use href="#tile-0" x="262" y="428" />
    <use href="#tile-0" x="430" y="368" />
    <use href="#tile-1" x="406" y="380" />
    <use href="#tile-0" x="382" y="392" />
    <use href="#tile-0" x="358" y="404" />
    <use href="#tile-0" x="334" y="416" />
    <use href="#tile-0" x="310" y="428" />
    <use href="#tile-0" x="286" y="440" />
    <use href="#tile-0" x="454" y="380" />
    <use href="#tile-0" x="430" y="392" />
    <use href="#tile-1" x="406" y="404" />
    <use href="#tile-1" x="382" y="416" />
    <use href="#tile-1" x="358" y="428" />
    <use href="#tile-0" x="334" y="440" />
    <use href="#tile-0" x="310" y="452" />
    <use href="#tile-0" x="478" y="392" />
    <use href="#tile-1" x="454" y="404" />
    <use href="#tile-1" x="430" y="416" />
    <use href="#tile-1" x="406" y="428" />
    <use href="#tile-1" x="382" y="440" />
    <use href="#tile-0" x="358" y="452" />
    <use href="#tile-0" x="334" y="464" />
    <use href="#tile-0" x="502" y="404" />
    <use href="#tile-1" x="478" y="416" />
    <use href="#tile-0" x="454" y="428" />
    <use href="#tile-0" x="430" y="440" />
    <use href="#tile-1" x="406" y="452" />
    <use href="#tile-0" x="382" y="464" />
    <use href="#tile-0" x="358" y="476" />
    <use href="#tile-0" x="526" y="416" />
    <use href="#tile-1" x="502" y="428" />
    <use href="#tile-1" x="478" y="440" />
    <use href="#tile-0" x="454" y="452" />
    <use href="#tile-1" x="430" y="464" />
    <use href="#tile-1" x="406" y="476" />
    <use href="#tile-1" x="382" y="488" />
    <use href="#tile-1" x="550" y="428" />
    <use href="#tile-0" x="526" y="440" />
    <use href="#tile-1" x="502" y="452" />
    <use href="#tile-0" x="478" y="464" />
    <use href="#tile-1" x="454" y="476" />
    <use href="#tile-0" x="430" y="488" />
    <use href="#tile-0" x="406" y="500" />
    <use href="#tile-1" x="574" y="440" />
    <use href="#tile-2" x="550" y="452" />
    <use href="#tile-1" x="526" y="464" />
    <use href="#tile-1" x="502" y="476" />
    <use href="#tile-1" x="478" y="488" />
    <use href="#tile-4" x="454" y="500" />
    <use href="#tile-3" x="430" y="512" />
    <use href="#tile-0" x="598" y="452" />
    <use href="#tile-1" x="574" y="464" />
    <use href="#tile-0" x="550" y="476" />
    <use href="#tile-1" x="526" y="488" />
    <use href="#tile-0" x="502" y="500" />
    <use href="#tile-1" x="478" y="512" />
    <use href="#tile-1" x="454" y="524" />
    <use href="#tile-0" x="622" y="464" />
    <use href="#tile-0" x="598" y="476" />
    <use href="#tile-0" x="574" y="488" />
    <use href="#tile-1" x="550" y="500" />
    <use href="#tile-1" x="526" y="512" />
    <use href="#tile-1" x="502" y="524" />
    <use href="#tile-0" x="478" y="536" />
    <use href="#tile-0" x="646" y="476" />
    <use href="#tile-0" x="622" y="488" />
    <use href="#tile-0" x="598" y="500" />
    <use href="#tile-1" x="574" y="512" />
    <use href="#tile-0" x="550" y="524" />
    <use href="#tile-0" x="526" y="536" />
    <use href="#tile-0" x="502" y="548" />
    <use href="#tile-0" x="670" y="488" />
    <use href="#tile-2" x="646" y="500" />
    <use href="#tile-2" x="622" y="512" />
    <use href="#tile-1" x="598" y="524" />
    <use href="#tile-1" x="574" y="536" />
    <use href="#tile-1" x="550" y="548" />
    <use href="#tile-1" x="526" y="560" />
    <use href="#tile-2" x="694" y="500" />
    <use href="#tile-1" x="670" y="512" />
    <use href="#tile-1" x="646" y="524" />
    <use href="#tile-1" x="622" y="536" />
    <use href="#tile-1" x="598" y="548" />
    <use href="#tile-0" x="574" y="560" />
    <use href="#tile-0" x="550" y="572" />
    <use href="#tile-0" x="718" y="512" />
    <use href="#tile-0" x="694" y="524" />
    <use href="#tile-0" x="670" y="536" />
    <use href="#tile-0" x="646" y="548" />
    <use href="#tile-1" x="622" y="560" />
    <use href="#tile-0" x="598" y="572" />
    <use href="#tile-1" x="574" y="584" />
    <use href="#tile-0" x="742" y="524" />
    <use href="#tile-2" x="718" y="536" />
    <use href="#tile-0" x="694" y="548" />
    <use href="#tile-0" x="670" y="560" />
    <use href="#tile-0" x="646" y="572" />
    <use href="#tile-0" x="622" y="584" />
    <use href="#tile-0" x="598" y="596" />
    <use href="#tile-0" x="766" y="536" />
    <use href="#tile-0" x="742" y="548" />
    <use href="#tile-0" x="718" y="560" />
    <use href="#tile-0" x="694" y="572" />
    <use href="#tile-1" x="670" y="584" />
    <use href="#tile-1" x="646" y="596" />
    <use href="#tile-0" x="622" y="608" />
    <use href="#tile-1" x="790" y="548" />
    <use href="#tile-1" x="766" y="560" />
    <use href="#tile-1" x="742" y="572" />
    <use href="#tile-1" x="718" y="584" />
    <use href="#tile-0" x="694" y="596" />
    <use href="#tile-1" x="670" y="608" />
    <use href="#tile-0" x="646" y="620" />
    <use href="#tile-1" x="814" y="560" />
    <use href="#tile-1" x="790" y="572" />
    <use href="#tile-0" x="766" y="584" />
    <use href="#tile-1" x="742" y="596" />
    <use href="#tile-0" x="718" y="608" />
    <use href="#tile-1" x="694" y="620" />
    <use href="#tile-0" x="670" y="632" />
    <use href="#tile-0" x="838" y="572" />
    <use href="#tile-1" x="814" y="584" />
    <use href="#tile-3" x="790" y="596" />
    <use href="#tile-0" x="766" y="608" />
    <use href="#tile-0" x="742" y="620" />
    <use href="#tile-1" x="718" y="632" />
    <use href="#tile-1" x="694" y="644" />
    <use href="#tile-0" x="862" y="584" />
    <use href="#tile-0" x="838" y="596" />
    <use href="#tile-1" x="814" y="608" />
    <use href="#tile-0" x="790" y="620" />
    <use href="#tile-0" x="766" y="632" />
    <use href="#tile-0" x="742" y="644" />
    <use href="#tile-1" x="718" y="656" />
    <use href="#tile-0" x="886" y="596" />
    <use href="#tile-0" x="862" y="608" />
    <use href="#tile-0" x="838" y="620" />
    <use href="#tile-0" x="814" y="632" />
    <use href="#tile-1" x="790" y="644" />
    <use href="#tile-0" x="766" y="656" />
    <use href="#tile-1" x="742" y="668" />
    <use href="#tile-0" x="910" y="608" />
    <use href="#tile-1" x="886" y="620" />
    <use href="#tile-1" x="862" y="632" />
    <use href="#tile-2" x="838" y="644" />
    <use href="#tile-0" x="814" y="656" />
    <use href="#tile-3" x="790" y="668" />
    <use href="#tile-1" x="766" y="680" />
    <use href="#tile-2" x="934" y="620" />
    <use href="#tile-0" x="910" y="632" />
    <use href="#tile-2" x="886" y="644" />
    <use href="#tile-1" x="862" y="656" />
    <use href="#tile-2" x="838" y="668" />
    <use href="#tile-1" x="814" y="680" />
    <use href="#tile-2" x="790" y="692" />
    <use href="#tile-0" x="958" y="632" />
    <use href="#tile-0" x="934" y="644" />
    <use href="#tile-0" x="910" y="656" />
    <use href="#tile-0" x="886" y="668" />
    <use href="#tile-1" x="862" y="680" />
    <use href="#tile-1" x="838" y="692" />
    <use href="#tile-0" x="814" y="704" />
    <use href="#tile-1" x="982" y="644" />
    <use href="#tile-0" x="958" y="656" />
    <use href="#tile-0" x="934" y="668" />
    <use href="#tile-0" x="910" y="680" />
    <use href="#tile-0" x="886" y="692" />
    <use href="#tile-0" x="862" y="704" />
    <use href="#tile-1" x="838" y="716" />
    <use href="#tile-0" x="1006" y="656" />
    <use href="#tile-0" x="982" y="668" />
    <use href="#tile-1" x="958" y="680" />
    <use href="#tile-0" x="934" y="692" />
    <use href="#tile-0" x="910" y="704" />
    <use href="#tile-1" x="886" y="716" />
    <use href="#tile-1" x="862" y="728" />
    <use href="#tile-1" x="1030" y="668" />
    <use href="#tile-0" x="1006" y="680" />
    <use href="#tile-1" x="982" y="692" />
    <use href="#tile-0" x="958" y="704" />
    <use href="#tile-1" x="934" y="716" />
    <use href="#tile-0" x="910" y="728" />
    <use href="#tile-1" x="886" y="740" />
    <use href="#tile-1" x="1054" y="680" />
    <use href="#tile-1" x="1030" y="692" />
    <use href="#tile-0" x="1006" y="704" />
    <use href="#tile-1" x="982" y="716" />
    <use href="#tile-1" x="958" y="728" />
    <use href="#tile-2" x="934" y="740" />
    <use href="#tile-4" x="910" y="752" />
    <use href="#tile-1" x="1078" y="692" />
    <use href="#tile-0" x="1054" y="704" />
    <use href="#tile-0" x="1030" y="716" />
    <use href="#tile-0" x="1006" y="728" />
    <use href="#tile-0" x="982" y="740" />
    <use href="#tile-0" x="958" y="752" />
    <use href="#tile-1" x="934" y="764" />
    <use href="#tile-1" x="1102" y="704" />
    <use href="#tile-0" x="1078" y="716" />
    <use href="#tile-1" x="1054" y="728" />
    <use href="#tile-0" x="1030" y="740" />
    <use href="#tile-0" x="1006" y="752" />
    <use href="#tile-0" x="982" y="764" />
    <use href="#tile-0" x="958" y="776" />
    <use href="#tile-0" x="1126" y="716" />
    <use href="#tile-0" x="1102" y="728" />
    <use href="#tile-0" x="1078" y="740" />
    <use href="#tile-1" x="1054" y="752" />
    <use href="#tile-0" x="1030" y="764" />
    <use href="#tile-0" x="1006" y="776" />
    <use href="#tile-0" x="982" y="788" />
    <use href="#tile-0" x="1150" y="728" />
    <use href="#tile-0" x="1126" y="740" />
    <use href="#tile-1" x="1102" y="752" />
    <use href="#tile-1" x="1078" y="764" />
    <use href="#tile-0" x="1054" y="776" />
    <use href="#tile-0" x="1030" y="788" />
    <use href="#tile-1" x="1006" y="800" />
    <use href="#tile-0" x="1174" y="740" />
    <use href="#tile-0" x="1150" y="752" />
    <use href="#tile-0" x="1126" y="764" />
    <use href="#tile-0" x="1102" y="776" />
    <use href="#tile-0" x="1078" y="788" />
    <use href="#tile-0" x="1054" y="800" />
    <use href="#tile-0" x="1030" y="812" />
    <use href="#tile-0" x="1198" y="752" />
    <use href="#tile-0" x="1174" y="764" />
    <use href="#tile-0" x="1150" y="776" />
    <use href="#tile-1" x="1126" y="788" />
    <use href="#tile-1" x="1102" y="800" />
    <use href="#tile-1" x="1078" y="812" />
    <use href="#tile-0" x="1054" y="824" />
    <use href="#tile-0" x="1222" y="764" />
    <use href="#tile-1" x="1198" y="776" />
    <use href="#tile-1" x="1174" y="788" />
    <use href="#tile-0" x="1150" y="800" />
    <use href="#tile-0" x="1126" y="812" />
    <use href="#tile-0" x="1102" y="824" />
    <use href="#tile-0" x="1078" y="836" />
    <use href="#tile-0" x="1246" y="776" />
    <use href="#tile-0" x="1222" y="788" />
    <use href="#tile-1" x="1198" y="800" />
    <use href="#tile-1" x="1174" y="812" />
    <use href="#tile-1" x="1150" y="824" />
    <use href="#tile-1" x="1126" y="836" />
    <use href="#tile-1" x="1102" y="848" />
    <use href="#tile-1" x="1270" y="788" />
    <use href="#tile-1" x="1246" y="800" />
    <use href="#tile-1" x="1222" y="812" />
    <use href="#tile-1" x="1198" y="824" />
    <use href="#tile-1" x="1174" y="836" />
    <use href="#tile-1" x="1150" y="848" />
    <use href="#tile-0" x="1126" y="860" />
    <use href="#tile-1" x="1294" y="800" />
    <use href="#tile-1" x="1270" y="812" />
    <use href="#tile-4" x="1246" y="824" />
    <use href="#tile-4" x="1222" y="836" />
    <use href="#tile-0" x="1198" y="848" />
    <use href="#tile-1" x="1174" y="860" />
    <use href="#tile-1" x="1150" y="872" />
    <use href="#tile-0" x="1318" y="812" />
    <use href="#tile-1" x="1294" y="824" />
    <use href="#tile-1" x="1270" y="836" />
    <use href="#tile-1" x="1246" y="848" />
    <use href="#tile-1" x="1222" y="860" />
    <use href="#tile-0" x="1198" y="872" />
    <use href="#tile-1" x="1174" y="884" />
    <use href="#tile-2" x="1342" y="824" />
    <use href="#tile-1" x="1318" y="836" />
    <use href="#tile-1" x="1294" y="848" />
    <use href="#tile-2" x="1270" y="860" />
    <use href="#tile-1" x="1246" y="872" />
    <use href="#tile-1" x="1222" y="884" />
    <use href="#tile-2" x="1198" y="896" />
    <use href="#tile-1" x="1366" y="836" />
    <use href="#tile-1" x="1342" y="848" />
    <use href="#tile-0" x="1318" y="860" />
    <use href="#tile-0" x="1294" y="872" />
    <use href="#tile-1" x="1270" y="884" />
    <use href="#tile-0" x="1246" y="896" />
    <use href="#tile-0" x="1222" y="908" />
    <use href="#tile-0" x="1390" y="848" />
    <use href="#tile-1" x="1366" y="860" />
    <use href="#tile-1" x="1342" y="872" />
    <use href="#tile-1" x="1318" y="884" />
    <use href="#tile-1" x="1294" y="896" />
    <use href="#tile-1" x="1270" y="908" />
    <use href="#tile-1" x="1246" y="920" />
    <use href="#tile-1" x="1414" y="860" />
    <use href="#tile-1" x="1390" y="872" />
    <use href="#tile-1" x="1366" y="884" />
    <use href="#tile-1" x="1342" y="896" />
    <use href="#tile-1" x="1318" y="908" />
    <use href="#tile-1" x="1294" y="920" />
    <use href="#tile-1" x="1270" y="932" />
    <use href="#tile-1" x="1438" y="872" />
    <use href="#tile-1" x="1414" y="884" />
    <use href="#tile-1" x="1390" y="896" />
    <use href="#tile-1" x="1366" y="908" />
    <use href="#tile-0" x="1342" y="920" />
    <use href="#tile-1" x="1318" y="932" />
    <use href="#tile-1" x="1294" y="944" />
    <use href="#tile-1" x="1462" y="884" />
    <use href="#tile-0" x="1438" y="896" />
    
          <path d="M 139.6,292.4 C 142.6,290.4 145.6,290.4 148.6,292.4 M 142,298.4 C 145,296.4 148,296.4 151,298.4" 
                stroke="#ffffff" stroke-width="1.0" fill="none" opacity="0.4" />
        
    <path d="M 70,330 L 71,332 L 73,332 L 71.5,333.2 L 72,335 L 70,333.8 L 68,335 L 68.5,333.2 L 67,332 L 69,332 Z" fill="#ef4444" stroke="#ffffff" stroke-width="0.3" />
    
          <path d="M 187.6,292.4 C 190.6,290.4 193.6,290.4 196.6,292.4 M 190,298.4 C 193,296.4 196,296.4 199,298.4" 
                stroke="#ffffff" stroke-width="1.0" fill="none" opacity="0.4" />
        
    <path d="M 262,282 L 263,284 L 265,284 L 263.5,285.2 L 264,287 L 262,285.8 L 260,287 L 260.5,285.2 L 259,284 L 261,284 Z" fill="#ef4444" stroke="#ffffff" stroke-width="0.3" />
    
          <path d="M 235.6,292.4 C 238.6,290.4 241.6,290.4 244.6,292.4 M 238,298.4 C 241,296.4 244,296.4 247,298.4" 
                stroke="#ffffff" stroke-width="1.0" fill="none" opacity="0.4" />
        
    
          <path d="M 115.6,352.4 C 118.6,350.4 121.6,350.4 124.6,352.4 M 118,358.4 C 121,356.4 124,356.4 127,358.4" 
                stroke="#ffffff" stroke-width="1.0" fill="none" opacity="0.4" />
        
    
          <path d="M 283.6,292.4 C 286.6,290.4 289.6,290.4 292.6,292.4 M 286,298.4 C 289,296.4 292,296.4 295,298.4" 
                stroke="#ffffff" stroke-width="1.0" fill="none" opacity="0.4" />
        
    
          <path d="M 163.6,352.4 C 166.6,350.4 169.6,350.4 172.6,352.4 M 166,358.4 C 169,356.4 172,356.4 175,358.4" 
                stroke="#ffffff" stroke-width="1.0" fill="none" opacity="0.4" />
        
    
          <path d="M 211.6,352.4 C 214.6,350.4 217.6,350.4 220.6,352.4 M 214,358.4 C 217,356.4 220,356.4 223,358.4" 
                stroke="#ffffff" stroke-width="1.0" fill="none" opacity="0.4" />
        
    
          <path d="M 259.6,352.4 C 262.6,350.4 265.6,350.4 268.6,352.4 M 262,358.4 C 265,356.4 268,356.4 271,358.4" 
                stroke="#ffffff" stroke-width="1.0" fill="none" opacity="0.4" />
        
    
          <path d="M 307.6,352.4 C 310.6,350.4 313.6,350.4 316.6,352.4 M 310,358.4 C 313,356.4 316,356.4 319,358.4" 
                stroke="#ffffff" stroke-width="1.0" fill="none" opacity="0.4" />
        
    
          <path d="M 355.6,352.4 C 358.6,350.4 361.6,350.4 364.6,352.4 M 358,358.4 C 361,356.4 364,356.4 367,358.4" 
                stroke="#ffffff" stroke-width="1.0" fill="none" opacity="0.4" />
        
    <path d="M 286,390 L 287,392 L 289,392 L 287.5,393.2 L 288,395 L 286,393.8 L 284,395 L 284.5,393.2 L 283,392 L 285,392 Z" fill="#ef4444" stroke="#ffffff" stroke-width="0.3" />
    
          <path d="M 235.6,412.4 C 238.6,410.4 241.6,410.4 244.6,412.4 M 238,418.4 C 241,416.4 244,416.4 247,418.4" 
                stroke="#ffffff" stroke-width="1.0" fill="none" opacity="0.4" />
        
    <path d="M 358,378 L 359,380 L 361,380 L 359.5,381.2 L 360,383 L 358,381.8 L 356,383 L 356.5,381.2 L 355,380 L 357,380 Z" fill="#ef4444" stroke="#ffffff" stroke-width="0.3" />
    
          <path d="M 283.6,412.4 C 286.6,410.4 289.6,410.4 292.6,412.4 M 286,418.4 C 289,416.4 292,416.4 295,418.4" 
                stroke="#ffffff" stroke-width="1.0" fill="none" opacity="0.4" />
        
    <path d="M 406,378 L 407,380 L 409,380 L 407.5,381.2 L 408,383 L 406,381.8 L 404,383 L 404.5,381.2 L 403,380 L 405,380 Z" fill="#ef4444" stroke="#ffffff" stroke-width="0.3" />
    
          <path d="M 331.6,412.4 C 334.6,410.4 337.6,410.4 340.6,412.4 M 334,418.4 C 337,416.4 340,416.4 343,418.4" 
                stroke="#ffffff" stroke-width="1.0" fill="none" opacity="0.4" />
        
    <path d="M 406,402 L 407,404 L 409,404 L 407.5,405.2 L 408,407 L 406,405.8 L 404,407 L 404.5,405.2 L 403,404 L 405,404 Z" fill="#ef4444" stroke="#ffffff" stroke-width="0.3" />
    <path d="M 430,414 L 431,416 L 433,416 L 431.5,417.2 L 432,419 L 430,417.8 L 428,419 L 428.5,417.2 L 427,416 L 429,416 Z" fill="#ef4444" stroke="#ffffff" stroke-width="0.3" />
    <path d="M 406,426 L 407,428 L 409,428 L 407.5,429.2 L 408,431 L 406,429.8 L 404,431 L 404.5,429.2 L 403,428 L 405,428 Z" fill="#ef4444" stroke="#ffffff" stroke-width="0.3" />
    
          <path d="M 355.6,472.4 C 358.6,470.4 361.6,470.4 364.6,472.4 M 358,478.4 C 361,476.4 364,476.4 367,478.4" 
                stroke="#ffffff" stroke-width="1.0" fill="none" opacity="0.4" />
        
    <path d="M 478,438 L 479,440 L 481,440 L 479.5,441.2 L 480,443 L 478,441.8 L 476,443 L 476.5,441.2 L 475,440 L 477,440 Z" fill="#ef4444" stroke="#ffffff" stroke-width="0.3" />
    <path d="M 382,486 L 383,488 L 385,488 L 383.5,489.2 L 384,491 L 382,489.8 L 380,491 L 380.5,489.2 L 379,488 L 381,488 Z" fill="#ef4444" stroke="#ffffff" stroke-width="0.3" />
    <path d="M 550,426 L 551,428 L 553,428 L 551.5,429.2 L 552,431 L 550,429.8 L 548,431 L 548.5,429.2 L 547,428 L 549,428 Z" fill="#ef4444" stroke="#ffffff" stroke-width="0.3" />
    
          <path d="M 523.6,436.4 C 526.6,434.4 529.6,434.4 532.6,436.4 M 526,442.4 C 529,440.4 532,440.4 535,442.4" 
                stroke="#ffffff" stroke-width="1.0" fill="none" opacity="0.4" />
        
    <path d="M 454,474 L 455,476 L 457,476 L 455.5,477.2 L 456,479 L 454,477.8 L 452,479 L 452.5,477.2 L 451,476 L 453,476 Z" fill="#ef4444" stroke="#ffffff" stroke-width="0.3" />
    <path d="M 574,438 L 575,440 L 577,440 L 575.5,441.2 L 576,443 L 574,441.8 L 572,443 L 572.5,441.2 L 571,440 L 573,440 Z" fill="#ef4444" stroke="#ffffff" stroke-width="0.3" />
    <ellipse cx="550" cy="453" rx="8" ry="4" fill="url(#island-shadow)" opacity="0.3" />
        <!-- Trunk -->
        <path d="M 549,452 Q 545.2,440 542,428 L 543,428 Q 546.2,440 551,452 Z" fill="#854d0e" />
        <!-- Leaves -->
        <g stroke="#166534" stroke-width="1.2" fill="none">
          <path d="M 542,428 Q 529.2,431.2 526,437.6" />
          <path d="M 542,428 Q 554.8,431.2 558,437.6" />
          <path d="M 542,428 Q 535.6,418.4 532.4,412" fill="#22c55e" fill-opacity="0.1" />
          <path d="M 542,428 Q 548.4,418.4 551.6,412" fill="#22c55e" fill-opacity="0.1" />
          <path d="M 542,428 Q 527.6,424.8 522.8,421.6" />
          <path d="M 542,428 Q 556.4,424.8 561.2,421.6" />
        </g>
      
    <path d="M 502,474 L 503,476 L 505,476 L 503.5,477.2 L 504,479 L 502,477.8 L 500,479 L 500.5,477.2 L 499,476 L 501,476 Z" fill="#ef4444" stroke="#ffffff" stroke-width="0.3" />
    <path d="M 478,486 L 479,488 L 481,488 L 479.5,489.2 L 480,491 L 478,489.8 L 476,491 L 476.5,489.2 L 475,488 L 477,488 Z" fill="#ef4444" stroke="#ffffff" stroke-width="0.3" />
    <ellipse cx="454" cy="502" rx="18" ry="9" fill="url(#island-shadow)" opacity="0.4" />
    <path d="M 444.784,498 L 454,502.608 L 454,485.808 L 444.784,481.2 Z" fill="url(#lighthouse-white)" />
    <path d="M 454,502.608 L 463.216,498 L 463.216,481.2 L 454,485.808 Z" fill="#cbd5e1" />
    <path d="M 454,476.592 L 463.216,481.2 L 454,485.808 L 444.784,481.2 Z" fill="#ffffff" />
  
    <path d="M 445.936,498 L 454,502.032 L 454,468.43199999999996 L 445.936,464.4 Z" fill="url(#lighthouse-red)" />
    <path d="M 454,502.032 L 462.064,498 L 462.064,464.4 L 454,468.43199999999996 Z" fill="#b91c1c" />
    <path d="M 454,460.368 L 462.064,464.4 L 454,468.43199999999996 L 445.936,464.4 Z" fill="#ef4444" />
  
    <path d="M 447.088,498 L 454,501.456 L 454,451.05600000000004 L 447.088,447.6 Z" fill="url(#lighthouse-white)" />
    <path d="M 454,501.456 L 460.912,498 L 460.912,447.6 L 454,451.05600000000004 Z" fill="#cbd5e1" />
    <path d="M 454,444.144 L 460.912,447.6 L 454,451.05600000000004 L 447.088,447.6 Z" fill="#ffffff" />
  
    <path d="M 448.24,498 L 454,500.88 L 454,433.68 L 448.24,430.8 Z" fill="url(#lighthouse-red)" />
    <path d="M 454,500.88 L 459.76,498 L 459.76,430.8 L 454,433.68 Z" fill="#b91c1c" />
    <path d="M 454,427.92 L 459.76,430.8 L 454,433.68 L 448.24,430.8 Z" fill="#ef4444" />
  
    <path d="M 446.896,498 L 454,501.552 L 454,431.952 L 446.896,428.4 Z" fill="#0f172a" />
    <path d="M 454,501.552 L 461.104,498 L 461.104,428.4 L 454,431.952 Z" fill="#020617" />
    <path d="M 454,424.84799999999996 L 461.104,428.4 L 454,431.952 L 446.896,428.4 Z" fill="#1e293b" />
  
    <path d="M 447.856,498 L 454,501.072 L 454,421.072 L 447.856,418 Z" fill="#fbbf24" />
    <path d="M 454,501.072 L 460.144,498 L 460.144,418 L 454,421.072 Z" fill="#d97706" />
    <path d="M 454,414.928 L 460.144,418 L 454,421.072 L 447.856,418 Z" fill="#fef08a" />
  
    <path d="M 447.376,498 L 454,501.312 L 454,418.112 L 447.376,414.8 Z" fill="#0f172a" />
    <path d="M 454,501.312 L 460.624,498 L 460.624,414.8 L 454,418.112 Z" fill="#020617" />
    <path d="M 454,411.488 L 460.624,414.8 L 454,418.112 L 447.376,414.8 Z" fill="#1e293b" />
  
      <polygon points="454,424.4 564,304.4 624,304.4" 
               fill="url(#beam-light)" opacity="0.5" />
      <circle cx="454" cy="424.4" r="3" fill="#ffffff" filter="url(#neon-glow)" />
    
        <!-- Trunk -->
        <path d="M 445,503 Q 440.72,489.8 437.2,476.6 L 438.2,476.6 Q 441.72,489.8 447,503 Z" fill="#854d0e" />
        <!-- Leaves -->
        <g stroke="#166534" stroke-width="1.2" fill="none">
          <path d="M 437.2,476.6 Q 423.12,480.12 419.59999999999997,487.16" />
          <path d="M 437.2,476.6 Q 451.28,480.12 454.8,487.16" />
          <path d="M 437.2,476.6 Q 430.15999999999997,466.04 426.64,459" fill="#22c55e" fill-opacity="0.1" />
          <path d="M 437.2,476.6 Q 444.24,466.04 447.76,459" fill="#22c55e" fill-opacity="0.1" />
          <path d="M 437.2,476.6 Q 421.36,473.08000000000004 416.08,469.56" />
          <path d="M 437.2,476.6 Q 453.03999999999996,473.08000000000004 458.32,469.56" />
        </g>
      
    <path d="M 457.12,503 L 460,504.44 L 460,501.44 L 457.12,500 Z" fill="#ca8a04" />
    <path d="M 460,504.44 L 462.88,503 L 462.88,500 L 460,501.44 Z" fill="#451a03" />
    <path d="M 460,498.56 L 462.88,500 L 460,501.44 L 457.12,500 Z" fill="#78350f" />
  
    <ellipse cx="430" cy="514" rx="14" ry="7" fill="url(#island-shadow)" opacity="0.35" />
    <path d="M 426.8,509 L 434,512.6 L 434,503 L 426.8,499.4 Z" fill="#78350f" />
    <path d="M 434,512.6 L 441.2,509 L 441.2,499.4 L 434,503 Z" fill="#451a03" />
    <path d="M 434,495.79999999999995 L 441.2,499.4 L 434,503 L 426.8,499.4 Z" fill="#b45309" />
  
        <path d="M 425.84,499.4 L 434,491.4 L 434,503.48 Z" fill="#fef08a" />
        <path d="M 434,503.48 L 434,491.4 L 442.16,499.4 Z" fill="#facc15" />
      
        <!-- Trunk -->
        <path d="M 424,514 Q 420.44,502.6 417.4,491.2 L 418.4,491.2 Q 421.44,502.6 426,514 Z" fill="#854d0e" />
        <!-- Leaves -->
        <g stroke="#166534" stroke-width="1.2" fill="none">
          <path d="M 417.4,491.2 Q 405.23999999999995,494.24 402.2,500.32" />
          <path d="M 417.4,491.2 Q 429.56,494.24 432.59999999999997,500.32" />
          <path d="M 417.4,491.2 Q 411.32,482.08 408.28,476" fill="#22c55e" fill-opacity="0.1" />
          <path d="M 417.4,491.2 Q 423.47999999999996,482.08 426.52,476" fill="#22c55e" fill-opacity="0.1" />
          <path d="M 417.4,491.2 Q 403.71999999999997,488.15999999999997 399.15999999999997,485.12" />
          <path d="M 417.4,491.2 Q 431.08,488.15999999999997 435.64,485.12" />
        </g>
      
        <!-- Trunk -->
        <path d="M 430,516 Q 427.64,507.6 425.4,499.2 L 426.4,499.2 Q 428.64,507.6 432,516 Z" fill="#854d0e" />
        <!-- Leaves -->
        <g stroke="#166534" stroke-width="1.2" fill="none">
          <path d="M 425.4,499.2 Q 416.44,501.44 414.2,505.91999999999996" />
          <path d="M 425.4,499.2 Q 434.35999999999996,501.44 436.59999999999997,505.91999999999996" />
          <path d="M 425.4,499.2 Q 420.91999999999996,492.48 418.67999999999995,488" fill="#22c55e" fill-opacity="0.1" />
          <path d="M 425.4,499.2 Q 429.88,492.48 432.12,488" fill="#22c55e" fill-opacity="0.1" />
          <path d="M 425.4,499.2 Q 415.32,496.96 411.96,494.71999999999997" />
          <path d="M 425.4,499.2 Q 435.47999999999996,496.96 438.84,494.71999999999997" />
        </g>
      
    <path d="M 526,486 L 527,488 L 529,488 L 527.5,489.2 L 528,491 L 526,489.8 L 524,491 L 524.5,489.2 L 523,488 L 525,488 Z" fill="#ef4444" stroke="#ffffff" stroke-width="0.3" />
    <path d="M 526,510 L 527,512 L 529,512 L 527.5,513.2 L 528,515 L 526,513.8 L 524,515 L 524.5,513.2 L 523,512 L 525,512 Z" fill="#ef4444" stroke="#ffffff" stroke-width="0.3" />
    <path d="M 502,522 L 503,524 L 505,524 L 503.5,525.2 L 504,527 L 502,525.8 L 500,527 L 500.5,525.2 L 499,524 L 501,524 Z" fill="#ef4444" stroke="#ffffff" stroke-width="0.3" />
    
          <path d="M 475.6,532.4 C 478.6,530.4 481.6,530.4 484.6,532.4 M 478,538.4 C 481,536.4 484,536.4 487,538.4" 
                stroke="#ffffff" stroke-width="1.0" fill="none" opacity="0.4" />
        
    
          <path d="M 595.6,496.4 C 598.6,494.4 601.6,494.4 604.6,496.4 M 598,502.4 C 601,500.4 604,500.4 607,502.4" 
                stroke="#ffffff" stroke-width="1.0" fill="none" opacity="0.4" />
        
    
          <path d="M 523.6,532.4 C 526.6,530.4 529.6,530.4 532.6,532.4 M 526,538.4 C 529,536.4 532,536.4 535,538.4" 
                stroke="#ffffff" stroke-width="1.0" fill="none" opacity="0.4" />
        
    <ellipse cx="646" cy="501" rx="8" ry="4" fill="url(#island-shadow)" opacity="0.3" />
        <!-- Trunk -->
        <path d="M 645,500 Q 641.2,488 638,476 L 639,476 Q 642.2,488 647,500 Z" fill="#854d0e" />
        <!-- Leaves -->
        <g stroke="#166534" stroke-width="1.2" fill="none">
          <path d="M 638,476 Q 625.2,479.2 622,485.6" />
          <path d="M 638,476 Q 650.8,479.2 654,485.6" />
          <path d="M 638,476 Q 631.6,466.4 628.4,460" fill="#22c55e" fill-opacity="0.1" />
          <path d="M 638,476 Q 644.4,466.4 647.6,460" fill="#22c55e" fill-opacity="0.1" />
          <path d="M 638,476 Q 623.6,472.8 618.8,469.6" />
          <path d="M 638,476 Q 652.4,472.8 657.2,469.6" />
        </g>
      
    <ellipse cx="622" cy="513" rx="8" ry="4" fill="url(#island-shadow)" opacity="0.3" />
        <!-- Trunk -->
        <path d="M 621,512 Q 617.2,500 614,488 L 615,488 Q 618.2,500 623,512 Z" fill="#854d0e" />
        <!-- Leaves -->
        <g stroke="#166534" stroke-width="1.2" fill="none">
          <path d="M 614,488 Q 601.2,491.2 598,497.6" />
          <path d="M 614,488 Q 626.8,491.2 630,497.6" />
          <path d="M 614,488 Q 607.6,478.4 604.4,472" fill="#22c55e" fill-opacity="0.1" />
          <path d="M 614,488 Q 620.4,478.4 623.6,472" fill="#22c55e" fill-opacity="0.1" />
          <path d="M 614,488 Q 599.6,484.8 594.8,481.6" />
          <path d="M 614,488 Q 628.4,484.8 633.2,481.6" />
        </g>
      
    <path d="M 574,534 L 575,536 L 577,536 L 575.5,537.2 L 576,539 L 574,537.8 L 572,539 L 572.5,537.2 L 571,536 L 573,536 Z" fill="#ef4444" stroke="#ffffff" stroke-width="0.3" />
    <path d="M 550,546 L 551,548 L 553,548 L 551.5,549.2 L 552,551 L 550,549.8 L 548,551 L 548.5,549.2 L 547,548 L 549,548 Z" fill="#ef4444" stroke="#ffffff" stroke-width="0.3" />
    <ellipse cx="694" cy="501" rx="8" ry="4" fill="url(#island-shadow)" opacity="0.3" />
        <!-- Trunk -->
        <path d="M 693,500 Q 689.2,488 686,476 L 687,476 Q 690.2,488 695,500 Z" fill="#854d0e" />
        <!-- Leaves -->
        <g stroke="#166534" stroke-width="1.2" fill="none">
          <path d="M 686,476 Q 673.2,479.2 670,485.6" />
          <path d="M 686,476 Q 698.8,479.2 702,485.6" />
          <path d="M 686,476 Q 679.6,466.4 676.4,460" fill="#22c55e" fill-opacity="0.1" />
          <path d="M 686,476 Q 692.4,466.4 695.6,460" fill="#22c55e" fill-opacity="0.1" />
          <path d="M 686,476 Q 671.6,472.8 666.8,469.6" />
          <path d="M 686,476 Q 700.4,472.8 705.2,469.6" />
        </g>
      
    <path d="M 670,510 L 671,512 L 673,512 L 671.5,513.2 L 672,515 L 670,513.8 L 668,515 L 668.5,513.2 L 667,512 L 669,512 Z" fill="#ef4444" stroke="#ffffff" stroke-width="0.3" />
    <path d="M 646,522 L 647,524 L 649,524 L 647.5,525.2 L 648,527 L 646,525.8 L 644,527 L 644.5,525.2 L 643,524 L 645,524 Z" fill="#ef4444" stroke="#ffffff" stroke-width="0.3" />
    
          <path d="M 571.6,556.4 C 574.6,554.4 577.6,554.4 580.6,556.4 M 574,562.4 C 577,560.4 580,560.4 583,562.4" 
                stroke="#ffffff" stroke-width="1.0" fill="none" opacity="0.4" />
        
    <path d="M 574,582 L 575,584 L 577,584 L 575.5,585.2 L 576,587 L 574,585.8 L 572,587 L 572.5,585.2 L 571,584 L 573,584 Z" fill="#ef4444" stroke="#ffffff" stroke-width="0.3" />
    <ellipse cx="718" cy="537" rx="8" ry="4" fill="url(#island-shadow)" opacity="0.3" />
        <!-- Trunk -->
        <path d="M 717,536 Q 713.2,524 710,512 L 711,512 Q 714.2,524 719,536 Z" fill="#854d0e" />
        <!-- Leaves -->
        <g stroke="#166534" stroke-width="1.2" fill="none">
          <path d="M 710,512 Q 697.2,515.2 694,521.6" />
          <path d="M 710,512 Q 722.8,515.2 726,521.6" />
          <path d="M 710,512 Q 703.6,502.4 700.4,496" fill="#22c55e" fill-opacity="0.1" />
          <path d="M 710,512 Q 716.4,502.4 719.6,496" fill="#22c55e" fill-opacity="0.1" />
          <path d="M 710,512 Q 695.6,508.8 690.8,505.6" />
          <path d="M 710,512 Q 724.4,508.8 729.2,505.6" />
        </g>
      
    
          <path d="M 667.6,556.4 C 670.6,554.4 673.6,554.4 676.6,556.4 M 670,562.4 C 673,560.4 676,560.4 679,562.4" 
                stroke="#ffffff" stroke-width="1.0" fill="none" opacity="0.4" />
        
    
          <path d="M 715.6,556.4 C 718.6,554.4 721.6,554.4 724.6,556.4 M 718,562.4 C 721,560.4 724,560.4 727,562.4" 
                stroke="#ffffff" stroke-width="1.0" fill="none" opacity="0.4" />
        
    <path d="M 742,570 L 743,572 L 745,572 L 743.5,573.2 L 744,575 L 742,573.8 L 740,575 L 740.5,573.2 L 739,572 L 741,572 Z" fill="#ef4444" stroke="#ffffff" stroke-width="0.3" />
    <path d="M 718,582 L 719,584 L 721,584 L 719.5,585.2 L 720,587 L 718,585.8 L 716,587 L 716.5,585.2 L 715,584 L 717,584 Z" fill="#ef4444" stroke="#ffffff" stroke-width="0.3" />
    
          <path d="M 643.6,616.4 C 646.6,614.4 649.6,614.4 652.6,616.4 M 646,622.4 C 649,620.4 652,620.4 655,622.4" 
                stroke="#ffffff" stroke-width="1.0" fill="none" opacity="0.4" />
        
    <path d="M 814,558 L 815,560 L 817,560 L 815.5,561.2 L 816,563 L 814,561.8 L 812,563 L 812.5,561.2 L 811,560 L 813,560 Z" fill="#ef4444" stroke="#ffffff" stroke-width="0.3" />
    <path d="M 742,594 L 743,596 L 745,596 L 743.5,597.2 L 744,599 L 742,597.8 L 740,599 L 740.5,597.2 L 739,596 L 741,596 Z" fill="#ef4444" stroke="#ffffff" stroke-width="0.3" />
    <ellipse cx="790" cy="598" rx="14" ry="7" fill="url(#island-shadow)" opacity="0.35" />
    <path d="M 786.8,593 L 794,596.6 L 794,587 L 786.8,583.4 Z" fill="#78350f" />
    <path d="M 794,596.6 L 801.2,593 L 801.2,583.4 L 794,587 Z" fill="#451a03" />
    <path d="M 794,579.8 L 801.2,583.4 L 794,587 L 786.8,583.4 Z" fill="#b45309" />
  
        <path d="M 785.84,583.4 L 794,575.4 L 794,587.48 Z" fill="#fef08a" />
        <path d="M 794,587.48 L 794,575.4 L 802.16,583.4 Z" fill="#facc15" />
      
        <!-- Trunk -->
        <path d="M 784,598 Q 780.44,586.6 777.4,575.2 L 778.4,575.2 Q 781.44,586.6 786,598 Z" fill="#854d0e" />
        <!-- Leaves -->
        <g stroke="#166534" stroke-width="1.2" fill="none">
          <path d="M 777.4,575.2 Q 765.24,578.24 762.1999999999999,584.32" />
          <path d="M 777.4,575.2 Q 789.56,578.24 792.6,584.32" />
          <path d="M 777.4,575.2 Q 771.3199999999999,566.08 768.28,560" fill="#22c55e" fill-opacity="0.1" />
          <path d="M 777.4,575.2 Q 783.48,566.08 786.52,560" fill="#22c55e" fill-opacity="0.1" />
          <path d="M 777.4,575.2 Q 763.72,572.1600000000001 759.16,569.12" />
          <path d="M 777.4,575.2 Q 791.0799999999999,572.1600000000001 795.64,569.12" />
        </g>
      
        <!-- Trunk -->
        <path d="M 790,600 Q 787.64,591.6 785.4,583.2 L 786.4,583.2 Q 788.64,591.6 792,600 Z" fill="#854d0e" />
        <!-- Leaves -->
        <g stroke="#166534" stroke-width="1.2" fill="none">
          <path d="M 785.4,583.2 Q 776.4399999999999,585.44 774.1999999999999,589.9200000000001" />
          <path d="M 785.4,583.2 Q 794.36,585.44 796.6,589.9200000000001" />
          <path d="M 785.4,583.2 Q 780.92,576.48 778.68,572" fill="#22c55e" fill-opacity="0.1" />
          <path d="M 785.4,583.2 Q 789.88,576.48 792.12,572" fill="#22c55e" fill-opacity="0.1" />
          <path d="M 785.4,583.2 Q 775.3199999999999,580.96 771.96,578.72" />
          <path d="M 785.4,583.2 Q 795.48,580.96 798.8399999999999,578.72" />
        </g>
      
    
          <path d="M 739.6,616.4 C 742.6,614.4 745.6,614.4 748.6,616.4 M 742,622.4 C 745,620.4 748,620.4 751,622.4" 
                stroke="#ffffff" stroke-width="1.0" fill="none" opacity="0.4" />
        
    
          <path d="M 787.6,616.4 C 790.6,614.4 793.6,614.4 796.6,616.4 M 790,622.4 C 793,620.4 796,620.4 799,622.4" 
                stroke="#ffffff" stroke-width="1.0" fill="none" opacity="0.4" />
        
    
          <path d="M 835.6,616.4 C 838.6,614.4 841.6,614.4 844.6,616.4 M 838,622.4 C 841,620.4 844,620.4 847,622.4" 
                stroke="#ffffff" stroke-width="1.0" fill="none" opacity="0.4" />
        
    <path d="M 790,642 L 791,644 L 793,644 L 791.5,645.2 L 792,647 L 790,645.8 L 788,647 L 788.5,645.2 L 787,644 L 789,644 Z" fill="#ef4444" stroke="#ffffff" stroke-width="0.3" />
    <path d="M 886,618 L 887,620 L 889,620 L 887.5,621.2 L 888,623 L 886,621.8 L 884,623 L 884.5,621.2 L 883,620 L 885,620 Z" fill="#ef4444" stroke="#ffffff" stroke-width="0.3" />
    <ellipse cx="838" cy="645" rx="8" ry="4" fill="url(#island-shadow)" opacity="0.3" />
        <!-- Trunk -->
        <path d="M 837,644 Q 833.2,632 830,620 L 831,620 Q 834.2,632 839,644 Z" fill="#854d0e" />
        <!-- Leaves -->
        <g stroke="#166534" stroke-width="1.2" fill="none">
          <path d="M 830,620 Q 817.2,623.2 814,629.6" />
          <path d="M 830,620 Q 842.8,623.2 846,629.6" />
          <path d="M 830,620 Q 823.6,610.4 820.4,604" fill="#22c55e" fill-opacity="0.1" />
          <path d="M 830,620 Q 836.4,610.4 839.6,604" fill="#22c55e" fill-opacity="0.1" />
          <path d="M 830,620 Q 815.6,616.8 810.8,613.6" />
          <path d="M 830,620 Q 844.4,616.8 849.2,613.6" />
        </g>
      
    <ellipse cx="790" cy="670" rx="14" ry="7" fill="url(#island-shadow)" opacity="0.35" />
    <path d="M 786.8,665 L 794,668.6 L 794,659 L 786.8,655.4 Z" fill="#78350f" />
    <path d="M 794,668.6 L 801.2,665 L 801.2,655.4 L 794,659 Z" fill="#451a03" />
    <path d="M 794,651.8 L 801.2,655.4 L 794,659 L 786.8,655.4 Z" fill="#b45309" />
  
        <path d="M 785.84,655.4 L 794,647.4 L 794,659.48 Z" fill="#fef08a" />
        <path d="M 794,659.48 L 794,647.4 L 802.16,655.4 Z" fill="#facc15" />
      
        <!-- Trunk -->
        <path d="M 784,670 Q 780.44,658.6 777.4,647.2 L 778.4,647.2 Q 781.44,658.6 786,670 Z" fill="#854d0e" />
        <!-- Leaves -->
        <g stroke="#166534" stroke-width="1.2" fill="none">
          <path d="M 777.4,647.2 Q 765.24,650.24 762.1999999999999,656.32" />
          <path d="M 777.4,647.2 Q 789.56,650.24 792.6,656.32" />
          <path d="M 777.4,647.2 Q 771.3199999999999,638.08 768.28,632" fill="#22c55e" fill-opacity="0.1" />
          <path d="M 777.4,647.2 Q 783.48,638.08 786.52,632" fill="#22c55e" fill-opacity="0.1" />
          <path d="M 777.4,647.2 Q 763.72,644.1600000000001 759.16,641.12" />
          <path d="M 777.4,647.2 Q 791.0799999999999,644.1600000000001 795.64,641.12" />
        </g>
      
        <!-- Trunk -->
        <path d="M 790,672 Q 787.64,663.6 785.4,655.2 L 786.4,655.2 Q 788.64,663.6 792,672 Z" fill="#854d0e" />
        <!-- Leaves -->
        <g stroke="#166534" stroke-width="1.2" fill="none">
          <path d="M 785.4,655.2 Q 776.4399999999999,657.44 774.1999999999999,661.9200000000001" />
          <path d="M 785.4,655.2 Q 794.36,657.44 796.6,661.9200000000001" />
          <path d="M 785.4,655.2 Q 780.92,648.48 778.68,644" fill="#22c55e" fill-opacity="0.1" />
          <path d="M 785.4,655.2 Q 789.88,648.48 792.12,644" fill="#22c55e" fill-opacity="0.1" />
          <path d="M 785.4,655.2 Q 775.3199999999999,652.96 771.96,650.72" />
          <path d="M 785.4,655.2 Q 795.48,652.96 798.8399999999999,650.72" />
        </g>
      
    <ellipse cx="934" cy="621" rx="8" ry="4" fill="url(#island-shadow)" opacity="0.3" />
        <!-- Trunk -->
        <path d="M 933,620 Q 929.2,608 926,596 L 927,596 Q 930.2,608 935,620 Z" fill="#854d0e" />
        <!-- Leaves -->
        <g stroke="#166534" stroke-width="1.2" fill="none">
          <path d="M 926,596 Q 913.2,599.2 910,605.6" />
          <path d="M 926,596 Q 938.8,599.2 942,605.6" />
          <path d="M 926,596 Q 919.6,586.4 916.4,580" fill="#22c55e" fill-opacity="0.1" />
          <path d="M 926,596 Q 932.4,586.4 935.6,580" fill="#22c55e" fill-opacity="0.1" />
          <path d="M 926,596 Q 911.6,592.8 906.8,589.6" />
          <path d="M 926,596 Q 940.4,592.8 945.2,589.6" />
        </g>
      
    <ellipse cx="886" cy="645" rx="8" ry="4" fill="url(#island-shadow)" opacity="0.3" />
        <!-- Trunk -->
        <path d="M 885,644 Q 881.2,632 878,620 L 879,620 Q 882.2,632 887,644 Z" fill="#854d0e" />
        <!-- Leaves -->
        <g stroke="#166534" stroke-width="1.2" fill="none">
          <path d="M 878,620 Q 865.2,623.2 862,629.6" />
          <path d="M 878,620 Q 890.8,623.2 894,629.6" />
          <path d="M 878,620 Q 871.6,610.4 868.4,604" fill="#22c55e" fill-opacity="0.1" />
          <path d="M 878,620 Q 884.4,610.4 887.6,604" fill="#22c55e" fill-opacity="0.1" />
          <path d="M 878,620 Q 863.6,616.8 858.8,613.6" />
          <path d="M 878,620 Q 892.4,616.8 897.2,613.6" />
        </g>
      
    <ellipse cx="838" cy="669" rx="8" ry="4" fill="url(#island-shadow)" opacity="0.3" />
        <!-- Trunk -->
        <path d="M 837,668 Q 833.2,656 830,644 L 831,644 Q 834.2,656 839,668 Z" fill="#854d0e" />
        <!-- Leaves -->
        <g stroke="#166534" stroke-width="1.2" fill="none">
          <path d="M 830,644 Q 817.2,647.2 814,653.6" />
          <path d="M 830,644 Q 842.8,647.2 846,653.6" />
          <path d="M 830,644 Q 823.6,634.4 820.4,628" fill="#22c55e" fill-opacity="0.1" />
          <path d="M 830,644 Q 836.4,634.4 839.6,628" fill="#22c55e" fill-opacity="0.1" />
          <path d="M 830,644 Q 815.6,640.8 810.8,637.6" />
          <path d="M 830,644 Q 844.4,640.8 849.2,637.6" />
        </g>
      
    <path d="M 814,678 L 815,680 L 817,680 L 815.5,681.2 L 816,683 L 814,681.8 L 812,683 L 812.5,681.2 L 811,680 L 813,680 Z" fill="#ef4444" stroke="#ffffff" stroke-width="0.3" />
    <ellipse cx="790" cy="693" rx="8" ry="4" fill="url(#island-shadow)" opacity="0.3" />
        <!-- Trunk -->
        <path d="M 789,692 Q 785.2,680 782,668 L 783,668 Q 786.2,680 791,692 Z" fill="#854d0e" />
        <!-- Leaves -->
        <g stroke="#166534" stroke-width="1.2" fill="none">
          <path d="M 782,668 Q 769.2,671.2 766,677.6" />
          <path d="M 782,668 Q 794.8,671.2 798,677.6" />
          <path d="M 782,668 Q 775.6,658.4 772.4,652" fill="#22c55e" fill-opacity="0.1" />
          <path d="M 782,668 Q 788.4,658.4 791.6,652" fill="#22c55e" fill-opacity="0.1" />
          <path d="M 782,668 Q 767.6,664.8 762.8,661.6" />
          <path d="M 782,668 Q 796.4,664.8 801.2,661.6" />
        </g>
      
    <path d="M 838,690 L 839,692 L 841,692 L 839.5,693.2 L 840,695 L 838,693.8 L 836,695 L 836.5,693.2 L 835,692 L 837,692 Z" fill="#ef4444" stroke="#ffffff" stroke-width="0.3" />
    
          <path d="M 907.6,676.4 C 910.6,674.4 913.6,674.4 916.6,676.4 M 910,682.4 C 913,680.4 916,680.4 919,682.4" 
                stroke="#ffffff" stroke-width="1.0" fill="none" opacity="0.4" />
        
    <path d="M 838,714 L 839,716 L 841,716 L 839.5,717.2 L 840,719 L 838,717.8 L 836,719 L 836.5,717.2 L 835,716 L 837,716 Z" fill="#ef4444" stroke="#ffffff" stroke-width="0.3" />
    <path d="M 958,678 L 959,680 L 961,680 L 959.5,681.2 L 960,683 L 958,681.8 L 956,683 L 956.5,681.2 L 955,680 L 957,680 Z" fill="#ef4444" stroke="#ffffff" stroke-width="0.3" />
    <path d="M 886,714 L 887,716 L 889,716 L 887.5,717.2 L 888,719 L 886,717.8 L 884,719 L 884.5,717.2 L 883,716 L 885,716 Z" fill="#ef4444" stroke="#ffffff" stroke-width="0.3" />
    <path d="M 862,726 L 863,728 L 865,728 L 863.5,729.2 L 864,731 L 862,729.8 L 860,731 L 860.5,729.2 L 859,728 L 861,728 Z" fill="#ef4444" stroke="#ffffff" stroke-width="0.3" />
    
          <path d="M 1003.6,676.4 C 1006.6,674.4 1009.6,674.4 1012.6,676.4 M 1006,682.4 C 1009,680.4 1012,680.4 1015,682.4" 
                stroke="#ffffff" stroke-width="1.0" fill="none" opacity="0.4" />
        
    <path d="M 982,690 L 983,692 L 985,692 L 983.5,693.2 L 984,695 L 982,693.8 L 980,695 L 980.5,693.2 L 979,692 L 981,692 Z" fill="#ef4444" stroke="#ffffff" stroke-width="0.3" />
    <path d="M 886,738 L 887,740 L 889,740 L 887.5,741.2 L 888,743 L 886,741.8 L 884,743 L 884.5,741.2 L 883,740 L 885,740 Z" fill="#ef4444" stroke="#ffffff" stroke-width="0.3" />
    <path d="M 982,714 L 983,716 L 985,716 L 983.5,717.2 L 984,719 L 982,717.8 L 980,719 L 980.5,717.2 L 979,716 L 981,716 Z" fill="#ef4444" stroke="#ffffff" stroke-width="0.3" />
    <ellipse cx="934" cy="741" rx="8" ry="4" fill="url(#island-shadow)" opacity="0.3" />
        <!-- Trunk -->
        <path d="M 933,740 Q 929.2,728 926,716 L 927,716 Q 930.2,728 935,740 Z" fill="#854d0e" />
        <!-- Leaves -->
        <g stroke="#166534" stroke-width="1.2" fill="none">
          <path d="M 926,716 Q 913.2,719.2 910,725.6" />
          <path d="M 926,716 Q 938.8,719.2 942,725.6" />
          <path d="M 926,716 Q 919.6,706.4 916.4,700" fill="#22c55e" fill-opacity="0.1" />
          <path d="M 926,716 Q 932.4,706.4 935.6,700" fill="#22c55e" fill-opacity="0.1" />
          <path d="M 926,716 Q 911.6,712.8 906.8,709.6" />
          <path d="M 926,716 Q 940.4,712.8 945.2,709.6" />
        </g>
      
    <ellipse cx="910" cy="754" rx="18" ry="9" fill="url(#island-shadow)" opacity="0.4" />
    <path d="M 900.784,750 L 910,754.608 L 910,737.808 L 900.784,733.2 Z" fill="url(#lighthouse-white)" />
    <path d="M 910,754.608 L 919.216,750 L 919.216,733.2 L 910,737.808 Z" fill="#cbd5e1" />
    <path d="M 910,728.5920000000001 L 919.216,733.2 L 910,737.808 L 900.784,733.2 Z" fill="#ffffff" />
  
    <path d="M 901.936,750 L 910,754.032 L 910,720.432 L 901.936,716.4 Z" fill="url(#lighthouse-red)" />
    <path d="M 910,754.032 L 918.064,750 L 918.064,716.4 L 910,720.432 Z" fill="#b91c1c" />
    <path d="M 910,712.3679999999999 L 918.064,716.4 L 910,720.432 L 901.936,716.4 Z" fill="#ef4444" />
  
    <path d="M 903.088,750 L 910,753.456 L 910,703.056 L 903.088,699.6 Z" fill="url(#lighthouse-white)" />
    <path d="M 910,753.456 L 916.912,750 L 916.912,699.6 L 910,703.056 Z" fill="#cbd5e1" />
    <path d="M 910,696.144 L 916.912,699.6 L 910,703.056 L 903.088,699.6 Z" fill="#ffffff" />
  
    <path d="M 904.24,750 L 910,752.88 L 910,685.68 L 904.24,682.8 Z" fill="url(#lighthouse-red)" />
    <path d="M 910,752.88 L 915.76,750 L 915.76,682.8 L 910,685.68 Z" fill="#b91c1c" />
    <path d="M 910,679.92 L 915.76,682.8 L 910,685.68 L 904.24,682.8 Z" fill="#ef4444" />
  
    <path d="M 902.896,750 L 910,753.552 L 910,683.952 L 902.896,680.4 Z" fill="#0f172a" />
    <path d="M 910,753.552 L 917.104,750 L 917.104,680.4 L 910,683.952 Z" fill="#020617" />
    <path d="M 910,676.848 L 917.104,680.4 L 910,683.952 L 902.896,680.4 Z" fill="#1e293b" />
  
    <path d="M 903.856,750 L 910,753.072 L 910,673.072 L 903.856,670 Z" fill="#fbbf24" />
    <path d="M 910,753.072 L 916.144,750 L 916.144,670 L 910,673.072 Z" fill="#d97706" />
    <path d="M 910,666.928 L 916.144,670 L 910,673.072 L 903.856,670 Z" fill="#fef08a" />
  
    <path d="M 903.376,750 L 910,753.312 L 910,670.112 L 903.376,666.8 Z" fill="#0f172a" />
    <path d="M 910,753.312 L 916.624,750 L 916.624,666.8 L 910,670.112 Z" fill="#020617" />
    <path d="M 910,663.4879999999999 L 916.624,666.8 L 910,670.112 L 903.376,666.8 Z" fill="#1e293b" />
  
      <polygon points="910,676.4 1020,556.4 1080,556.4" 
               fill="url(#beam-light)" opacity="0.5" />
      <circle cx="910" cy="676.4" r="3" fill="#ffffff" filter="url(#neon-glow)" />
    
        <!-- Trunk -->
        <path d="M 901,755 Q 896.72,741.8 893.2,728.6 L 894.2,728.6 Q 897.72,741.8 903,755 Z" fill="#854d0e" />
        <!-- Leaves -->
        <g stroke="#166534" stroke-width="1.2" fill="none">
          <path d="M 893.2,728.6 Q 879.12,732.12 875.6,739.1600000000001" />
          <path d="M 893.2,728.6 Q 907.2800000000001,732.12 910.8000000000001,739.1600000000001" />
          <path d="M 893.2,728.6 Q 886.1600000000001,718.04 882.6400000000001,711" fill="#22c55e" fill-opacity="0.1" />
          <path d="M 893.2,728.6 Q 900.24,718.04 903.76,711" fill="#22c55e" fill-opacity="0.1" />
          <path d="M 893.2,728.6 Q 877.36,725.08 872.08,721.5600000000001" />
          <path d="M 893.2,728.6 Q 909.0400000000001,725.08 914.32,721.5600000000001" />
        </g>
      
    <path d="M 913.12,755 L 916,756.44 L 916,753.44 L 913.12,752 Z" fill="#ca8a04" />
    <path d="M 916,756.44 L 918.88,755 L 918.88,752 L 916,753.44 Z" fill="#451a03" />
    <path d="M 916,750.56 L 918.88,752 L 916,753.44 L 913.12,752 Z" fill="#78350f" />
  
    <path d="M 1078,690 L 1079,692 L 1081,692 L 1079.5,693.2 L 1080,695 L 1078,693.8 L 1076,695 L 1076.5,693.2 L 1075,692 L 1077,692 Z" fill="#ef4444" stroke="#ffffff" stroke-width="0.3" />
    
          <path d="M 979.6,736.4 C 982.6,734.4 985.6,734.4 988.6,736.4 M 982,742.4 C 985,740.4 988,740.4 991,742.4" 
                stroke="#ffffff" stroke-width="1.0" fill="none" opacity="0.4" />
        
    <path d="M 934,762 L 935,764 L 937,764 L 935.5,765.2 L 936,767 L 934,765.8 L 932,767 L 932.5,765.2 L 931,764 L 933,764 Z" fill="#ef4444" stroke="#ffffff" stroke-width="0.3" />
    <path d="M 1102,702 L 1103,704 L 1105,704 L 1103.5,705.2 L 1104,707 L 1102,705.8 L 1100,707 L 1100.5,705.2 L 1099,704 L 1101,704 Z" fill="#ef4444" stroke="#ffffff" stroke-width="0.3" />
    
          <path d="M 1027.6,736.4 C 1030.6,734.4 1033.6,734.4 1036.6,736.4 M 1030,742.4 C 1033,740.4 1036,740.4 1039,742.4" 
                stroke="#ffffff" stroke-width="1.0" fill="none" opacity="0.4" />
        
    
          <path d="M 1075.6,736.4 C 1078.6,734.4 1081.6,734.4 1084.6,736.4 M 1078,742.4 C 1081,740.4 1084,740.4 1087,742.4" 
                stroke="#ffffff" stroke-width="1.0" fill="none" opacity="0.4" />
        
    <path d="M 1054,750 L 1055,752 L 1057,752 L 1055.5,753.2 L 1056,755 L 1054,753.8 L 1052,755 L 1052.5,753.2 L 1051,752 L 1053,752 Z" fill="#ef4444" stroke="#ffffff" stroke-width="0.3" />
    
          <path d="M 1123.6,736.4 C 1126.6,734.4 1129.6,734.4 1132.6,736.4 M 1126,742.4 C 1129,740.4 1132,740.4 1135,742.4" 
                stroke="#ffffff" stroke-width="1.0" fill="none" opacity="0.4" />
        
    
          <path d="M 1171.6,736.4 C 1174.6,734.4 1177.6,734.4 1180.6,736.4 M 1174,742.4 C 1177,740.4 1180,740.4 1183,742.4" 
                stroke="#ffffff" stroke-width="1.0" fill="none" opacity="0.4" />
        
    
          <path d="M 1051.6,796.4 C 1054.6,794.4 1057.6,794.4 1060.6,796.4 M 1054,802.4 C 1057,800.4 1060,800.4 1063,802.4" 
                stroke="#ffffff" stroke-width="1.0" fill="none" opacity="0.4" />
        
    <path d="M 1102,798 L 1103,800 L 1105,800 L 1103.5,801.2 L 1104,803 L 1102,801.8 L 1100,803 L 1100.5,801.2 L 1099,800 L 1101,800 Z" fill="#ef4444" stroke="#ffffff" stroke-width="0.3" />
    <path d="M 1078,810 L 1079,812 L 1081,812 L 1079.5,813.2 L 1080,815 L 1078,813.8 L 1076,815 L 1076.5,813.2 L 1075,812 L 1077,812 Z" fill="#ef4444" stroke="#ffffff" stroke-width="0.3" />
    <path d="M 1198,774 L 1199,776 L 1201,776 L 1199.5,777.2 L 1200,779 L 1198,777.8 L 1196,779 L 1196.5,777.2 L 1195,776 L 1197,776 Z" fill="#ef4444" stroke="#ffffff" stroke-width="0.3" />
    <path d="M 1174,786 L 1175,788 L 1177,788 L 1175.5,789.2 L 1176,791 L 1174,789.8 L 1172,791 L 1172.5,789.2 L 1171,788 L 1173,788 Z" fill="#ef4444" stroke="#ffffff" stroke-width="0.3" />
    
          <path d="M 1147.6,796.4 C 1150.6,794.4 1153.6,794.4 1156.6,796.4 M 1150,802.4 C 1153,800.4 1156,800.4 1159,802.4" 
                stroke="#ffffff" stroke-width="1.0" fill="none" opacity="0.4" />
        
    <path d="M 1198,798 L 1199,800 L 1201,800 L 1199.5,801.2 L 1200,803 L 1198,801.8 L 1196,803 L 1196.5,801.2 L 1195,800 L 1197,800 Z" fill="#ef4444" stroke="#ffffff" stroke-width="0.3" />
    <path d="M 1126,834 L 1127,836 L 1129,836 L 1127.5,837.2 L 1128,839 L 1126,837.8 L 1124,839 L 1124.5,837.2 L 1123,836 L 1125,836 Z" fill="#ef4444" stroke="#ffffff" stroke-width="0.3" />
    <path d="M 1102,846 L 1103,848 L 1105,848 L 1103.5,849.2 L 1104,851 L 1102,849.8 L 1100,851 L 1100.5,849.2 L 1099,848 L 1101,848 Z" fill="#ef4444" stroke="#ffffff" stroke-width="0.3" />
    <path d="M 1222,810 L 1223,812 L 1225,812 L 1223.5,813.2 L 1224,815 L 1222,813.8 L 1220,815 L 1220.5,813.2 L 1219,812 L 1221,812 Z" fill="#ef4444" stroke="#ffffff" stroke-width="0.3" />
    <path d="M 1150,846 L 1151,848 L 1153,848 L 1151.5,849.2 L 1152,851 L 1150,849.8 L 1148,851 L 1148.5,849.2 L 1147,848 L 1149,848 Z" fill="#ef4444" stroke="#ffffff" stroke-width="0.3" />
    
          <path d="M 1123.6,856.4 C 1126.6,854.4 1129.6,854.4 1132.6,856.4 M 1126,862.4 C 1129,860.4 1132,860.4 1135,862.4" 
                stroke="#ffffff" stroke-width="1.0" fill="none" opacity="0.4" />
        
    <ellipse cx="1246" cy="826" rx="18" ry="9" fill="url(#island-shadow)" opacity="0.4" />
    <path d="M 1236.784,822 L 1246,826.608 L 1246,809.808 L 1236.784,805.2 Z" fill="url(#lighthouse-white)" />
    <path d="M 1246,826.608 L 1255.216,822 L 1255.216,805.2 L 1246,809.808 Z" fill="#cbd5e1" />
    <path d="M 1246,800.5920000000001 L 1255.216,805.2 L 1246,809.808 L 1236.784,805.2 Z" fill="#ffffff" />
  
    <path d="M 1237.936,822 L 1246,826.032 L 1246,792.432 L 1237.936,788.4 Z" fill="url(#lighthouse-red)" />
    <path d="M 1246,826.032 L 1254.064,822 L 1254.064,788.4 L 1246,792.432 Z" fill="#b91c1c" />
    <path d="M 1246,784.3679999999999 L 1254.064,788.4 L 1246,792.432 L 1237.936,788.4 Z" fill="#ef4444" />
  
    <path d="M 1239.088,822 L 1246,825.456 L 1246,775.056 L 1239.088,771.6 Z" fill="url(#lighthouse-white)" />
    <path d="M 1246,825.456 L 1252.912,822 L 1252.912,771.6 L 1246,775.056 Z" fill="#cbd5e1" />
    <path d="M 1246,768.144 L 1252.912,771.6 L 1246,775.056 L 1239.088,771.6 Z" fill="#ffffff" />
  
    <path d="M 1240.24,822 L 1246,824.88 L 1246,757.68 L 1240.24,754.8 Z" fill="url(#lighthouse-red)" />
    <path d="M 1246,824.88 L 1251.76,822 L 1251.76,754.8 L 1246,757.68 Z" fill="#b91c1c" />
    <path d="M 1246,751.92 L 1251.76,754.8 L 1246,757.68 L 1240.24,754.8 Z" fill="#ef4444" />
  
    <path d="M 1238.896,822 L 1246,825.552 L 1246,755.952 L 1238.896,752.4 Z" fill="#0f172a" />
    <path d="M 1246,825.552 L 1253.104,822 L 1253.104,752.4 L 1246,755.952 Z" fill="#020617" />
    <path d="M 1246,748.848 L 1253.104,752.4 L 1246,755.952 L 1238.896,752.4 Z" fill="#1e293b" />
  
    <path d="M 1239.856,822 L 1246,825.072 L 1246,745.072 L 1239.856,742 Z" fill="#fbbf24" />
    <path d="M 1246,825.072 L 1252.144,822 L 1252.144,742 L 1246,745.072 Z" fill="#d97706" />
    <path d="M 1246,738.928 L 1252.144,742 L 1246,745.072 L 1239.856,742 Z" fill="#fef08a" />
  
    <path d="M 1239.376,822 L 1246,825.312 L 1246,742.112 L 1239.376,738.8 Z" fill="#0f172a" />
    <path d="M 1246,825.312 L 1252.624,822 L 1252.624,738.8 L 1246,742.112 Z" fill="#020617" />
    <path d="M 1246,735.4879999999999 L 1252.624,738.8 L 1246,742.112 L 1239.376,738.8 Z" fill="#1e293b" />
  
      <polygon points="1246,748.4 1356,628.4 1416,628.4" 
               fill="url(#beam-light)" opacity="0.5" />
      <circle cx="1246" cy="748.4" r="3" fill="#ffffff" filter="url(#neon-glow)" />
    
        <!-- Trunk -->
        <path d="M 1237,827 Q 1232.72,813.8 1229.2,800.6 L 1230.2,800.6 Q 1233.72,813.8 1239,827 Z" fill="#854d0e" />
        <!-- Leaves -->
        <g stroke="#166534" stroke-width="1.2" fill="none">
          <path d="M 1229.2,800.6 Q 1215.1200000000001,804.12 1211.6000000000001,811.1600000000001" />
          <path d="M 1229.2,800.6 Q 1243.28,804.12 1246.8,811.1600000000001" />
          <path d="M 1229.2,800.6 Q 1222.16,790.04 1218.64,783" fill="#22c55e" fill-opacity="0.1" />
          <path d="M 1229.2,800.6 Q 1236.24,790.04 1239.76,783" fill="#22c55e" fill-opacity="0.1" />
          <path d="M 1229.2,800.6 Q 1213.3600000000001,797.08 1208.08,793.5600000000001" />
          <path d="M 1229.2,800.6 Q 1245.04,797.08 1250.3200000000002,793.5600000000001" />
        </g>
      
    <path d="M 1249.12,827 L 1252,828.44 L 1252,825.44 L 1249.12,824 Z" fill="#ca8a04" />
    <path d="M 1252,828.44 L 1254.88,827 L 1254.88,824 L 1252,825.44 Z" fill="#451a03" />
    <path d="M 1252,822.56 L 1254.88,824 L 1252,825.44 L 1249.12,824 Z" fill="#78350f" />
  
    <ellipse cx="1222" cy="838" rx="18" ry="9" fill="url(#island-shadow)" opacity="0.4" />
    <path d="M 1212.784,834 L 1222,838.608 L 1222,821.808 L 1212.784,817.2 Z" fill="url(#lighthouse-white)" />
    <path d="M 1222,838.608 L 1231.216,834 L 1231.216,817.2 L 1222,821.808 Z" fill="#cbd5e1" />
    <path d="M 1222,812.5920000000001 L 1231.216,817.2 L 1222,821.808 L 1212.784,817.2 Z" fill="#ffffff" />
  
    <path d="M 1213.936,834 L 1222,838.032 L 1222,804.432 L 1213.936,800.4 Z" fill="url(#lighthouse-red)" />
    <path d="M 1222,838.032 L 1230.064,834 L 1230.064,800.4 L 1222,804.432 Z" fill="#b91c1c" />
    <path d="M 1222,796.3679999999999 L 1230.064,800.4 L 1222,804.432 L 1213.936,800.4 Z" fill="#ef4444" />
  
    <path d="M 1215.088,834 L 1222,837.456 L 1222,787.056 L 1215.088,783.6 Z" fill="url(#lighthouse-white)" />
    <path d="M 1222,837.456 L 1228.912,834 L 1228.912,783.6 L 1222,787.056 Z" fill="#cbd5e1" />
    <path d="M 1222,780.144 L 1228.912,783.6 L 1222,787.056 L 1215.088,783.6 Z" fill="#ffffff" />
  
    <path d="M 1216.24,834 L 1222,836.88 L 1222,769.68 L 1216.24,766.8 Z" fill="url(#lighthouse-red)" />
    <path d="M 1222,836.88 L 1227.76,834 L 1227.76,766.8 L 1222,769.68 Z" fill="#b91c1c" />
    <path d="M 1222,763.92 L 1227.76,766.8 L 1222,769.68 L 1216.24,766.8 Z" fill="#ef4444" />
  
    <path d="M 1214.896,834 L 1222,837.552 L 1222,767.952 L 1214.896,764.4 Z" fill="#0f172a" />
    <path d="M 1222,837.552 L 1229.104,834 L 1229.104,764.4 L 1222,767.952 Z" fill="#020617" />
    <path d="M 1222,760.848 L 1229.104,764.4 L 1222,767.952 L 1214.896,764.4 Z" fill="#1e293b" />
  
    <path d="M 1215.856,834 L 1222,837.072 L 1222,757.072 L 1215.856,754 Z" fill="#fbbf24" />
    <path d="M 1222,837.072 L 1228.144,834 L 1228.144,754 L 1222,757.072 Z" fill="#d97706" />
    <path d="M 1222,750.928 L 1228.144,754 L 1222,757.072 L 1215.856,754 Z" fill="#fef08a" />
  
    <path d="M 1215.376,834 L 1222,837.312 L 1222,754.112 L 1215.376,750.8 Z" fill="#0f172a" />
    <path d="M 1222,837.312 L 1228.624,834 L 1228.624,750.8 L 1222,754.112 Z" fill="#020617" />
    <path d="M 1222,747.4879999999999 L 1228.624,750.8 L 1222,754.112 L 1215.376,750.8 Z" fill="#1e293b" />
  
      <polygon points="1222,760.4 1332,640.4 1392,640.4" 
               fill="url(#beam-light)" opacity="0.5" />
      <circle cx="1222" cy="760.4" r="3" fill="#ffffff" filter="url(#neon-glow)" />
    
        <!-- Trunk -->
        <path d="M 1213,839 Q 1208.72,825.8 1205.2,812.6 L 1206.2,812.6 Q 1209.72,825.8 1215,839 Z" fill="#854d0e" />
        <!-- Leaves -->
        <g stroke="#166534" stroke-width="1.2" fill="none">
          <path d="M 1205.2,812.6 Q 1191.1200000000001,816.12 1187.6000000000001,823.1600000000001" />
          <path d="M 1205.2,812.6 Q 1219.28,816.12 1222.8,823.1600000000001" />
          <path d="M 1205.2,812.6 Q 1198.16,802.04 1194.64,795" fill="#22c55e" fill-opacity="0.1" />
          <path d="M 1205.2,812.6 Q 1212.24,802.04 1215.76,795" fill="#22c55e" fill-opacity="0.1" />
          <path d="M 1205.2,812.6 Q 1189.3600000000001,809.08 1184.08,805.5600000000001" />
          <path d="M 1205.2,812.6 Q 1221.04,809.08 1226.3200000000002,805.5600000000001" />
        </g>
      
    <path d="M 1225.12,839 L 1228,840.44 L 1228,837.44 L 1225.12,836 Z" fill="#ca8a04" />
    <path d="M 1228,840.44 L 1230.88,839 L 1230.88,836 L 1228,837.44 Z" fill="#451a03" />
    <path d="M 1228,834.56 L 1230.88,836 L 1228,837.44 L 1225.12,836 Z" fill="#78350f" />
  
    <path d="M 1150,870 L 1151,872 L 1153,872 L 1151.5,873.2 L 1152,875 L 1150,873.8 L 1148,875 L 1148.5,873.2 L 1147,872 L 1149,872 Z" fill="#ef4444" stroke="#ffffff" stroke-width="0.3" />
    <path d="M 1270,834 L 1271,836 L 1273,836 L 1271.5,837.2 L 1272,839 L 1270,837.8 L 1268,839 L 1268.5,837.2 L 1267,836 L 1269,836 Z" fill="#ef4444" stroke="#ffffff" stroke-width="0.3" />
    <path d="M 1246,846 L 1247,848 L 1249,848 L 1247.5,849.2 L 1248,851 L 1246,849.8 L 1244,851 L 1244.5,849.2 L 1243,848 L 1245,848 Z" fill="#ef4444" stroke="#ffffff" stroke-width="0.3" />
    <path d="M 1174,882 L 1175,884 L 1177,884 L 1175.5,885.2 L 1176,887 L 1174,885.8 L 1172,887 L 1172.5,885.2 L 1171,884 L 1173,884 Z" fill="#ef4444" stroke="#ffffff" stroke-width="0.3" />
    <ellipse cx="1342" cy="825" rx="8" ry="4" fill="url(#island-shadow)" opacity="0.3" />
        <!-- Trunk -->
        <path d="M 1341,824 Q 1337.2,812 1334,800 L 1335,800 Q 1338.2,812 1343,824 Z" fill="#854d0e" />
        <!-- Leaves -->
        <g stroke="#166534" stroke-width="1.2" fill="none">
          <path d="M 1334,800 Q 1321.2,803.2 1318,809.6" />
          <path d="M 1334,800 Q 1346.8,803.2 1350,809.6" />
          <path d="M 1334,800 Q 1327.6,790.4 1324.4,784" fill="#22c55e" fill-opacity="0.1" />
          <path d="M 1334,800 Q 1340.4,790.4 1343.6,784" fill="#22c55e" fill-opacity="0.1" />
          <path d="M 1334,800 Q 1319.6,796.8 1314.8,793.6" />
          <path d="M 1334,800 Q 1348.4,796.8 1353.2,793.6" />
        </g>
      
    <ellipse cx="1270" cy="861" rx="8" ry="4" fill="url(#island-shadow)" opacity="0.3" />
        <!-- Trunk -->
        <path d="M 1269,860 Q 1265.2,848 1262,836 L 1263,836 Q 1266.2,848 1271,860 Z" fill="#854d0e" />
        <!-- Leaves -->
        <g stroke="#166534" stroke-width="1.2" fill="none">
          <path d="M 1262,836 Q 1249.2,839.2 1246,845.6" />
          <path d="M 1262,836 Q 1274.8,839.2 1278,845.6" />
          <path d="M 1262,836 Q 1255.6,826.4 1252.4,820" fill="#22c55e" fill-opacity="0.1" />
          <path d="M 1262,836 Q 1268.4,826.4 1271.6,820" fill="#22c55e" fill-opacity="0.1" />
          <path d="M 1262,836 Q 1247.6,832.8 1242.8,829.6" />
          <path d="M 1262,836 Q 1276.4,832.8 1281.2,829.6" />
        </g>
      
    <ellipse cx="1198" cy="897" rx="8" ry="4" fill="url(#island-shadow)" opacity="0.3" />
        <!-- Trunk -->
        <path d="M 1197,896 Q 1193.2,884 1190,872 L 1191,872 Q 1194.2,884 1199,896 Z" fill="#854d0e" />
        <!-- Leaves -->
        <g stroke="#166534" stroke-width="1.2" fill="none">
          <path d="M 1190,872 Q 1177.2,875.2 1174,881.6" />
          <path d="M 1190,872 Q 1202.8,875.2 1206,881.6" />
          <path d="M 1190,872 Q 1183.6,862.4 1180.4,856" fill="#22c55e" fill-opacity="0.1" />
          <path d="M 1190,872 Q 1196.4,862.4 1199.6,856" fill="#22c55e" fill-opacity="0.1" />
          <path d="M 1190,872 Q 1175.6,868.8 1170.8,865.6" />
          <path d="M 1190,872 Q 1204.4,868.8 1209.2,865.6" />
        </g>
      
    <path d="M 1366,834 L 1367,836 L 1369,836 L 1367.5,837.2 L 1368,839 L 1366,837.8 L 1364,839 L 1364.5,837.2 L 1363,836 L 1365,836 Z" fill="#ef4444" stroke="#ffffff" stroke-width="0.3" />
    
          <path d="M 1315.6,856.4 C 1318.6,854.4 1321.6,854.4 1324.6,856.4 M 1318,862.4 C 1321,860.4 1324,860.4 1327,862.4" 
                stroke="#ffffff" stroke-width="1.0" fill="none" opacity="0.4" />
        
    <path d="M 1270,882 L 1271,884 L 1273,884 L 1271.5,885.2 L 1272,887 L 1270,885.8 L 1268,887 L 1268.5,885.2 L 1267,884 L 1269,884 Z" fill="#ef4444" stroke="#ffffff" stroke-width="0.3" />
    <path d="M 1318,882 L 1319,884 L 1321,884 L 1319.5,885.2 L 1320,887 L 1318,885.8 L 1316,887 L 1316.5,885.2 L 1315,884 L 1317,884 Z" fill="#ef4444" stroke="#ffffff" stroke-width="0.3" />
    <path d="M 1294,894 L 1295,896 L 1297,896 L 1295.5,897.2 L 1296,899 L 1294,897.8 L 1292,899 L 1292.5,897.2 L 1291,896 L 1293,896 Z" fill="#ef4444" stroke="#ffffff" stroke-width="0.3" />
    <path d="M 1414,858 L 1415,860 L 1417,860 L 1415.5,861.2 L 1416,863 L 1414,861.8 L 1412,863 L 1412.5,861.2 L 1411,860 L 1413,860 Z" fill="#ef4444" stroke="#ffffff" stroke-width="0.3" />
    <path d="M 1390,870 L 1391,872 L 1393,872 L 1391.5,873.2 L 1392,875 L 1390,873.8 L 1388,875 L 1388.5,873.2 L 1387,872 L 1389,872 Z" fill="#ef4444" stroke="#ffffff" stroke-width="0.3" />
    <path d="M 1318,906 L 1319,908 L 1321,908 L 1319.5,909.2 L 1320,911 L 1318,909.8 L 1316,911 L 1316.5,909.2 L 1315,908 L 1317,908 Z" fill="#ef4444" stroke="#ffffff" stroke-width="0.3" />
    <path d="M 1438,870 L 1439,872 L 1441,872 L 1439.5,873.2 L 1440,875 L 1438,873.8 L 1436,875 L 1436.5,873.2 L 1435,872 L 1437,872 Z" fill="#ef4444" stroke="#ffffff" stroke-width="0.3" />
    <path d="M 1414,882 L 1415,884 L 1417,884 L 1415.5,885.2 L 1416,887 L 1414,885.8 L 1412,887 L 1412.5,885.2 L 1411,884 L 1413,884 Z" fill="#ef4444" stroke="#ffffff" stroke-width="0.3" />
    
          <path d="M 1339.6,916.4 C 1342.6,914.4 1345.6,914.4 1348.6,916.4 M 1342,922.4 C 1345,920.4 1348,920.4 1351,922.4" 
                stroke="#ffffff" stroke-width="1.0" fill="none" opacity="0.4" />
        
    <path d="M 1318,930 L 1319,932 L 1321,932 L 1319.5,933.2 L 1320,935 L 1318,933.8 L 1316,935 L 1316.5,933.2 L 1315,932 L 1317,932 Z" fill="#ef4444" stroke="#ffffff" stroke-width="0.3" />
  </g>

  <!-- Legend (Activity Level) -->
  <g transform="translate(1220, 1005)">
    <text x="0" y="8" class="legend-text" text-anchor="end">Less</text>
    
    <g transform="translate(10, 0)">
      <use href="#tile-0" x="10" y="0" />
    </g>
    
    <g transform="translate(45, 0)">
      <use href="#tile-1" x="10" y="0" />
      
    </g>
    
    <g transform="translate(80, 0)">
      <use href="#tile-2" x="10" y="0" />
      <ellipse cx="10" cy="1" rx="8" ry="4" fill="url(#island-shadow)" opacity="0.3" />
        <!-- Trunk -->
        <path d="M 9,0 Q 6.16,-9.6 3.5999999999999996,-19.2 L 4.6,-19.2 Q 7.16,-9.6 11,0 Z" fill="#854d0e" />
        <!-- Leaves -->
        <g stroke="#166534" stroke-width="1.2" fill="none">
          <path d="M 3.5999999999999996,-19.2 Q -6.640000000000001,-16.64 -9.200000000000001,-11.52" />
          <path d="M 3.5999999999999996,-19.2 Q 13.84,-16.64 16.4,-11.52" />
          <path d="M 3.5999999999999996,-19.2 Q -1.5200000000000005,-26.88 -4.08,-32" fill="#22c55e" fill-opacity="0.1" />
          <path d="M 3.5999999999999996,-19.2 Q 8.719999999999999,-26.88 11.28,-32" fill="#22c55e" fill-opacity="0.1" />
          <path d="M 3.5999999999999996,-19.2 Q -7.92,-21.759999999999998 -11.76,-24.32" />
          <path d="M 3.5999999999999996,-19.2 Q 15.12,-21.759999999999998 18.96,-24.32" />
        </g>
      
    </g>
    
    <g transform="translate(115, 0)">
      <use href="#tile-3" x="10" y="0" />
      <ellipse cx="10" cy="2" rx="14" ry="7" fill="url(#island-shadow)" opacity="0.35" />
    <path d="M 6.800000000000001,-3 L 14,0.5999999999999996 L 14,-9.000000000000002 L 6.800000000000001,-12.600000000000001 Z" fill="#78350f" />
    <path d="M 14,0.5999999999999996 L 21.2,-3 L 21.2,-12.600000000000001 L 14,-9.000000000000002 Z" fill="#451a03" />
    <path d="M 14,-16.200000000000003 L 21.2,-12.600000000000001 L 14,-9.000000000000002 L 6.800000000000001,-12.600000000000001 Z" fill="#b45309" />
  
        <path d="M 5.84,-12.600000000000001 L 14,-20.6 L 14,-8.520000000000001 Z" fill="#fef08a" />
        <path d="M 14,-8.520000000000001 L 14,-20.6 L 22.16,-12.600000000000001 Z" fill="#facc15" />
      
        <!-- Trunk -->
        <path d="M 4,2 Q 0.4399999999999995,-9.4 -2.5999999999999996,-20.8 L -1.5999999999999996,-20.8 Q 1.4399999999999995,-9.4 6,2 Z" fill="#854d0e" />
        <!-- Leaves -->
        <g stroke="#166534" stroke-width="1.2" fill="none">
          <path d="M -2.5999999999999996,-20.8 Q -14.76,-17.76 -17.799999999999997,-11.68" />
          <path d="M -2.5999999999999996,-20.8 Q 9.56,-17.76 12.6,-11.68" />
          <path d="M -2.5999999999999996,-20.8 Q -8.68,-29.92 -11.72,-36" fill="#22c55e" fill-opacity="0.1" />
          <path d="M -2.5999999999999996,-20.8 Q 3.4800000000000004,-29.92 6.520000000000001,-36" fill="#22c55e" fill-opacity="0.1" />
          <path d="M -2.5999999999999996,-20.8 Q -16.28,-23.84 -20.840000000000003,-26.880000000000003" />
          <path d="M -2.5999999999999996,-20.8 Q 11.08,-23.84 15.640000000000002,-26.880000000000003" />
        </g>
      
        <!-- Trunk -->
        <path d="M 10,4 Q 7.640000000000001,-4.399999999999999 5.4,-12.799999999999997 L 6.4,-12.799999999999997 Q 8.64,-4.399999999999999 12,4 Z" fill="#854d0e" />
        <!-- Leaves -->
        <g stroke="#166534" stroke-width="1.2" fill="none">
          <path d="M 5.4,-12.799999999999997 Q -3.5599999999999987,-10.559999999999997 -5.799999999999999,-6.079999999999998" />
          <path d="M 5.4,-12.799999999999997 Q 14.36,-10.559999999999997 16.6,-6.079999999999998" />
          <path d="M 5.4,-12.799999999999997 Q 0.9200000000000008,-19.519999999999996 -1.3199999999999985,-23.999999999999996" fill="#22c55e" fill-opacity="0.1" />
          <path d="M 5.4,-12.799999999999997 Q 9.879999999999999,-19.519999999999996 12.12,-23.999999999999996" fill="#22c55e" fill-opacity="0.1" />
          <path d="M 5.4,-12.799999999999997 Q -4.679999999999998,-15.039999999999997 -8.039999999999997,-17.279999999999998" />
          <path d="M 5.4,-12.799999999999997 Q 15.479999999999999,-15.039999999999997 18.839999999999996,-17.279999999999998" />
        </g>
      
    </g>
    
    <g transform="translate(150, 0)">
      <use href="#tile-4" x="10" y="0" />
      <ellipse cx="10" cy="2" rx="18" ry="9" fill="url(#island-shadow)" opacity="0.4" />
    <path d="M 0.7839999999999989,-2 L 10,2.6080000000000005 L 10,-14.192 L 0.7839999999999989,-18.8 Z" fill="url(#lighthouse-white)" />
    <path d="M 10,2.6080000000000005 L 19.216,-2 L 19.216,-18.8 L 10,-14.192 Z" fill="#cbd5e1" />
    <path d="M 10,-23.408 L 19.216,-18.8 L 10,-14.192 L 0.7839999999999989,-18.8 Z" fill="#ffffff" />
  
    <path d="M 1.936,-2 L 10,2.032 L 10,-31.568 L 1.936,-35.6 Z" fill="url(#lighthouse-red)" />
    <path d="M 10,2.032 L 18.064,-2 L 18.064,-35.6 L 10,-31.568 Z" fill="#b91c1c" />
    <path d="M 10,-39.632000000000005 L 18.064,-35.6 L 10,-31.568 L 1.936,-35.6 Z" fill="#ef4444" />
  
    <path d="M 3.088000000000001,-2 L 10,1.4559999999999995 L 10,-48.944 L 3.088000000000001,-52.400000000000006 Z" fill="url(#lighthouse-white)" />
    <path d="M 10,1.4559999999999995 L 16.912,-2 L 16.912,-52.400000000000006 L 10,-48.944 Z" fill="#cbd5e1" />
    <path d="M 10,-55.85600000000001 L 16.912,-52.400000000000006 L 10,-48.944 L 3.088000000000001,-52.400000000000006 Z" fill="#ffffff" />
  
    <path d="M 4.24,-2 L 10,0.8799999999999999 L 10,-66.32000000000001 L 4.24,-69.2 Z" fill="url(#lighthouse-red)" />
    <path d="M 10,0.8799999999999999 L 15.76,-2 L 15.76,-69.2 L 10,-66.32000000000001 Z" fill="#b91c1c" />
    <path d="M 10,-72.08 L 15.76,-69.2 L 10,-66.32000000000001 L 4.24,-69.2 Z" fill="#ef4444" />
  
    <path d="M 2.896000000000001,-2 L 10,1.5519999999999996 L 10,-68.048 L 2.896000000000001,-71.60000000000001 Z" fill="#0f172a" />
    <path d="M 10,1.5519999999999996 L 17.104,-2 L 17.104,-71.60000000000001 L 10,-68.048 Z" fill="#020617" />
    <path d="M 10,-75.15200000000002 L 17.104,-71.60000000000001 L 10,-68.048 L 2.896000000000001,-71.60000000000001 Z" fill="#1e293b" />
  
    <path d="M 3.856,-2 L 10,1.072 L 10,-78.928 L 3.856,-82 Z" fill="#fbbf24" />
    <path d="M 10,1.072 L 16.144,-2 L 16.144,-82 L 10,-78.928 Z" fill="#d97706" />
    <path d="M 10,-85.072 L 16.144,-82 L 10,-78.928 L 3.856,-82 Z" fill="#fef08a" />
  
    <path d="M 3.3759999999999994,-2 L 10,1.3120000000000003 L 10,-81.888 L 3.3759999999999994,-85.2 Z" fill="#0f172a" />
    <path d="M 10,1.3120000000000003 L 16.624000000000002,-2 L 16.624000000000002,-85.2 L 10,-81.888 Z" fill="#020617" />
    <path d="M 10,-88.512 L 16.624000000000002,-85.2 L 10,-81.888 L 3.3759999999999994,-85.2 Z" fill="#1e293b" />
  
      <polygon points="10,-75.60000000000001 120,-195.60000000000002 180,-195.60000000000002" 
               fill="url(#beam-light)" opacity="0.5" />
      <circle cx="10" cy="-75.60000000000001" r="3" fill="#ffffff" filter="url(#neon-glow)" />
    
        <!-- Trunk -->
        <path d="M 1,3 Q -3.280000000000001,-10.200000000000001 -6.800000000000001,-23.400000000000002 L -5.800000000000001,-23.400000000000002 Q -2.280000000000001,-10.200000000000001 3,3 Z" fill="#854d0e" />
        <!-- Leaves -->
        <g stroke="#166534" stroke-width="1.2" fill="none">
          <path d="M -6.800000000000001,-23.400000000000002 Q -20.880000000000003,-19.880000000000003 -24.400000000000002,-12.84" />
          <path d="M -6.800000000000001,-23.400000000000002 Q 7.280000000000001,-19.880000000000003 10.8,-12.84" />
          <path d="M -6.800000000000001,-23.400000000000002 Q -13.840000000000002,-33.96000000000001 -17.360000000000003,-41" fill="#22c55e" fill-opacity="0.1" />
          <path d="M -6.800000000000001,-23.400000000000002 Q 0.2400000000000002,-33.96000000000001 3.7600000000000016,-41" fill="#22c55e" fill-opacity="0.1" />
          <path d="M -6.800000000000001,-23.400000000000002 Q -22.64,-26.92 -27.920000000000005,-30.440000000000005" />
          <path d="M -6.800000000000001,-23.400000000000002 Q 9.040000000000001,-26.92 14.320000000000004,-30.440000000000005" />
        </g>
      
    <path d="M 13.120000000000001,3 L 16,4.4399999999999995 L 16,1.4399999999999995 L 13.120000000000001,0 Z" fill="#ca8a04" />
    <path d="M 16,4.4399999999999995 L 18.88,3 L 18.88,0 L 16,1.4399999999999995 Z" fill="#451a03" />
    <path d="M 16,-1.44 L 18.88,0 L 16,1.4399999999999995 L 13.120000000000001,0 Z" fill="#78350f" />
  
    </g>

    <text x="195" y="8" class="legend-text">More</text>
  </g>

  <!-- Island-Specific Legend -->
  <g transform="translate(60, 1005)">
    <g transform="translate(10, 0)">
      <use href="#tile-0" x="10" y="0" />
    </g>
    <text x="35" y="8" class="legend-text">Meerwasser (Level 0)</text>

    <g transform="translate(190, 0)">
      <use href="#tile-1" x="10" y="0" />
    </g>
    <text x="215" y="8" class="legend-text">Sandbänke (Level 1)</text>

    <g transform="translate(370, 0)">
      <use href="#tile-2" x="10" y="0" />
      <ellipse cx="10" cy="1" rx="8" ry="4" fill="url(#island-shadow)" opacity="0.3" />
        <!-- Trunk -->
        <path d="M 9,0 Q 6.16,-9.6 3.5999999999999996,-19.2 L 4.6,-19.2 Q 7.16,-9.6 11,0 Z" fill="#854d0e" />
        <!-- Leaves -->
        <g stroke="#166534" stroke-width="1.2" fill="none">
          <path d="M 3.5999999999999996,-19.2 Q -6.640000000000001,-16.64 -9.200000000000001,-11.52" />
          <path d="M 3.5999999999999996,-19.2 Q 13.84,-16.64 16.4,-11.52" />
          <path d="M 3.5999999999999996,-19.2 Q -1.5200000000000005,-26.88 -4.08,-32" fill="#22c55e" fill-opacity="0.1" />
          <path d="M 3.5999999999999996,-19.2 Q 8.719999999999999,-26.88 11.28,-32" fill="#22c55e" fill-opacity="0.1" />
          <path d="M 3.5999999999999996,-19.2 Q -7.92,-21.759999999999998 -11.76,-24.32" />
          <path d="M 3.5999999999999996,-19.2 Q 15.12,-21.759999999999998 18.96,-24.32" />
        </g>
      
    </g>
    <text x="395" y="8" class="legend-text">Inseln mit Palmen/Gebäuden (Level 2-4)</text>
  </g>

</svg>
